# Blender 5.0.1
# www.blender.org
mtllib Tempe_Mentah_Potong.mtl
o Tempe_Mentah_Potong
v -0.163514 -0.200002 -0.182678
v -0.168089 -0.195098 -0.175559
v -0.124998 -0.225673 -0.175559
v -0.124998 -0.220692 -0.182678
v -0.158387 -0.136804 -0.175559
v -0.158387 -0.141860 -0.182678
v -0.124998 -0.132831 -0.182678
v -0.124998 -0.127849 -0.175559
v -0.168089 -0.158424 -0.175559
v -0.163514 -0.153521 -0.182678
v -0.062499 -0.224028 -0.161308
v -0.062499 -0.130615 -0.162963
v -0.000219 -0.128425 -0.162963
v 0.000000 -0.223783 -0.162963
v -0.168089 -0.158424 -0.162963
v -0.158387 -0.136804 -0.162963
v -0.124998 -0.225673 -0.162963
v -0.124998 -0.128498 -0.162963
v -0.168089 -0.195098 -0.162963
v -0.157855 -0.216586 -0.162963
v -0.158387 -0.216718 -0.175559
v -0.158387 -0.211663 -0.182678
v 0.000000 -0.223451 -0.175559
v 0.000000 -0.218526 -0.182678
v 0.000000 -0.128296 -0.175559
v 0.000000 -0.133221 -0.182678
v -0.062499 -0.219401 -0.180732
v -0.062499 -0.224340 -0.173613
v -0.062499 -0.136040 -0.182678
v -0.062499 -0.131102 -0.175559
v -0.163514 -0.200002 -0.143248
v -0.168089 -0.195098 -0.150367
v -0.124998 -0.225673 -0.150367
v -0.124998 -0.220692 -0.143248
v -0.158387 -0.136804 -0.150367
v -0.158387 -0.141860 -0.143248
v -0.124998 -0.132831 -0.143248
v -0.124998 -0.127849 -0.150367
v -0.168089 -0.158424 -0.150367
v -0.163514 -0.153521 -0.143248
v -0.062499 -0.224028 -0.164618
v -0.158387 -0.216718 -0.150367
v -0.158387 -0.211663 -0.143248
v 0.000000 -0.223451 -0.150367
v 0.000000 -0.218526 -0.143248
v 0.000000 -0.128296 -0.150367
v 0.000000 -0.133221 -0.143248
v -0.062499 -0.219401 -0.145194
v -0.062499 -0.224340 -0.152313
v -0.062499 -0.136040 -0.143248
v -0.062499 -0.131102 -0.150367
vn -0.5792 -0.1790 -0.7953
vn -0.9569 -0.1728 -0.2335
vn -0.1086 -0.9511 -0.2892
vn -0.0537 -0.4918 -0.8690
vn -0.5995 0.7645 -0.2369
vn -0.4633 0.4193 -0.7807
vn -0.0514 0.4924 -0.8689
vn -0.0981 0.9537 -0.2843
vn -0.9561 0.1697 -0.2388
vn -0.5792 0.1790 -0.7953
vn 0.0163 -0.9999 0.0058
vn 0.0015 1.0000 -0.0000
vn 0.6906 0.7232 -0.0000
vn 0.6988 -0.7153 -0.0000
vn -0.9778 0.2093 -0.0000
vn -0.6450 0.7642 -0.0000
vn -0.1197 -0.9928 -0.0000
vn -0.1053 0.9944 -0.0000
vn -0.9766 -0.2149 -0.0000
vn -0.6403 -0.7681 -0.0000
vn -0.6029 -0.7623 -0.2355
vn -0.4633 -0.4193 -0.7807
vn 0.6507 -0.7241 -0.2284
vn 0.6113 -0.3658 -0.7018
vn 0.6310 0.7400 -0.2329
vn 0.6049 0.3738 -0.7032
vn 0.0082 -0.4714 -0.8819
vn 0.0162 -0.9566 -0.2909
vn 0.0015 0.4468 -0.8946
vn 0.0022 0.9528 -0.3037
vn -0.5792 -0.1790 0.7953
vn -0.9569 -0.1728 0.2335
vn -0.1086 -0.9511 0.2892
vn -0.0537 -0.4918 0.8690
vn -0.5995 0.7645 0.2369
vn -0.4633 0.4193 0.7807
vn -0.0514 0.4924 0.8689
vn -0.0981 0.9537 0.2843
vn -0.9561 0.1697 0.2388
vn -0.5792 0.1790 0.7953
vn 0.0163 -0.9999 -0.0058
vn -0.6029 -0.7623 0.2355
vn -0.4633 -0.4193 0.7807
vn 0.6507 -0.7241 0.2284
vn 0.6113 -0.3658 0.7018
vn 0.6310 0.7400 0.2329
vn 0.6049 0.3738 0.7032
vn 0.0082 -0.4714 0.8819
vn 0.0162 -0.9566 0.2909
vn 0.0015 0.4468 0.8946
vn 0.0022 0.9528 0.3037
vt 0.653670 0.022410
vt 0.642326 0.017636
vt 0.638005 0.008139
vt 0.662412 0.017372
vt 0.668444 0.057744
vt 0.678665 0.056111
vt 0.594537 0.020218
vt 0.583671 0.026337
vt 0.574774 0.022147
vt 0.597811 0.010739
vt 0.570897 0.061102
vt 0.560941 0.060030
vt 0.010226 0.555860
vt 0.025020 0.555748
vt 0.025291 0.628738
vt 0.010621 0.629062
vt 0.024090 0.414412
vt 0.009304 0.414559
vt 0.008815 0.371645
vt 0.023596 0.371458
vt 0.024342 0.442185
vt 0.009556 0.442304
vt 0.024478 0.482474
vt 0.009663 0.482690
vt 0.011642 0.230744
vt 0.026030 0.230777
vt 0.023637 0.303712
vt 0.008868 0.303567
vt 0.009226 0.157877
vt 0.023949 0.157841
vt 0.008350 0.343923
vt 0.022732 0.343545
vt 0.559262 0.133160
vt 0.569506 0.133209
vt 0.680797 0.131253
vt 0.684734 0.206701
vt 0.674321 0.206834
vt 0.670270 0.131694
vt 0.561614 0.207980
vt 0.571919 0.207934
vt 0.030840 0.684492
vt 0.016169 0.684829
vt 0.628124 0.266171
vt 0.617699 0.266337
s 1
usemtl Tempe
f 6/1/6 10/2/10 9/3/9 5/4/5
f 7/5/7 6/1/6 5/4/5 8/6/8
f 1/7/1 22/8/22 21/9/21 2/10/2
f 22/8/22 4/11/4 3/12/3 21/9/21
f 30/13/30 12/14/12 13/15/13 25/16/25
f 15/17/15 9/18/9 2/19/2 19/20/19
f 16/21/16 5/22/5 9/18/9 15/17/15
f 18/23/18 8/24/8 5/22/5 16/21/16
f 28/25/28 11/26/11 17/27/17 3/28/3
f 23/29/23 14/30/14 11/26/11 28/25/28
f 8/24/8 18/23/18 12/14/12 30/13/30
f 21/31/21 20/32/20 19/20/19 2/19/2
f 3/28/3 17/27/17 20/32/20 21/31/21
f 28/33/28 3/12/3 4/11/4 27/34/27
f 2/10/2 9/3/9 10/2/10 1/7/1
f 30/35/30 25/36/25 26/37/26 29/38/29
f 23/39/23 28/33/28 27/34/27 24/40/24
f 8/6/8 30/35/30 29/38/29 7/5/7
f 22/8/22 1/7/1 10/2/10 6/1/6
f 4/11/4 22/8/22 6/1/6 7/5/7
f 27/34/27 4/11/4 7/5/7 29/38/29
f 24/40/24 27/34/27 29/38/29 26/37/26
f 25/16/25 13/15/13 14/41/14 23/42/23
f 26/37/26 25/36/25 23/43/23 24/44/24
f 36/1/36 35/4/35 39/3/39 40/2/40
f 37/5/37 38/6/38 35/4/35 36/1/36
f 31/7/31 32/10/32 42/9/42 43/8/43
f 43/8/43 42/9/42 33/12/33 34/11/34
f 51/13/51 46/16/46 13/15/13 12/14/12
f 15/17/15 19/20/19 32/19/32 39/18/39
f 16/21/16 15/17/15 39/18/39 35/22/35
f 18/23/18 16/21/16 35/22/35 38/24/38
f 49/25/49 33/28/33 17/27/17 41/26/41
f 44/29/44 49/25/49 41/26/41 14/30/14
f 38/24/38 51/13/51 12/14/12 18/23/18
f 42/31/42 32/19/32 19/20/19 20/32/20
f 33/28/33 42/31/42 20/32/20 17/27/17
f 49/33/49 48/34/48 34/11/34 33/12/33
f 32/10/32 31/7/31 40/2/40 39/3/39
f 51/35/51 50/38/50 47/37/47 46/36/46
f 44/39/44 45/40/45 48/34/48 49/33/49
f 38/6/38 37/5/37 50/38/50 51/35/51
f 43/8/43 36/1/36 40/2/40 31/7/31
f 34/11/34 37/5/37 36/1/36 43/8/43
f 48/34/48 50/38/50 37/5/37 34/11/34
f 45/40/45 47/37/47 50/38/50 48/34/48
f 46/16/46 44/42/44 14/41/14 13/15/13
f 47/37/47 45/44/45 44/43/44 46/36/46
