# Blender 5.0.1
# www.blender.org
mtllib Loyang.mtl
o loyang
v -0.186533 0.130176 0.305991
v -0.183556 0.130176 0.307826
v -0.187766 0.130176 0.301562
v -0.186533 0.130176 -0.305991
v -0.187766 0.130176 -0.301562
v -0.183556 0.130176 -0.307826
v 0.186533 0.130176 0.305991
v 0.187766 0.130176 0.301562
v 0.183556 0.130176 0.307826
v 0.186533 0.130176 -0.305991
v 0.183556 0.130176 -0.307826
v 0.187766 0.130176 -0.301562
v 0.160540 0.000389 -0.268178
v 0.160234 0.003851 -0.274591
v 0.164379 0.003851 -0.268323
v 0.160387 0.001403 -0.272464
v 0.162573 0.001818 -0.271712
v 0.163153 0.003687 -0.272716
v 0.163106 0.001403 -0.268250
v 0.164379 0.003851 0.268323
v 0.160234 0.003851 0.274591
v 0.160540 0.000389 0.268178
v 0.163153 0.003687 0.272716
v 0.162573 0.001818 0.271712
v 0.160387 0.001403 0.272464
v 0.163106 0.001403 0.268250
v -0.164379 0.003851 -0.268323
v -0.160234 0.003851 -0.274591
v -0.160540 0.000389 -0.268178
v -0.163153 0.003687 -0.272716
v -0.162573 0.001818 -0.271712
v -0.160387 0.001403 -0.272464
v -0.163106 0.001403 -0.268250
v -0.160540 0.000389 0.268178
v -0.160234 0.003851 0.274591
v -0.164379 0.003851 0.268323
v -0.160387 0.001403 0.272464
v -0.162573 0.001818 0.271712
v -0.163153 0.003687 0.272716
v -0.163106 0.001403 0.268250
v 0.186222 0.134472 -0.299082
v 0.182046 0.134472 -0.305294
v 0.184999 0.134472 -0.303474
v 0.182046 0.134472 0.305294
v 0.186222 0.134472 0.299082
v 0.184999 0.134472 0.303474
v -0.182046 0.134472 -0.305294
v -0.186222 0.134472 -0.299082
v -0.184999 0.134472 -0.303474
v -0.186222 0.134472 0.299082
v -0.182046 0.134472 0.305294
v -0.184999 0.134472 0.303474
v 0.173424 0.131396 -0.296667
v 0.176932 0.134472 -0.300309
v 0.174583 0.133571 -0.297954
v 0.181031 0.134472 -0.293978
v 0.177594 0.131396 -0.290382
v 0.178733 0.133571 -0.291656
v 0.176373 0.131397 -0.294826
v 0.179831 0.134472 -0.298425
v 0.177518 0.133571 -0.296101
v 0.177594 0.131396 0.290382
v 0.181031 0.134472 0.293978
v 0.178733 0.133571 0.291656
v 0.176932 0.134472 0.300309
v 0.173424 0.131396 0.296667
v 0.174583 0.133571 0.297954
v 0.176373 0.131397 0.294826
v 0.179831 0.134472 0.298425
v 0.177518 0.133571 0.296101
v -0.177594 0.131396 -0.290382
v -0.181031 0.134472 -0.293978
v -0.178733 0.133571 -0.291656
v -0.176932 0.134472 -0.300309
v -0.173424 0.131396 -0.296667
v -0.174583 0.133571 -0.297954
v -0.176373 0.131397 -0.294826
v -0.179831 0.134472 -0.298425
v -0.177518 0.133571 -0.296101
v -0.173424 0.131396 0.296667
v -0.176932 0.134472 0.300309
v -0.174583 0.133571 0.297954
v -0.181031 0.134472 0.293978
v -0.177594 0.131396 0.290382
v -0.178733 0.133571 0.291656
v -0.179831 0.134472 0.298425
v -0.176373 0.131397 0.294826
v -0.177518 0.133571 0.296101
vn 0.7155 -0.5253 -0.4606
vn 0.2709 -0.5576 -0.7847
vn 0.9044 -0.4041 -0.1369
vn 0.7155 -0.5253 0.4606
vn 0.9044 -0.4041 0.1369
vn 0.2709 -0.5576 0.7847
vn -0.7155 -0.5253 -0.4606
vn -0.9044 -0.4041 -0.1369
vn -0.2709 -0.5576 -0.7847
vn -0.7155 -0.5253 0.4606
vn -0.2709 -0.5576 0.7847
vn -0.9044 -0.4041 0.1369
vn 0.1731 -0.9793 -0.1045
vn 0.2358 -0.4253 -0.8738
vn 0.9527 -0.2822 -0.1125
vn 0.1817 -0.8630 -0.4713
vn 0.5920 -0.7117 -0.3782
vn 0.7881 -0.3529 -0.5043
vn 0.6651 -0.7393 -0.1047
vn 0.9527 -0.2822 0.1125
vn 0.2358 -0.4253 0.8738
vn 0.1731 -0.9793 0.1045
vn 0.7881 -0.3529 0.5043
vn 0.5920 -0.7117 0.3782
vn 0.1817 -0.8630 0.4713
vn 0.6651 -0.7393 0.1047
vn -0.9527 -0.2822 -0.1125
vn -0.2358 -0.4253 -0.8738
vn -0.1731 -0.9793 -0.1045
vn -0.7881 -0.3529 -0.5043
vn -0.5920 -0.7117 -0.3782
vn -0.1817 -0.8630 -0.4713
vn -0.6651 -0.7393 -0.1047
vn -0.1731 -0.9793 0.1045
vn -0.2358 -0.4253 0.8738
vn -0.9527 -0.2822 0.1125
vn -0.1817 -0.8630 0.4713
vn -0.5920 -0.7117 0.3782
vn -0.7881 -0.3529 0.5043
vn -0.6651 -0.7393 0.1047
vn -0.5960 -0.8003 0.0659
vn -0.0995 -0.9090 0.4047
vn -0.4383 -0.8513 0.2885
vn -0.0995 -0.9090 -0.4047
vn -0.5960 -0.8003 -0.0659
vn -0.4383 -0.8513 -0.2885
vn 0.0995 -0.9090 0.4047
vn 0.5960 -0.8003 0.0659
vn 0.4383 -0.8513 0.2885
vn 0.5960 -0.8003 -0.0659
vn 0.0995 -0.9090 -0.4047
vn 0.4383 -0.8513 -0.2885
vn 0.2384 -0.4031 -0.8836
vn 0.0499 -0.9926 -0.1105
vn 0.1441 -0.8446 -0.5156
vn 0.1411 -0.9898 -0.0214
vn 0.9363 -0.3313 -0.1169
vn 0.5978 -0.7979 -0.0776
vn 0.7518 -0.4293 -0.5005
vn 0.0895 -0.9946 -0.0517
vn 0.4083 -0.8717 -0.2710
vn 0.9363 -0.3313 0.1169
vn 0.1411 -0.9898 0.0214
vn 0.5978 -0.7979 0.0776
vn 0.0499 -0.9926 0.1105
vn 0.2384 -0.4031 0.8836
vn 0.1441 -0.8446 0.5156
vn 0.7518 -0.4293 0.5005
vn 0.0895 -0.9946 0.0517
vn 0.4083 -0.8717 0.2710
vn -0.9363 -0.3313 -0.1169
vn -0.1411 -0.9898 -0.0214
vn -0.5978 -0.7979 -0.0776
vn -0.0499 -0.9926 -0.1105
vn -0.2384 -0.4031 -0.8836
vn -0.1441 -0.8446 -0.5156
vn -0.7518 -0.4293 -0.5005
vn -0.0895 -0.9946 -0.0517
vn -0.4083 -0.8717 -0.2710
vn -0.2384 -0.4031 0.8836
vn -0.0499 -0.9926 0.1105
vn -0.1441 -0.8446 0.5156
vn -0.1411 -0.9898 0.0214
vn -0.9363 -0.3313 0.1169
vn -0.5978 -0.7979 0.0776
vn -0.0895 -0.9946 0.0517
vn -0.7518 -0.4293 0.5005
vn -0.4083 -0.8717 0.2710
vt 0.752413 0.951112
vt 0.759987 0.951652
vt 0.758745 0.960726
vt 0.754530 0.960041
vt 0.041868 0.256094
vt 0.035635 0.753221
vt 0.023120 0.754275
vt 0.029504 0.253802
vt 0.937261 0.740524
vt 0.935957 0.242708
vt 0.948451 0.241499
vt 0.949758 0.742526
vt 0.734588 0.029726
vt 0.728068 0.035107
vt 0.729787 0.022538
vt 0.734228 0.021985
vt 0.220643 0.051255
vt 0.218624 0.038747
vt 0.028063 0.758439
vt 0.021359 0.757544
vt 0.246339 0.968988
vt 0.244511 0.978015
vt 0.943393 0.237425
vt 0.950150 0.238206
vt 0.214140 0.044786
vt 0.214747 0.037369
vt 0.705252 0.266429
vt 0.708091 0.257042
vt 0.715204 0.255853
vt 0.713945 0.265604
vt 0.707331 0.246947
vt 0.717427 0.247550
vt 0.724105 0.264723
vt 0.724138 0.260590
vt 0.729900 0.717334
vt 0.729962 0.721459
vt 0.722202 0.725918
vt 0.719893 0.717106
vt 0.715039 0.735676
vt 0.714924 0.725672
vt 0.724936 0.733095
vt 0.711313 0.716588
vt 0.244269 0.279010
vt 0.244127 0.274904
vt 0.248630 0.271778
vt 0.255794 0.279484
vt 0.257578 0.260030
vt 0.257872 0.269636
vt 0.247614 0.262008
vt 0.265973 0.279173
vt 0.271736 0.730117
vt 0.264552 0.740422
vt 0.255064 0.739068
vt 0.261357 0.730497
vt 0.265175 0.750122
vt 0.254974 0.748569
vt 0.249682 0.731506
vt 0.249607 0.735615
vt 0.238051 0.966304
vt 0.239465 0.977141
vt 0.943413 0.745792
vt 0.950150 0.746494
vt 0.035865 0.250581
vt 0.029100 0.249855
vt 0.934695 0.242222
vt 0.926362 0.246943
vt 0.916469 0.248674
vt 0.920631 0.238165
vt 0.905287 0.249760
vt 0.907419 0.241998
vt 0.721507 0.047569
vt 0.728484 0.041902
vt 0.729611 0.055182
vt 0.718564 0.056393
vt 0.725126 0.064658
vt 0.717234 0.067123
vt 0.252354 0.947277
vt 0.247814 0.953862
vt 0.246563 0.937362
vt 0.255704 0.937709
vt 0.246975 0.934219
vt 0.257012 0.928094
vt 0.037570 0.753717
vt 0.045532 0.749202
vt 0.065604 0.748186
vt 0.053269 0.754409
vt 0.074625 0.747253
vt 0.067682 0.752798
vt 0.752190 0.935481
vt 0.745650 0.929552
vt 0.741841 0.920119
vt 0.752819 0.920043
vt 0.739374 0.910555
vt 0.749856 0.915176
vt 0.927710 0.735943
vt 0.935400 0.741034
vt 0.921395 0.744395
vt 0.917796 0.733944
vt 0.908595 0.740450
vt 0.906681 0.732795
vt 0.219598 0.057457
vt 0.228009 0.063445
vt 0.231462 0.072145
vt 0.220528 0.071705
vt 0.233492 0.082831
vt 0.225334 0.081189
vt 0.050359 0.260694
vt 0.042975 0.255495
vt 0.056134 0.256420
vt 0.064048 0.262494
vt 0.066372 0.257911
vt 0.073013 0.263538
s 1
usemtl Material
f 44/1/44 46/2/46 7/3/7 9/4/9
f 48/5/48 50/6/50 3/7/3 5/8/5
f 45/9/45 41/10/41 12/11/12 8/12/8
f 43/13/43 42/14/42 11/15/11 10/16/10
f 42/14/42 47/17/47 6/18/6 11/15/11
f 50/6/50 52/19/52 1/20/1 3/7/3
f 51/21/51 44/1/44 9/4/9 2/22/2
f 41/10/41 43/23/43 10/24/10 12/11/12
f 47/17/47 49/25/49 4/26/4 6/18/6
f 13/27/13 16/28/16 17/29/17 19/30/19
f 14/31/14 18/32/18 17/29/17 16/28/16
f 15/33/15 19/30/19 17/29/17 18/34/18
f 20/35/20 23/36/23 24/37/24 26/38/26
f 21/39/21 25/40/25 24/37/24 23/41/23
f 22/42/22 26/38/26 24/37/24 25/40/25
f 27/43/27 30/44/30 31/45/31 33/46/33
f 28/47/28 32/48/32 31/45/31 30/49/30
f 29/50/29 33/46/33 31/45/31 32/48/32
f 34/51/34 37/52/37 38/53/38 40/54/40
f 35/55/35 39/56/39 38/53/38 37/52/37
f 36/57/36 40/54/40 38/53/38 39/58/39
f 29/50/29 34/51/34 40/54/40 33/46/33
f 33/46/33 40/54/40 36/57/36 27/43/27
f 13/27/13 29/50/29 32/48/32 16/28/16
f 16/28/16 32/48/32 28/47/28 14/31/14
f 34/51/34 22/42/22 25/40/25 37/52/37
f 37/52/37 25/40/25 21/39/21 35/55/35
f 22/42/22 13/27/13 19/30/19 26/38/26
f 26/38/26 19/30/19 15/33/15 20/35/20
f 29/50/29 13/27/13 22/42/22 34/51/34
f 52/59/52 51/21/51 2/22/2 1/60/1
f 46/61/46 45/9/45 8/12/8 7/62/7
f 49/63/49 48/5/48 5/8/5 4/64/4
f 60/65/60 56/66/56 58/67/58 61/68/61
f 61/68/61 58/67/58 57/69/57 59/70/59
f 54/71/54 60/72/60 61/73/61 55/74/55
f 55/74/55 61/73/61 59/75/59 53/76/53
f 81/77/81 86/78/86 88/79/88 82/80/82
f 82/80/82 88/79/88 87/81/87 80/82/80
f 86/83/86 83/84/83 85/85/85 88/86/88
f 88/86/88 85/85/85 84/87/84 87/88/87
f 69/89/69 65/90/65 67/91/67 70/92/70
f 70/92/70 67/91/67 66/93/66 68/94/68
f 63/95/63 69/96/69 70/97/70 64/98/64
f 64/98/64 70/97/70 68/99/68 62/100/62
f 78/101/78 74/102/74 76/103/76 79/104/79
f 79/104/79 76/103/76 75/105/75 77/106/77
f 72/107/72 78/108/78 79/109/79 73/110/73
f 73/110/73 79/109/79 77/111/77 71/112/71
f 74/102/74 54/71/54 55/74/55 76/103/76
f 76/103/76 55/74/55 53/76/53 75/105/75
f 56/66/56 63/95/63 64/98/64 58/67/58
f 58/67/58 64/98/64 62/100/62 57/69/57
f 65/90/65 81/77/81 82/80/82 67/91/67
f 67/91/67 82/80/82 80/82/80 66/93/66
f 83/84/83 72/107/72 73/110/73 85/85/85
f 85/85/85 73/110/73 71/112/71 84/87/84
f 54/71/54 42/14/42 43/13/43 60/72/60
f 54/71/54 74/102/74 47/17/47 42/14/42
f 59/75/59 18/32/18 14/31/14 53/76/53
f 28/47/28 75/105/75 53/76/53 14/31/14
f 60/65/60 43/23/43 41/10/41 56/66/56
f 57/69/57 15/33/15 18/34/18 59/70/59
f 63/95/63 56/66/56 41/10/41 45/9/45
f 15/33/15 57/69/57 62/100/62 20/35/20
f 46/61/46 69/96/69 63/95/63 45/9/45
f 68/99/68 23/36/23 20/35/20 62/100/62
f 44/1/44 65/90/65 69/89/69 46/2/46
f 66/93/66 21/39/21 23/41/23 68/94/68
f 81/77/81 65/90/65 44/1/44 51/21/51
f 21/39/21 66/93/66 80/82/80 35/55/35
f 49/63/49 78/108/78 72/107/72 48/5/48
f 72/107/72 83/84/83 50/6/50 48/5/48
f 77/111/77 30/44/30 27/43/27 71/112/71
f 36/57/36 84/87/84 71/112/71 27/43/27
f 47/17/47 74/102/74 78/101/78 49/25/49
f 75/105/75 28/47/28 30/49/30 77/106/77
f 35/55/35 80/82/80 87/81/87 39/56/39
f 81/77/81 51/21/51 52/59/52 86/78/86
f 86/83/86 52/19/52 50/6/50 83/84/83
f 39/58/39 87/88/87 84/87/84 36/57/36
