# Blender 5.0.1
# www.blender.org
mtllib PanciAir.mtl
o PanciAir
v 0.043889 0.098345 -0.174657
v 0.041684 0.128476 -0.246693
v 0.042256 0.130464 -0.188945
v 0.041684 0.109260 -0.245096
v 0.042256 0.109196 -0.188973
v 0.043889 0.130464 -0.174657
v 0.039701 0.123844 -0.252375
v 0.039701 0.111835 -0.250841
v 0.044049 0.130464 -0.239843
v 0.034032 0.130464 -0.229232
v 0.039240 0.130464 -0.207471
v 0.039240 0.113575 -0.207471
v 0.034032 0.114337 -0.227053
v 0.044049 0.109857 -0.237125
v 0.056302 0.098345 -0.171686
v 0.059340 0.114208 -0.170958
v 0.044961 0.125196 -0.246421
v 0.058144 0.127288 -0.189125
v 0.055019 0.130464 -0.188945
v 0.044961 0.112660 -0.245379
v 0.055019 0.109196 -0.188973
v 0.058144 0.119853 -0.189125
v 0.059340 0.127289 -0.170958
v 0.056302 0.130464 -0.171686
v 0.042825 0.120653 -0.251968
v 0.042825 0.115314 -0.251286
v 0.047326 0.127253 -0.239420
v 0.046795 0.130464 -0.229232
v 0.050312 0.127270 -0.228800
v 0.055128 0.127282 -0.207471
v 0.052004 0.130464 -0.207471
v 0.052004 0.113575 -0.207471
v 0.055128 0.119853 -0.207471
v 0.046795 0.114337 -0.227053
v 0.050312 0.119853 -0.227513
v 0.047326 0.113248 -0.237572
v 0.043889 0.119525 -0.174657
v 0.042256 0.119830 -0.188959
v 0.039240 0.122020 -0.207471
v 0.034032 0.122401 -0.228142
v 0.059340 0.120749 -0.170958
v 0.058144 0.123570 -0.189125
v 0.044961 0.118928 -0.245900
v 0.042825 0.117984 -0.251627
v 0.047326 0.120250 -0.238496
v 0.055128 0.123567 -0.207471
v 0.050312 0.123561 -0.228157
v 0.056302 0.119525 -0.171686
v 0.039701 0.117961 -0.253938
v -0.043889 0.098345 -0.174657
v -0.041684 0.128476 -0.246693
v -0.042256 0.130464 -0.188945
v -0.041684 0.109260 -0.245096
v -0.042256 0.109196 -0.188973
v -0.043889 0.130464 -0.174657
v -0.039701 0.123844 -0.252375
v -0.039701 0.111835 -0.250841
v -0.044049 0.130464 -0.239843
v -0.034032 0.130464 -0.229232
v -0.039240 0.130464 -0.207471
v -0.039240 0.113575 -0.207471
v -0.034032 0.114337 -0.227053
v -0.044049 0.109857 -0.237125
v -0.056302 0.098345 -0.171686
v -0.059340 0.114208 -0.170958
v -0.044961 0.125196 -0.246421
v -0.058144 0.127288 -0.189125
v -0.055019 0.130464 -0.188945
v -0.044961 0.112660 -0.245379
v -0.055019 0.109196 -0.188973
v -0.058144 0.119853 -0.189125
v -0.059340 0.127289 -0.170958
v -0.056302 0.130464 -0.171686
v -0.042825 0.120653 -0.251968
v -0.042825 0.115314 -0.251286
v -0.047326 0.127253 -0.239420
v -0.046795 0.130464 -0.229232
v -0.050312 0.127270 -0.228800
v -0.055128 0.127282 -0.207471
v -0.052004 0.130464 -0.207471
v -0.052004 0.113575 -0.207471
v -0.055128 0.119853 -0.207471
v -0.046795 0.114337 -0.227053
v -0.050312 0.119853 -0.227513
v -0.047326 0.113248 -0.237572
v -0.043889 0.119525 -0.174657
v -0.042256 0.119830 -0.188959
v -0.039240 0.122020 -0.207471
v -0.034032 0.122401 -0.228142
v -0.059340 0.120749 -0.170958
v -0.058144 0.123570 -0.189125
v -0.044961 0.118928 -0.245900
v -0.042825 0.117984 -0.251627
v -0.047326 0.120250 -0.238496
v -0.055128 0.123567 -0.207471
v -0.050312 0.123561 -0.228157
v -0.056302 0.119525 -0.171686
v -0.039701 0.117961 -0.253938
v 0.043889 0.098345 0.174657
v 0.041684 0.128476 0.246693
v 0.042256 0.130464 0.188945
v 0.041684 0.109260 0.245096
v 0.042256 0.109196 0.188973
v 0.043889 0.130464 0.174657
v 0.039701 0.123844 0.252375
v 0.039701 0.111835 0.250841
v 0.044049 0.130464 0.239843
v 0.034032 0.130464 0.229232
v 0.039240 0.130464 0.207471
v 0.039240 0.113575 0.207471
v 0.034032 0.114337 0.227053
v 0.044049 0.109857 0.237125
v 0.056302 0.098345 0.171686
v 0.059340 0.114208 0.170958
v 0.044961 0.125196 0.246421
v 0.058144 0.127288 0.189125
v 0.055019 0.130464 0.188945
v 0.044961 0.112660 0.245379
v 0.055019 0.109196 0.188973
v 0.058144 0.119853 0.189125
v 0.059340 0.127289 0.170958
v 0.056302 0.130464 0.171686
v 0.042825 0.120653 0.251968
v 0.042825 0.115314 0.251286
v 0.047326 0.127253 0.239420
v 0.046795 0.130464 0.229232
v 0.050312 0.127270 0.228800
v 0.055128 0.127282 0.207471
v 0.052004 0.130464 0.207471
v 0.052004 0.113575 0.207471
v 0.055128 0.119853 0.207471
v 0.046795 0.114337 0.227053
v 0.050312 0.119853 0.227513
v 0.047326 0.113248 0.237572
v 0.043889 0.119525 0.174657
v 0.042256 0.119830 0.188959
v 0.039240 0.122020 0.207471
v 0.034032 0.122401 0.228142
v 0.059340 0.120749 0.170958
v 0.058144 0.123570 0.189125
v 0.044961 0.118928 0.245900
v 0.042825 0.117984 0.251627
v 0.047326 0.120250 0.238496
v 0.055128 0.123567 0.207471
v 0.050312 0.123561 0.228157
v 0.056302 0.119525 0.171686
v 0.039701 0.117961 0.253938
v -0.043889 0.098345 0.174657
v -0.041684 0.128476 0.246693
v -0.042256 0.130464 0.188945
v -0.041684 0.109260 0.245096
v -0.042256 0.109196 0.188973
v -0.043889 0.130464 0.174657
v -0.039701 0.123844 0.252375
v -0.039701 0.111835 0.250841
v -0.044049 0.130464 0.239843
v -0.034032 0.130464 0.229232
v -0.039240 0.130464 0.207471
v -0.039240 0.113575 0.207471
v -0.034032 0.114337 0.227053
v -0.044049 0.109857 0.237125
v -0.056302 0.098345 0.171686
v -0.059340 0.114208 0.170958
v -0.044961 0.125196 0.246421
v -0.058144 0.127288 0.189125
v -0.055019 0.130464 0.188945
v -0.044961 0.112660 0.245379
v -0.055019 0.109196 0.188973
v -0.058144 0.119853 0.189125
v -0.059340 0.127289 0.170958
v -0.056302 0.130464 0.171686
v -0.042825 0.120653 0.251968
v -0.042825 0.115314 0.251286
v -0.047326 0.127253 0.239420
v -0.046795 0.130464 0.229232
v -0.050312 0.127270 0.228800
v -0.055128 0.127282 0.207471
v -0.052004 0.130464 0.207471
v -0.052004 0.113575 0.207471
v -0.055128 0.119853 0.207471
v -0.046795 0.114337 0.227053
v -0.050312 0.119853 0.227513
v -0.047326 0.113248 0.237572
v -0.043889 0.119525 0.174657
v -0.042256 0.119830 0.188959
v -0.039240 0.122020 0.207471
v -0.034032 0.122401 0.228142
v -0.059340 0.120749 0.170958
v -0.058144 0.123570 0.189125
v -0.044961 0.118928 0.245900
v -0.042825 0.117984 0.251627
v -0.047326 0.120250 0.238496
v -0.055128 0.123567 0.207471
v -0.050312 0.123561 0.228157
v -0.056302 0.119525 0.171686
v -0.039701 0.117961 0.253938
v -0.177094 0.032609 -0.047452
v -0.183341 0.032609 0.000000
v 0.158778 0.032609 -0.091671
v 0.129642 0.032609 -0.129642
v 0.047452 0.032609 0.177094
v 0.091671 0.032609 0.158778
v -0.177094 0.032609 0.047452
v 0.091671 0.032609 -0.158778
v 0.129642 0.032609 0.129642
v -0.158778 0.032609 0.091671
v 0.047452 0.032609 -0.177094
v 0.000000 0.032609 -0.183341
v -0.047452 0.032609 -0.177094
v 0.158778 0.032609 0.091671
v -0.129642 0.032609 0.129642
v -0.091671 0.032609 -0.158778
v 0.177094 0.032609 0.047452
v -0.091671 0.032609 0.158778
v -0.129642 0.032609 -0.129642
v 0.183341 0.032609 0.000000
v -0.047452 0.032609 0.177094
v -0.158778 0.032609 -0.091671
v 0.177094 0.032609 -0.047452
v 0.000000 0.032609 0.183341
v -0.000000 0.023430 -0.180665
v 0.000000 0.000063 -0.149320
v -0.000000 0.014488 -0.176191
v -0.000000 0.006907 -0.168663
v -0.000000 0.001841 -0.159227
v -0.038647 0.000063 -0.144232
v -0.046760 0.023430 -0.174509
v -0.041211 0.001841 -0.153802
v -0.043653 0.006907 -0.162916
v -0.045602 0.014488 -0.170188
v -0.074660 0.000063 -0.129315
v -0.090333 0.023430 -0.156461
v -0.079614 0.001841 -0.137895
v -0.084332 0.006907 -0.146067
v -0.088096 0.014488 -0.152586
v -0.105585 0.000063 -0.105585
v -0.127750 0.023430 -0.127750
v -0.112591 0.001841 -0.112591
v -0.119263 0.006907 -0.119263
v -0.124586 0.014488 -0.124586
v -0.129315 0.000063 -0.074660
v -0.156461 0.023430 -0.090333
v -0.137895 0.001841 -0.079614
v -0.146067 0.006907 -0.084332
v -0.152586 0.014488 -0.088096
v -0.144232 0.000063 -0.038647
v -0.174509 0.023430 -0.046760
v -0.153802 0.001841 -0.041211
v -0.162916 0.006907 -0.043653
v -0.170188 0.014488 -0.045602
v -0.149320 0.000063 0.000000
v -0.180665 0.023430 -0.000000
v -0.159227 0.001841 0.000000
v -0.168663 0.006907 -0.000000
v -0.176191 0.014488 0.000000
v -0.144232 0.000063 0.038647
v -0.174509 0.023430 0.046760
v -0.153802 0.001841 0.041211
v -0.162916 0.006907 0.043653
v -0.170188 0.014488 0.045602
v -0.129315 0.000063 0.074660
v -0.156461 0.023430 0.090333
v -0.137895 0.001841 0.079614
v -0.146067 0.006907 0.084332
v -0.152586 0.014488 0.088096
v -0.105585 0.000063 0.105585
v -0.127750 0.023430 0.127750
v -0.112591 0.001841 0.112591
v -0.119263 0.006907 0.119263
v -0.124586 0.014488 0.124586
v -0.074660 0.000063 0.129315
v -0.090333 0.023430 0.156461
v -0.079614 0.001841 0.137895
v -0.084332 0.006907 0.146067
v -0.088096 0.014488 0.152586
v -0.038647 0.000063 0.144232
v -0.046760 0.023430 0.174509
v -0.041211 0.001841 0.153802
v -0.043653 0.006907 0.162916
v -0.045602 0.014488 0.170188
v 0.000000 0.000063 0.149320
v -0.000000 0.023430 0.180665
v -0.000000 0.001841 0.159227
v -0.000000 0.006907 0.168663
v -0.000000 0.014488 0.176191
v 0.038647 0.000063 0.144232
v 0.046760 0.023430 0.174509
v 0.041211 0.001841 0.153802
v 0.043653 0.006907 0.162916
v 0.045602 0.014488 0.170188
v 0.074660 0.000063 0.129315
v 0.090333 0.023430 0.156461
v 0.079614 0.001841 0.137895
v 0.084332 0.006907 0.146067
v 0.088096 0.014488 0.152586
v 0.105585 0.000063 0.105585
v 0.127750 0.023430 0.127750
v 0.112591 0.001841 0.112591
v 0.119263 0.006907 0.119263
v 0.124586 0.014488 0.124586
v 0.129315 0.000063 0.074660
v 0.156461 0.023430 0.090333
v 0.137895 0.001841 0.079614
v 0.146067 0.006907 0.084332
v 0.152586 0.014488 0.088096
v 0.144232 0.000063 0.038647
v 0.174509 0.023430 0.046760
v 0.153802 0.001841 0.041211
v 0.162916 0.006907 0.043653
v 0.170188 0.014488 0.045602
v 0.149320 0.000063 0.000000
v 0.180665 0.023430 -0.000000
v 0.159227 0.001841 0.000000
v 0.168663 0.006907 -0.000000
v 0.176191 0.014488 0.000000
v 0.144232 0.000063 -0.038647
v 0.174509 0.023430 -0.046760
v 0.153802 0.001841 -0.041211
v 0.162916 0.006907 -0.043653
v 0.170188 0.014488 -0.045602
v 0.129315 0.000063 -0.074660
v 0.156461 0.023430 -0.090333
v 0.137895 0.001841 -0.079614
v 0.146067 0.006907 -0.084332
v 0.152586 0.014488 -0.088096
v 0.105585 0.000063 -0.105585
v 0.127750 0.023430 -0.127750
v 0.112591 0.001841 -0.112591
v 0.119263 0.006907 -0.119263
v 0.124586 0.014488 -0.124586
v 0.074660 0.000063 -0.129315
v 0.090333 0.023430 -0.156461
v 0.079614 0.001841 -0.137895
v 0.084332 0.006907 -0.146067
v 0.088096 0.014488 -0.152586
v 0.038647 0.000063 -0.144232
v 0.046760 0.023430 -0.174509
v 0.041211 0.001841 -0.153802
v 0.043653 0.006907 -0.162916
v 0.045602 0.014488 -0.170188
v -0.172125 0.033335 -0.046121
v -0.178197 0.033335 0.000000
v 0.154323 0.033335 -0.089099
v 0.126005 0.033335 -0.126005
v 0.046121 0.033335 0.172125
v 0.089099 0.033335 0.154323
v -0.172125 0.033335 0.046121
v 0.089099 0.033335 -0.154323
v 0.126005 0.033335 0.126005
v -0.154323 0.033335 0.089099
v 0.046121 0.033335 -0.172125
v -0.000000 0.033335 -0.178197
v -0.046121 0.033335 -0.172125
v 0.154323 0.033335 0.089099
v -0.126005 0.033335 0.126005
v -0.089099 0.033335 -0.154323
v 0.172125 0.033335 0.046121
v -0.089099 0.033335 0.154323
v -0.126005 0.033335 -0.126005
v 0.178197 0.033335 0.000000
v -0.046121 0.033335 0.172125
v -0.154323 0.033335 -0.089099
v 0.172125 0.033335 -0.046121
v 0.000000 0.033335 0.178197
v -0.000000 0.025314 -0.175824
v -0.000000 0.005233 -0.148821
v -0.000000 0.017486 -0.171949
v -0.000000 0.011041 -0.165517
v -0.000000 0.006726 -0.157459
v -0.038518 0.005233 -0.143750
v -0.045507 0.025314 -0.169833
v -0.040753 0.006726 -0.152093
v -0.042839 0.011041 -0.159877
v -0.044504 0.017486 -0.166090
v -0.074411 0.005233 -0.128883
v -0.087912 0.025314 -0.152268
v -0.078729 0.006726 -0.136363
v -0.082759 0.011041 -0.143342
v -0.085975 0.017486 -0.148913
v -0.105233 0.005233 -0.105233
v -0.124327 0.025314 -0.124327
v -0.111340 0.006726 -0.111340
v -0.117038 0.011041 -0.117038
v -0.121587 0.017486 -0.121587
v -0.128883 0.005233 -0.074411
v -0.152268 0.025314 -0.087912
v -0.136363 0.006726 -0.078729
v -0.143342 0.011041 -0.082759
v -0.148913 0.017486 -0.085975
v -0.143750 0.005233 -0.038518
v -0.169833 0.025314 -0.045507
v -0.152093 0.006726 -0.040753
v -0.159877 0.011041 -0.042839
v -0.166090 0.017486 -0.044504
v -0.148821 0.005233 0.000000
v -0.175824 0.025314 -0.000000
v -0.157459 0.006726 -0.000000
v -0.165517 0.011041 -0.000000
v -0.171949 0.017486 -0.000000
v -0.143750 0.005233 0.038518
v -0.169833 0.025314 0.045507
v -0.152093 0.006726 0.040753
v -0.159877 0.011041 0.042839
v -0.166090 0.017486 0.044504
v -0.128883 0.005233 0.074411
v -0.152268 0.025314 0.087912
v -0.136363 0.006726 0.078729
v -0.143342 0.011041 0.082759
v -0.148913 0.017486 0.085975
v -0.105233 0.005233 0.105233
v -0.124327 0.025314 0.124327
v -0.111340 0.006726 0.111340
v -0.117038 0.011041 0.117038
v -0.121587 0.017486 0.121587
v -0.074411 0.005233 0.128883
v -0.087912 0.025314 0.152268
v -0.078729 0.006726 0.136363
v -0.082759 0.011041 0.143342
v -0.085975 0.017486 0.148913
v -0.038518 0.005233 0.143750
v -0.045507 0.025314 0.169833
v -0.040753 0.006726 0.152093
v -0.042839 0.011041 0.159877
v -0.044504 0.017486 0.166090
v -0.000000 0.005233 0.148821
v 0.000000 0.025314 0.175824
v -0.000000 0.006726 0.157459
v -0.000000 0.011041 0.165517
v -0.000000 0.017486 0.171949
v 0.038518 0.005233 0.143750
v 0.045507 0.025314 0.169833
v 0.040753 0.006726 0.152093
v 0.042839 0.011041 0.159877
v 0.044504 0.017486 0.166090
v 0.074411 0.005233 0.128883
v 0.087912 0.025314 0.152268
v 0.078729 0.006726 0.136363
v 0.082759 0.011041 0.143342
v 0.085975 0.017486 0.148913
v 0.105233 0.005233 0.105233
v 0.124327 0.025314 0.124327
v 0.111340 0.006726 0.111340
v 0.117038 0.011041 0.117038
v 0.121587 0.017486 0.121587
v 0.128883 0.005233 0.074411
v 0.152268 0.025314 0.087912
v 0.136363 0.006726 0.078729
v 0.143342 0.011041 0.082759
v 0.148913 0.017486 0.085975
v 0.143750 0.005233 0.038518
v 0.169833 0.025314 0.045507
v 0.152093 0.006726 0.040753
v 0.159877 0.011041 0.042839
v 0.166090 0.017486 0.044504
v 0.148821 0.005233 0.000000
v 0.175824 0.025314 -0.000000
v 0.157459 0.006726 0.000000
v 0.165517 0.011041 -0.000000
v 0.171949 0.017486 0.000000
v 0.143750 0.005233 -0.038518
v 0.169833 0.025314 -0.045507
v 0.152093 0.006726 -0.040753
v 0.159877 0.011041 -0.042839
v 0.166090 0.017486 -0.044504
v 0.128883 0.005233 -0.074411
v 0.152268 0.025314 -0.087912
v 0.136363 0.006726 -0.078729
v 0.143342 0.011041 -0.082759
v 0.148913 0.017486 -0.085975
v 0.105233 0.005233 -0.105233
v 0.124327 0.025314 -0.124327
v 0.111340 0.006726 -0.111340
v 0.117038 0.011041 -0.117038
v 0.121587 0.017486 -0.121587
v 0.074411 0.005233 -0.128883
v 0.087912 0.025314 -0.152268
v 0.078729 0.006726 -0.136363
v 0.082759 0.011041 -0.143342
v 0.085975 0.017486 -0.148913
v 0.038518 0.005233 -0.143750
v 0.045507 0.025314 -0.169833
v 0.040753 0.006726 -0.152093
v 0.042839 0.011041 -0.159877
v 0.044504 0.017486 -0.166090
v 0.000000 0.158707 -0.181176
v 0.000000 0.156561 -0.183341
v 0.000000 0.158078 -0.182707
v -0.047452 0.156561 -0.177094
v -0.046892 0.158707 -0.175002
v -0.047288 0.158078 -0.176481
v -0.091671 0.156561 -0.158778
v -0.090588 0.158707 -0.156903
v -0.091353 0.158078 -0.158229
v -0.129642 0.156561 -0.129642
v -0.128111 0.158707 -0.128111
v -0.129193 0.158078 -0.129193
v -0.158778 0.156561 -0.091671
v -0.156903 0.158707 -0.090588
v -0.158229 0.158078 -0.091353
v -0.177094 0.156561 -0.047452
v -0.175002 0.158707 -0.046892
v -0.176481 0.158078 -0.047288
v -0.183341 0.156561 0.000000
v -0.181176 0.158707 0.000000
v -0.182707 0.158078 0.000000
v -0.177094 0.156561 0.047452
v -0.175002 0.158707 0.046892
v -0.176481 0.158078 0.047288
v -0.158778 0.156561 0.091671
v -0.156903 0.158707 0.090588
v -0.158229 0.158078 0.091353
v -0.129642 0.156561 0.129642
v -0.128111 0.158707 0.128111
v -0.129193 0.158078 0.129193
v -0.091671 0.156561 0.158778
v -0.090588 0.158707 0.156903
v -0.091353 0.158078 0.158229
v -0.047452 0.156561 0.177094
v -0.046892 0.158707 0.175002
v -0.047288 0.158078 0.176481
v 0.000000 0.156561 0.183341
v 0.000000 0.158707 0.181176
v 0.000000 0.158078 0.182707
v 0.047452 0.156561 0.177094
v 0.046892 0.158707 0.175002
v 0.047288 0.158078 0.176481
v 0.091671 0.156561 0.158778
v 0.090588 0.158707 0.156903
v 0.091353 0.158078 0.158229
v 0.129642 0.156561 0.129642
v 0.128111 0.158707 0.128111
v 0.129193 0.158078 0.129193
v 0.158778 0.156561 0.091671
v 0.156903 0.158707 0.090588
v 0.158229 0.158078 0.091353
v 0.177094 0.156561 0.047452
v 0.175002 0.158707 0.046892
v 0.176481 0.158078 0.047288
v 0.183341 0.156561 0.000000
v 0.181176 0.158707 0.000000
v 0.182707 0.158078 0.000000
v 0.177094 0.156561 -0.047452
v 0.175002 0.158707 -0.046892
v 0.176481 0.158078 -0.047288
v 0.158778 0.156561 -0.091671
v 0.156903 0.158707 -0.090588
v 0.158229 0.158078 -0.091353
v 0.129642 0.156561 -0.129642
v 0.128111 0.158707 -0.128111
v 0.129193 0.158078 -0.129193
v 0.091671 0.156561 -0.158778
v 0.090588 0.158707 -0.156903
v 0.091353 0.158078 -0.158229
v 0.047452 0.156561 -0.177094
v 0.046892 0.158707 -0.175002
v 0.047288 0.158078 -0.176481
v 0.000000 0.156569 -0.176527
v 0.000000 0.158707 -0.178504
v 0.000000 0.158081 -0.177028
v -0.046200 0.158707 -0.172422
v -0.045689 0.156569 -0.170512
v -0.045818 0.158081 -0.170996
v -0.089252 0.158707 -0.154589
v -0.088264 0.156569 -0.152877
v -0.088514 0.158081 -0.153311
v -0.126222 0.158707 -0.126222
v -0.124823 0.156569 -0.124823
v -0.125178 0.158081 -0.125178
v -0.154589 0.158707 -0.089252
v -0.152877 0.156569 -0.088264
v -0.153311 0.158081 -0.088514
v -0.172422 0.158707 -0.046200
v -0.170512 0.156569 -0.045689
v -0.170996 0.158081 -0.045818
v -0.178504 0.158707 0.000000
v -0.176527 0.156569 0.000000
v -0.177028 0.158081 0.000000
v -0.172422 0.158707 0.046200
v -0.170512 0.156569 0.045689
v -0.170996 0.158081 0.045818
v -0.154589 0.158707 0.089252
v -0.152877 0.156569 0.088264
v -0.153311 0.158081 0.088514
v -0.126222 0.158707 0.126222
v -0.124823 0.156569 0.124823
v -0.125178 0.158081 0.125178
v -0.089252 0.158707 0.154589
v -0.088264 0.156569 0.152877
v -0.088514 0.158081 0.153311
v -0.046200 0.158707 0.172422
v -0.045689 0.156569 0.170512
v -0.045818 0.158081 0.170996
v 0.000000 0.158707 0.178504
v 0.000000 0.156569 0.176527
v 0.000000 0.158081 0.177028
v 0.046200 0.158707 0.172422
v 0.045689 0.156569 0.170512
v 0.045818 0.158081 0.170996
v 0.089252 0.158707 0.154589
v 0.088264 0.156569 0.152877
v 0.088514 0.158081 0.153311
v 0.126222 0.158707 0.126222
v 0.124823 0.156569 0.124823
v 0.125178 0.158081 0.125178
v 0.154589 0.158707 0.089252
v 0.152877 0.156569 0.088264
v 0.153311 0.158081 0.088514
v 0.172422 0.158707 0.046200
v 0.170512 0.156569 0.045689
v 0.170996 0.158081 0.045818
v 0.178504 0.158707 0.000000
v 0.176527 0.156569 0.000000
v 0.177028 0.158081 0.000000
v 0.172422 0.158707 -0.046200
v 0.170512 0.156569 -0.045689
v 0.170996 0.158081 -0.045818
v 0.154589 0.158707 -0.089252
v 0.152877 0.156569 -0.088264
v 0.153311 0.158081 -0.088514
v 0.126222 0.158707 -0.126222
v 0.124823 0.156569 -0.124823
v 0.125178 0.158081 -0.125178
v 0.089252 0.158707 -0.154589
v 0.088264 0.156569 -0.152877
v 0.088514 0.158081 -0.153311
v 0.046200 0.158707 -0.172422
v 0.045689 0.156569 -0.170512
v 0.045818 0.158081 -0.170996
vn -0.9935 -0.0001 0.1134
vn -0.9935 -0.0001 0.1135
vn -0.9906 -0.0001 0.1371
vn -0.9791 0.0080 0.2030
vn -0.9793 0.0076 0.2025
vn -0.9913 -0.0001 0.1313
vn -0.6147 0.0951 0.7830
vn -0.6423 0.0913 0.7610
vn -0.3199 0.8003 -0.5071
vn 0.3199 0.8003 -0.5071
vn 0.2540 0.5121 -0.8205
vn -0.2540 0.5121 -0.8205
vn -0.4042 -0.9058 0.1273
vn 0.4042 -0.9058 0.1273
vn -0.0000 -0.9596 0.2813
vn -0.3448 -0.9063 -0.2444
vn 0.3448 -0.9063 -0.2444
vn -0.2578 -0.6893 -0.6770
vn 0.2579 -0.6893 -0.6770
vn 0.6147 0.0951 0.7830
vn -0.5899 0.0983 0.8015
vn 0.5899 0.0983 0.8015
vn -0.0000 1.0000 -0.0000
vn 0.3639 0.9022 -0.2317
vn -0.3639 0.9022 -0.2317
vn -0.2212 -0.1022 -0.9699
vn 0.2212 -0.1022 -0.9699
vn 0.6423 0.0913 0.7610
vn 0.9358 0.3469 -0.0631
vn 0.9224 0.3714 -0.1061
vn 0.3963 0.9170 -0.0466
vn 0.4567 0.8891 -0.0320
vn 0.9810 -0.1306 -0.1438
vn 0.9833 -0.1300 -0.1275
vn 0.5740 -0.6682 -0.4732
vn 0.6380 -0.6848 -0.3520
vn 0.8256 0.3209 -0.4641
vn 0.7110 0.1746 -0.6812
vn 0.8429 -0.4142 -0.3435
vn 0.9057 -0.4028 -0.1324
vn 0.3853 0.9195 -0.0774
vn 0.9107 0.3725 -0.1784
vn 0.7074 -0.3175 -0.6314
vn 0.8757 0.3707 -0.3095
vn 0.3742 0.9224 -0.0954
vn 0.9024 0.3653 -0.2284
vn 0.5485 -0.8090 -0.2115
vn 0.9550 -0.2135 -0.2060
vn 0.4999 -0.8642 0.0570
vn 0.9492 -0.2482 -0.1934
vn 0.0671 -0.8196 -0.5690
vn 0.0315 -0.9187 -0.3936
vn 0.9978 -0.0000 -0.0657
vn 0.9935 -0.0000 -0.1141
vn -0.2328 -0.0000 0.9725
vn 0.9463 -0.0329 -0.3216
vn 0.7507 -0.0784 -0.6560
vn 0.9586 -0.0357 -0.2824
vn 0.9808 -0.0098 -0.1946
vn -0.0000 -0.9924 -0.1229
vn 0.9688 -0.0293 -0.2462
vn -0.9798 0.0078 0.1998
vn -0.9936 -0.0001 0.1134
vn 0.9935 -0.0001 0.1134
vn 0.9906 -0.0001 0.1371
vn 0.9935 -0.0001 0.1135
vn 0.9913 -0.0001 0.1313
vn 0.9793 0.0076 0.2025
vn 0.9791 0.0080 0.2030
vn -0.9358 0.3469 -0.0631
vn -0.4567 0.8891 -0.0320
vn -0.3963 0.9170 -0.0466
vn -0.9224 0.3714 -0.1061
vn -0.9810 -0.1306 -0.1438
vn -0.6380 -0.6848 -0.3520
vn -0.5740 -0.6682 -0.4732
vn -0.9833 -0.1300 -0.1275
vn -0.7110 0.1746 -0.6812
vn -0.8256 0.3209 -0.4641
vn -0.9057 -0.4028 -0.1324
vn -0.8429 -0.4142 -0.3435
vn -0.3853 0.9195 -0.0774
vn -0.9107 0.3725 -0.1784
vn -0.7074 -0.3175 -0.6314
vn -0.8757 0.3707 -0.3095
vn -0.9024 0.3653 -0.2284
vn -0.3742 0.9224 -0.0954
vn -0.9550 -0.2135 -0.2060
vn -0.5485 -0.8090 -0.2115
vn -0.9492 -0.2482 -0.1934
vn -0.4999 -0.8642 0.0570
vn -0.0315 -0.9187 -0.3936
vn -0.0671 -0.8196 -0.5690
vn -0.9978 -0.0000 -0.0657
vn -0.9935 -0.0000 -0.1141
vn 0.2328 -0.0000 0.9725
vn -0.9463 -0.0329 -0.3216
vn -0.7507 -0.0784 -0.6560
vn -0.9586 -0.0357 -0.2824
vn -0.9808 -0.0098 -0.1946
vn -0.9688 -0.0293 -0.2462
vn 0.9798 0.0078 0.1998
vn 0.9936 -0.0001 0.1134
vn -0.9935 -0.0001 -0.1134
vn -0.9906 -0.0001 -0.1371
vn -0.9935 -0.0001 -0.1135
vn -0.9913 -0.0001 -0.1313
vn -0.9793 0.0076 -0.2025
vn -0.9791 0.0080 -0.2030
vn -0.6423 0.0913 -0.7610
vn -0.6147 0.0951 -0.7830
vn -0.3199 0.8003 0.5071
vn -0.2540 0.5121 0.8205
vn 0.2540 0.5121 0.8205
vn 0.3199 0.8003 0.5071
vn -0.4042 -0.9058 -0.1273
vn -0.0000 -0.9596 -0.2813
vn 0.4042 -0.9058 -0.1273
vn -0.3448 -0.9063 0.2444
vn 0.3448 -0.9063 0.2444
vn -0.2579 -0.6893 0.6770
vn 0.2578 -0.6893 0.6770
vn 0.6147 0.0951 -0.7830
vn 0.5899 0.0983 -0.8015
vn -0.5899 0.0983 -0.8015
vn -0.3639 0.9022 0.2317
vn 0.3639 0.9022 0.2317
vn -0.2212 -0.1022 0.9699
vn 0.2212 -0.1022 0.9699
vn 0.6423 0.0913 -0.7610
vn 0.9358 0.3469 0.0631
vn 0.4567 0.8891 0.0320
vn 0.3963 0.9170 0.0466
vn 0.9224 0.3714 0.1061
vn 0.9810 -0.1306 0.1438
vn 0.6380 -0.6848 0.3520
vn 0.5740 -0.6682 0.4732
vn 0.9833 -0.1300 0.1275
vn 0.7110 0.1746 0.6812
vn 0.8256 0.3209 0.4641
vn 0.9057 -0.4028 0.1324
vn 0.8429 -0.4142 0.3435
vn 0.3853 0.9195 0.0774
vn 0.9107 0.3725 0.1784
vn 0.7074 -0.3175 0.6314
vn 0.8757 0.3707 0.3095
vn 0.9024 0.3653 0.2284
vn 0.3742 0.9224 0.0954
vn 0.9550 -0.2135 0.2060
vn 0.5485 -0.8090 0.2115
vn 0.9492 -0.2482 0.1934
vn 0.4999 -0.8642 -0.0570
vn 0.0315 -0.9187 0.3936
vn 0.0671 -0.8196 0.5690
vn 0.9978 -0.0000 0.0657
vn 0.9935 -0.0000 0.1141
vn -0.2328 -0.0000 -0.9725
vn 0.9463 -0.0329 0.3216
vn 0.7507 -0.0784 0.6560
vn 0.9586 -0.0357 0.2824
vn 0.9808 -0.0098 0.1946
vn -0.0000 -0.9924 0.1229
vn 0.9688 -0.0293 0.2462
vn -0.9798 0.0078 -0.1998
vn -0.9936 -0.0001 -0.1134
vn 0.9935 -0.0001 -0.1134
vn 0.9935 -0.0001 -0.1135
vn 0.9906 -0.0001 -0.1371
vn 0.9791 0.0080 -0.2030
vn 0.9793 0.0076 -0.2025
vn 0.9913 -0.0001 -0.1313
vn -0.9358 0.3469 0.0631
vn -0.9224 0.3714 0.1061
vn -0.3963 0.9170 0.0466
vn -0.4567 0.8891 0.0320
vn -0.9810 -0.1306 0.1438
vn -0.9833 -0.1300 0.1275
vn -0.5740 -0.6682 0.4732
vn -0.6380 -0.6848 0.3520
vn -0.8256 0.3209 0.4641
vn -0.7110 0.1746 0.6812
vn -0.8429 -0.4142 0.3435
vn -0.9057 -0.4028 0.1324
vn -0.3853 0.9195 0.0774
vn -0.9107 0.3725 0.1784
vn -0.7074 -0.3175 0.6314
vn -0.8757 0.3707 0.3095
vn -0.3742 0.9224 0.0954
vn -0.9024 0.3653 0.2284
vn -0.5485 -0.8090 0.2115
vn -0.9550 -0.2135 0.2060
vn -0.4999 -0.8642 -0.0570
vn -0.9492 -0.2482 0.1934
vn -0.0671 -0.8196 0.5690
vn -0.0315 -0.9187 0.3936
vn -0.9978 -0.0000 0.0657
vn -0.9935 -0.0000 0.1141
vn 0.2328 -0.0000 -0.9725
vn -0.9463 -0.0329 0.3216
vn -0.7507 -0.0784 0.6560
vn -0.9586 -0.0357 0.2824
vn -0.9808 -0.0098 0.1946
vn -0.9688 -0.0293 0.2462
vn 0.9798 0.0078 -0.1998
vn 0.9936 -0.0001 -0.1134
vn -0.2412 -0.3626 -0.9002
vn -0.0000 -0.3626 -0.9319
vn -0.0000 -0.5772 -0.8166
vn -0.2113 -0.5772 -0.7888
vn -0.0000 -0.7958 -0.6056
vn -0.1567 -0.7958 -0.5850
vn -0.0000 -0.9403 -0.3405
vn -0.0881 -0.9403 -0.3289
vn -0.0000 -0.9954 -0.0960
vn -0.0249 -0.9954 -0.0928
vn -0.4660 -0.3626 -0.8071
vn -0.4083 -0.5772 -0.7072
vn -0.3028 -0.7958 -0.5245
vn -0.1702 -0.9403 -0.2949
vn -0.0480 -0.9954 -0.0832
vn -0.6590 -0.3626 -0.6590
vn -0.5774 -0.5772 -0.5774
vn -0.4282 -0.7958 -0.4282
vn -0.2408 -0.9403 -0.2408
vn -0.0679 -0.9954 -0.0679
vn -0.8071 -0.3626 -0.4660
vn -0.7072 -0.5772 -0.4083
vn -0.5245 -0.7958 -0.3028
vn -0.2949 -0.9403 -0.1702
vn -0.0832 -0.9954 -0.0480
vn -0.9002 -0.3626 -0.2412
vn -0.7888 -0.5772 -0.2113
vn -0.5850 -0.7958 -0.1567
vn -0.3289 -0.9403 -0.0881
vn -0.0928 -0.9954 -0.0249
vn -0.9319 -0.3626 -0.0000
vn -0.8166 -0.5772 -0.0000
vn -0.6056 -0.7958 -0.0000
vn -0.3405 -0.9403 -0.0000
vn -0.0960 -0.9954 -0.0000
vn -0.9002 -0.3626 0.2412
vn -0.7888 -0.5772 0.2113
vn -0.5850 -0.7958 0.1567
vn -0.3289 -0.9403 0.0881
vn -0.0928 -0.9954 0.0249
vn -0.8071 -0.3626 0.4660
vn -0.7072 -0.5772 0.4083
vn -0.5245 -0.7958 0.3028
vn -0.2949 -0.9403 0.1702
vn -0.0832 -0.9954 0.0480
vn -0.6590 -0.3626 0.6590
vn -0.5774 -0.5772 0.5774
vn -0.4282 -0.7958 0.4282
vn -0.2408 -0.9403 0.2408
vn -0.0679 -0.9954 0.0679
vn -0.4660 -0.3626 0.8071
vn -0.4083 -0.5772 0.7072
vn -0.3028 -0.7958 0.5245
vn -0.1702 -0.9403 0.2949
vn -0.0480 -0.9954 0.0832
vn -0.2412 -0.3626 0.9002
vn -0.2113 -0.5772 0.7888
vn -0.1567 -0.7958 0.5850
vn -0.0881 -0.9403 0.3289
vn -0.0249 -0.9954 0.0928
vn -0.0000 -0.3626 0.9319
vn -0.0000 -0.5772 0.8166
vn -0.0000 -0.7958 0.6056
vn -0.0000 -0.9403 0.3405
vn -0.0000 -0.9954 0.0960
vn 0.2412 -0.3626 0.9002
vn 0.2113 -0.5772 0.7888
vn 0.1567 -0.7958 0.5850
vn 0.0881 -0.9403 0.3289
vn 0.0249 -0.9954 0.0928
vn 0.4660 -0.3626 0.8071
vn 0.4083 -0.5772 0.7072
vn 0.3028 -0.7958 0.5245
vn 0.1702 -0.9403 0.2949
vn 0.0480 -0.9954 0.0832
vn 0.6590 -0.3626 0.6590
vn 0.5774 -0.5772 0.5774
vn 0.4282 -0.7958 0.4282
vn 0.2408 -0.9403 0.2408
vn 0.0679 -0.9954 0.0679
vn 0.8071 -0.3626 0.4660
vn 0.7072 -0.5772 0.4083
vn 0.5245 -0.7958 0.3028
vn 0.2949 -0.9403 0.1702
vn 0.0832 -0.9954 0.0480
vn 0.9002 -0.3626 0.2412
vn 0.7888 -0.5772 0.2113
vn 0.5850 -0.7958 0.1567
vn 0.3289 -0.9403 0.0881
vn 0.0928 -0.9954 0.0249
vn 0.9319 -0.3626 -0.0000
vn 0.8166 -0.5772 -0.0000
vn 0.6056 -0.7958 -0.0000
vn 0.3405 -0.9403 -0.0000
vn 0.0960 -0.9954 -0.0000
vn 0.9002 -0.3626 -0.2412
vn 0.7888 -0.5772 -0.2113
vn 0.5850 -0.7958 -0.1567
vn 0.3289 -0.9403 -0.0881
vn 0.0928 -0.9954 -0.0249
vn 0.8071 -0.3626 -0.4660
vn 0.7072 -0.5772 -0.4083
vn 0.5245 -0.7958 -0.3028
vn 0.2949 -0.9403 -0.1702
vn 0.0832 -0.9954 -0.0480
vn 0.6590 -0.3626 -0.6590
vn 0.5774 -0.5772 -0.5774
vn 0.4282 -0.7958 -0.4282
vn 0.2408 -0.9403 -0.2408
vn 0.0679 -0.9954 -0.0679
vn 0.4660 -0.3626 -0.8071
vn 0.4083 -0.5772 -0.7072
vn 0.3028 -0.7958 -0.5245
vn 0.1702 -0.9403 -0.2949
vn 0.0480 -0.9954 -0.0832
vn 0.2412 -0.3626 -0.9002
vn 0.2113 -0.5772 -0.7888
vn 0.1567 -0.7958 -0.5850
vn 0.0881 -0.9403 -0.3289
vn 0.0249 -0.9954 -0.0928
vn 0.2563 -0.1397 -0.9565
vn -0.0000 -0.1397 -0.9902
vn -0.2563 -0.1397 -0.9565
vn -0.4951 -0.1397 -0.8575
vn -0.7002 -0.1397 -0.7002
vn -0.8575 -0.1397 -0.4951
vn -0.9565 -0.1397 -0.2563
vn -0.9902 -0.1397 -0.0000
vn -0.9565 -0.1397 0.2563
vn -0.8575 -0.1397 0.4951
vn -0.7002 -0.1397 0.7002
vn -0.4951 -0.1397 0.8575
vn -0.2563 -0.1397 0.9565
vn -0.0000 -0.1397 0.9902
vn 0.2563 -0.1397 0.9565
vn 0.4951 -0.1397 0.8575
vn 0.7002 -0.1397 0.7002
vn 0.8575 -0.1397 0.4951
vn 0.9565 -0.1397 0.2563
vn 0.9902 -0.1397 -0.0000
vn 0.9565 -0.1397 -0.2563
vn 0.8575 -0.1397 -0.4951
vn 0.7002 -0.1397 -0.7002
vn 0.4951 -0.1397 -0.8575
vn 0.2412 0.3626 0.9002
vn 0.2115 0.5764 0.7893
vn -0.0000 0.5764 0.8172
vn -0.0000 0.3626 0.9319
vn 0.1564 0.7968 0.5836
vn -0.0000 0.7968 0.6042
vn 0.0872 0.9415 0.3256
vn -0.0000 0.9415 0.3371
vn 0.0239 0.9957 0.0893
vn -0.0000 0.9957 0.0925
vn 0.4660 0.3626 0.8071
vn 0.4086 0.5764 0.7077
vn 0.3021 0.7968 0.5232
vn 0.1685 0.9415 0.2919
vn 0.0463 0.9957 0.0801
vn 0.6590 0.3626 0.6590
vn 0.5778 0.5764 0.5778
vn 0.4272 0.7968 0.4272
vn 0.2384 0.9415 0.2384
vn 0.0654 0.9957 0.0654
vn 0.8071 0.3626 0.4660
vn 0.7077 0.5764 0.4086
vn 0.5232 0.7968 0.3021
vn 0.2919 0.9415 0.1685
vn 0.0801 0.9957 0.0463
vn 0.9002 0.3626 0.2412
vn 0.7893 0.5764 0.2115
vn 0.5836 0.7968 0.1564
vn 0.3256 0.9415 0.0872
vn 0.0894 0.9957 0.0239
vn 0.9319 0.3626 -0.0000
vn 0.8172 0.5764 -0.0000
vn 0.6042 0.7968 -0.0000
vn 0.3371 0.9415 -0.0000
vn 0.0925 0.9957 -0.0000
vn 0.9002 0.3626 -0.2412
vn 0.7893 0.5764 -0.2115
vn 0.5836 0.7968 -0.1564
vn 0.3256 0.9415 -0.0872
vn 0.0893 0.9957 -0.0239
vn 0.8071 0.3626 -0.4660
vn 0.7077 0.5764 -0.4086
vn 0.5232 0.7968 -0.3021
vn 0.2919 0.9415 -0.1685
vn 0.0801 0.9957 -0.0463
vn 0.6590 0.3626 -0.6590
vn 0.5778 0.5764 -0.5778
vn 0.4272 0.7968 -0.4272
vn 0.2384 0.9415 -0.2384
vn 0.0654 0.9957 -0.0654
vn 0.4660 0.3626 -0.8071
vn 0.4086 0.5764 -0.7077
vn 0.3021 0.7968 -0.5232
vn 0.1685 0.9415 -0.2919
vn 0.0463 0.9957 -0.0801
vn 0.2412 0.3626 -0.9002
vn 0.2115 0.5764 -0.7893
vn 0.1564 0.7968 -0.5836
vn 0.0872 0.9415 -0.3256
vn 0.0239 0.9957 -0.0893
vn -0.0000 0.3626 -0.9319
vn -0.0000 0.5764 -0.8172
vn -0.0000 0.7968 -0.6042
vn -0.0000 0.9415 -0.3371
vn -0.0000 0.9957 -0.0925
vn -0.2412 0.3626 -0.9002
vn -0.2115 0.5764 -0.7893
vn -0.1564 0.7968 -0.5836
vn -0.0872 0.9415 -0.3256
vn -0.0239 0.9957 -0.0893
vn -0.4660 0.3626 -0.8071
vn -0.4086 0.5764 -0.7077
vn -0.3021 0.7968 -0.5232
vn -0.1685 0.9415 -0.2919
vn -0.0463 0.9957 -0.0801
vn -0.6590 0.3626 -0.6590
vn -0.5778 0.5764 -0.5778
vn -0.4272 0.7968 -0.4272
vn -0.2384 0.9415 -0.2384
vn -0.0654 0.9957 -0.0654
vn -0.8071 0.3626 -0.4660
vn -0.7077 0.5764 -0.4086
vn -0.5232 0.7968 -0.3021
vn -0.2919 0.9415 -0.1685
vn -0.0801 0.9957 -0.0463
vn -0.9002 0.3626 -0.2412
vn -0.7893 0.5764 -0.2115
vn -0.5836 0.7968 -0.1564
vn -0.3256 0.9415 -0.0872
vn -0.0894 0.9957 -0.0239
vn -0.9319 0.3626 -0.0000
vn -0.8172 0.5764 -0.0000
vn -0.6042 0.7968 -0.0000
vn -0.3371 0.9415 -0.0000
vn -0.0925 0.9957 -0.0000
vn -0.9002 0.3626 0.2412
vn -0.7893 0.5764 0.2115
vn -0.5836 0.7968 0.1564
vn -0.3256 0.9415 0.0872
vn -0.0893 0.9957 0.0239
vn -0.8071 0.3626 0.4660
vn -0.7077 0.5764 0.4086
vn -0.5232 0.7968 0.3021
vn -0.2919 0.9415 0.1685
vn -0.0801 0.9957 0.0463
vn -0.6590 0.3626 0.6590
vn -0.5778 0.5764 0.5778
vn -0.4272 0.7968 0.4272
vn -0.2384 0.9415 0.2384
vn -0.0654 0.9957 0.0654
vn -0.4660 0.3626 0.8071
vn -0.4086 0.5764 0.7077
vn -0.3021 0.7968 0.5232
vn -0.1685 0.9415 0.2919
vn -0.0463 0.9957 0.0801
vn -0.2412 0.3626 0.9002
vn -0.2115 0.5764 0.7893
vn -0.1564 0.7968 0.5836
vn -0.0872 0.9415 0.3256
vn -0.0239 0.9957 0.0893
vn -0.2565 0.1350 0.9571
vn -0.0000 0.1350 0.9909
vn 0.2565 0.1350 0.9571
vn 0.4954 0.1350 0.8581
vn 0.7006 0.1350 0.7006
vn 0.8581 0.1350 0.4954
vn 0.9571 0.1350 0.2565
vn 0.9909 0.1350 -0.0000
vn 0.9571 0.1350 -0.2565
vn 0.8581 0.1350 -0.4954
vn 0.7006 0.1350 -0.7006
vn 0.4954 0.1350 -0.8581
vn 0.2565 0.1350 -0.9571
vn -0.0000 0.1350 -0.9909
vn -0.2565 0.1350 -0.9571
vn -0.4954 0.1350 -0.8581
vn -0.7006 0.1350 -0.7006
vn -0.8581 0.1350 -0.4954
vn -0.9571 0.1350 -0.2565
vn -0.9909 0.1350 -0.0000
vn -0.9571 0.1350 0.2565
vn -0.8581 0.1350 0.4954
vn -0.7006 0.1350 0.7006
vn -0.4954 0.1350 0.8581
vn -0.0541 0.9779 -0.2019
vn -0.0000 0.9779 -0.2090
vn -0.0000 0.6937 -0.7203
vn -0.1864 0.6937 -0.6957
vn -0.0000 0.1935 -0.9811
vn -0.2539 0.1935 -0.9477
vn -0.1045 0.9779 -0.1810
vn -0.3601 0.6937 -0.6238
vn -0.4905 0.1935 -0.8497
vn -0.1478 0.9779 -0.1478
vn -0.5093 0.6937 -0.5093
vn -0.6937 0.1935 -0.6937
vn -0.1810 0.9779 -0.1045
vn -0.6238 0.6937 -0.3601
vn -0.8497 0.1935 -0.4905
vn -0.2019 0.9779 -0.0541
vn -0.6957 0.6937 -0.1864
vn -0.9477 0.1935 -0.2539
vn -0.2090 0.9779 -0.0000
vn -0.7203 0.6937 -0.0000
vn -0.9811 0.1935 -0.0000
vn -0.2019 0.9779 0.0541
vn -0.6957 0.6937 0.1864
vn -0.9477 0.1935 0.2539
vn -0.1810 0.9779 0.1045
vn -0.6238 0.6937 0.3601
vn -0.8497 0.1935 0.4905
vn -0.1478 0.9779 0.1478
vn -0.5093 0.6937 0.5093
vn -0.6937 0.1935 0.6937
vn -0.1045 0.9779 0.1810
vn -0.3601 0.6937 0.6238
vn -0.4905 0.1935 0.8497
vn -0.0541 0.9779 0.2019
vn -0.1864 0.6937 0.6957
vn -0.2539 0.1935 0.9477
vn -0.0000 0.9779 0.2090
vn -0.0000 0.6937 0.7203
vn -0.0000 0.1935 0.9811
vn 0.0541 0.9779 0.2019
vn 0.1864 0.6937 0.6957
vn 0.2539 0.1935 0.9477
vn 0.1045 0.9779 0.1810
vn 0.3601 0.6937 0.6238
vn 0.4905 0.1935 0.8497
vn 0.1478 0.9779 0.1478
vn 0.5093 0.6937 0.5093
vn 0.6937 0.1935 0.6937
vn 0.1810 0.9779 0.1045
vn 0.6238 0.6937 0.3601
vn 0.8497 0.1935 0.4905
vn 0.2019 0.9779 0.0541
vn 0.6957 0.6937 0.1864
vn 0.9477 0.1935 0.2539
vn 0.2090 0.9779 -0.0000
vn 0.7203 0.6937 -0.0000
vn 0.9811 0.1935 -0.0000
vn 0.2019 0.9779 -0.0541
vn 0.6957 0.6937 -0.1864
vn 0.9477 0.1935 -0.2539
vn 0.1810 0.9779 -0.1045
vn 0.6238 0.6937 -0.3601
vn 0.8497 0.1935 -0.4905
vn 0.1478 0.9779 -0.1478
vn 0.5093 0.6937 -0.5093
vn 0.6937 0.1935 -0.6937
vn 0.1045 0.9779 -0.1810
vn 0.3601 0.6937 -0.6238
vn 0.4905 0.1935 -0.8497
vn 0.0541 0.9779 -0.2019
vn 0.1864 0.6937 -0.6957
vn 0.2539 0.1935 -0.9477
vn 0.2557 0.1548 0.9543
vn -0.0000 0.1548 0.9879
vn -0.0000 0.6953 0.7187
vn 0.1860 0.6953 0.6942
vn -0.0000 0.9831 0.1833
vn 0.0474 0.9831 0.1770
vn 0.4940 0.1548 0.8556
vn 0.3593 0.6953 0.6224
vn 0.0916 0.9831 0.1587
vn 0.6986 0.1548 0.6986
vn 0.5082 0.6953 0.5082
vn 0.1296 0.9831 0.1296
vn 0.8556 0.1548 0.4940
vn 0.6224 0.6953 0.3593
vn 0.1587 0.9831 0.0916
vn 0.9543 0.1548 0.2557
vn 0.6942 0.6953 0.1860
vn 0.1770 0.9831 0.0474
vn 0.9879 0.1548 -0.0000
vn 0.7187 0.6953 -0.0000
vn 0.1833 0.9831 -0.0000
vn 0.9543 0.1548 -0.2557
vn 0.6942 0.6953 -0.1860
vn 0.1770 0.9831 -0.0474
vn 0.8556 0.1548 -0.4940
vn 0.6224 0.6953 -0.3593
vn 0.1587 0.9831 -0.0916
vn 0.6986 0.1548 -0.6986
vn 0.5082 0.6953 -0.5082
vn 0.1296 0.9831 -0.1296
vn 0.4940 0.1548 -0.8556
vn 0.3593 0.6953 -0.6224
vn 0.0916 0.9831 -0.1587
vn 0.2557 0.1548 -0.9543
vn 0.1860 0.6953 -0.6942
vn 0.0474 0.9831 -0.1770
vn -0.0000 0.1548 -0.9879
vn -0.0000 0.6953 -0.7187
vn -0.0000 0.9831 -0.1833
vn -0.2557 0.1548 -0.9543
vn -0.1860 0.6953 -0.6942
vn -0.0474 0.9831 -0.1770
vn -0.4940 0.1548 -0.8556
vn -0.3593 0.6953 -0.6224
vn -0.0916 0.9831 -0.1587
vn -0.6986 0.1548 -0.6986
vn -0.5082 0.6953 -0.5082
vn -0.1296 0.9831 -0.1296
vn -0.8556 0.1548 -0.4940
vn -0.6224 0.6953 -0.3593
vn -0.1587 0.9831 -0.0916
vn -0.9543 0.1548 -0.2557
vn -0.6942 0.6953 -0.1860
vn -0.1770 0.9831 -0.0474
vn -0.9879 0.1548 -0.0000
vn -0.7187 0.6953 -0.0000
vn -0.1833 0.9831 -0.0000
vn -0.9543 0.1548 0.2557
vn -0.6942 0.6953 0.1860
vn -0.1770 0.9831 0.0474
vn -0.8556 0.1548 0.4940
vn -0.6224 0.6953 0.3593
vn -0.1587 0.9831 0.0916
vn -0.6986 0.1548 0.6986
vn -0.5082 0.6953 0.5082
vn -0.1296 0.9831 0.1296
vn -0.4940 0.1548 0.8556
vn -0.3593 0.6953 0.6224
vn -0.0916 0.9831 0.1587
vn -0.2557 0.1548 0.9543
vn -0.1860 0.6953 0.6942
vn -0.0474 0.9831 0.1770
vt 0.208181 0.316462
vt 0.190510 0.312649
vt 0.195962 0.289875
vt 0.213515 0.293015
vt 0.214234 0.261277
vt 0.228419 0.262261
vt 0.231046 0.296836
vt 0.212913 0.225471
vt 0.226643 0.225949
vt 0.112587 0.273399
vt 0.115083 0.137468
vt 0.126844 0.140835
vt 0.124414 0.270255
vt 0.169425 0.280739
vt 0.172307 0.132063
vt 0.190510 0.149507
vt 0.188248 0.264271
vt 0.156109 0.276483
vt 0.158773 0.135642
vt 0.145633 0.272967
vt 0.148098 0.138679
vt 0.212931 0.111026
vt 0.199182 0.225003
vt 0.199241 0.111494
vt 0.082763 0.263434
vt 0.084709 0.146985
vt 0.103584 0.132700
vt 0.101009 0.277990
vt 0.134270 0.271218
vt 0.136727 0.140098
vt 0.226619 0.110546
vt 0.024823 0.048455
vt 0.047344 0.068927
vt 0.042453 0.074626
vt 0.021062 0.054922
vt 0.055885 0.059711
vt 0.039437 0.032360
vt 0.057556 0.012963
vt 0.068926 0.045984
vt 0.118844 0.131697
vt 0.130428 0.135839
vt 0.131284 0.105915
vt 0.143892 0.118728
vt 0.136553 0.121129
vt 0.125116 0.110410
vt 0.064912 0.096970
vt 0.069435 0.090765
vt 0.138385 0.133583
vt 0.107909 0.126313
vt 0.091368 0.123169
vt 0.095577 0.115476
vt 0.086999 0.073576
vt 0.078126 0.081516
vt 0.112684 0.097010
vt 0.103799 0.104614
vt 0.078322 0.011088
vt 0.088991 0.038330
vt 0.032166 0.040383
vt 0.051617 0.064335
vt 0.264143 0.046880
vt 0.269336 0.049125
vt 0.268893 0.060289
vt 0.263450 0.065401
vt 0.127555 0.126224
vt 0.134267 0.134639
vt 0.116555 0.118141
vt 0.029606 0.091945
vt 0.012093 0.074522
vt 0.073803 0.086133
vt 0.053135 0.115631
vt 0.105828 0.063299
vt 0.099653 0.109942
vt 0.130033 0.083488
vt 0.242672 0.046747
vt 0.242166 0.064897
vt 0.242166 0.011414
vt 0.263693 0.011087
vt 0.269297 0.037785
vt 0.200043 0.260416
vt 0.242166 0.325404
vt 0.208183 0.020036
vt 0.213522 0.043481
vt 0.195969 0.046624
vt 0.190513 0.023852
vt 0.231053 0.039658
vt 0.228428 0.074237
vt 0.214244 0.075218
vt 0.026317 0.366392
vt 0.022193 0.360144
vt 0.042398 0.339162
vt 0.047596 0.344592
vt 0.056624 0.353344
vt 0.070402 0.366360
vt 0.061050 0.399992
vt 0.041818 0.381654
vt 0.127967 0.275260
vt 0.116352 0.279166
vt 0.129413 0.304347
vt 0.123087 0.300093
vt 0.134218 0.289614
vt 0.141595 0.291975
vt 0.063644 0.315455
vt 0.068461 0.321476
vt 0.135936 0.277639
vt 0.105481 0.284430
vt 0.093528 0.295547
vt 0.089113 0.287857
vt 0.077591 0.330360
vt 0.086838 0.337894
vt 0.102100 0.306252
vt 0.111269 0.313599
vt 0.090851 0.372862
vt 0.081876 0.400626
vt 0.034103 0.374043
vt 0.052111 0.348950
vt 0.264143 0.083922
vt 0.263450 0.065401
vt 0.268893 0.070512
vt 0.269336 0.081676
vt 0.125120 0.284633
vt 0.131809 0.276519
vt 0.114298 0.292572
vt 0.012093 0.341083
vt 0.028584 0.322575
vt 0.073048 0.325926
vt 0.050971 0.297261
vt 0.106166 0.347260
vt 0.097773 0.301012
vt 0.129239 0.326331
vt 0.242671 0.084055
vt 0.242166 0.065904
vt 0.242166 0.119388
vt 0.263693 0.119714
vt 0.269296 0.093017
vt 0.200055 0.076082
vt 0.242166 0.011087
vt 0.211614 0.735192
vt 0.216948 0.711746
vt 0.199395 0.708606
vt 0.193942 0.731379
vt 0.234479 0.715566
vt 0.231851 0.680992
vt 0.217667 0.680007
vt 0.230075 0.644680
vt 0.216346 0.644202
vt 0.116019 0.692129
vt 0.127847 0.688986
vt 0.130276 0.559565
vt 0.118515 0.556198
vt 0.172858 0.699469
vt 0.191680 0.683001
vt 0.193942 0.568237
vt 0.175739 0.550793
vt 0.159541 0.695214
vt 0.162205 0.554372
vt 0.149065 0.691697
vt 0.151531 0.557409
vt 0.216363 0.529757
vt 0.202673 0.530225
vt 0.202614 0.643734
vt 0.086195 0.682165
vt 0.104441 0.696721
vt 0.107017 0.551430
vt 0.088141 0.565715
vt 0.137702 0.689949
vt 0.140159 0.558828
vt 0.230051 0.529276
vt 0.028255 0.467186
vt 0.024494 0.473653
vt 0.045885 0.493356
vt 0.050777 0.487657
vt 0.059318 0.478441
vt 0.072358 0.464714
vt 0.060988 0.431693
vt 0.042869 0.451091
vt 0.133860 0.554569
vt 0.122276 0.550427
vt 0.134716 0.524646
vt 0.128548 0.529140
vt 0.139985 0.539860
vt 0.147324 0.537458
vt 0.068344 0.515701
vt 0.072867 0.509495
vt 0.141817 0.552314
vt 0.111341 0.545044
vt 0.099009 0.534206
vt 0.094800 0.541900
vt 0.081558 0.500247
vt 0.090431 0.492306
vt 0.107231 0.523345
vt 0.116116 0.515741
vt 0.092424 0.457060
vt 0.081754 0.429818
vt 0.035598 0.459114
vt 0.055049 0.483066
vt 0.267575 0.465610
vt 0.266883 0.484131
vt 0.272325 0.479020
vt 0.272768 0.467856
vt 0.130987 0.544954
vt 0.137699 0.553370
vt 0.119987 0.536871
vt 0.015526 0.493253
vt 0.033038 0.510676
vt 0.077235 0.504863
vt 0.056568 0.534361
vt 0.109260 0.482029
vt 0.103085 0.528672
vt 0.133466 0.502218
vt 0.246104 0.465477
vt 0.245598 0.483628
vt 0.245598 0.430144
vt 0.267125 0.429818
vt 0.272729 0.456515
vt 0.203475 0.679147
vt 0.245598 0.744134
vt 0.211615 0.438767
vt 0.193945 0.442583
vt 0.199402 0.465355
vt 0.216954 0.462212
vt 0.217677 0.493948
vt 0.231861 0.492968
vt 0.234485 0.458388
vt 0.029749 0.785122
vt 0.051028 0.763323
vt 0.045830 0.757892
vt 0.025625 0.778875
vt 0.060056 0.772074
vt 0.045250 0.800384
vt 0.064482 0.818723
vt 0.073834 0.785091
vt 0.119785 0.697897
vt 0.131400 0.693991
vt 0.132845 0.723078
vt 0.145027 0.710706
vt 0.137650 0.708345
vt 0.126519 0.718823
vt 0.067076 0.734185
vt 0.071893 0.740207
vt 0.139368 0.696369
vt 0.108913 0.703160
vt 0.092545 0.706588
vt 0.096960 0.714277
vt 0.090270 0.756624
vt 0.081023 0.749091
vt 0.114701 0.732330
vt 0.105532 0.724983
vt 0.085308 0.819356
vt 0.094283 0.791593
vt 0.037536 0.792773
vt 0.055543 0.767681
vt 0.267575 0.502652
vt 0.272768 0.500407
vt 0.272325 0.489243
vt 0.266883 0.484131
vt 0.128552 0.703363
vt 0.135241 0.695250
vt 0.117731 0.711302
vt 0.032016 0.741305
vt 0.015526 0.759814
vt 0.076480 0.744656
vt 0.054403 0.715992
vt 0.109598 0.765990
vt 0.101205 0.719743
vt 0.132672 0.745061
vt 0.246104 0.502786
vt 0.245598 0.484635
vt 0.245598 0.538118
vt 0.267125 0.538445
vt 0.272729 0.511748
vt 0.203487 0.494812
vt 0.245598 0.429818
vt 0.970549 0.656705
vt 0.993901 0.656705
vt 0.993901 0.661703
vt 0.970548 0.661703
vt 0.993901 0.667044
vt 0.970548 0.667044
vt 0.993901 0.672398
vt 0.970548 0.672398
vt 0.993901 0.677430
vt 0.970548 0.677430
vt 0.947196 0.656705
vt 0.947196 0.661703
vt 0.947196 0.667044
vt 0.947196 0.672398
vt 0.947196 0.677429
vt 0.923844 0.656705
vt 0.923844 0.661703
vt 0.923844 0.667044
vt 0.923844 0.672398
vt 0.923844 0.677429
vt 0.900491 0.656704
vt 0.900491 0.661703
vt 0.900491 0.667044
vt 0.900491 0.672398
vt 0.900491 0.677429
vt 0.877139 0.656704
vt 0.877139 0.661703
vt 0.877139 0.667044
vt 0.877139 0.672398
vt 0.877139 0.677429
vt 0.853786 0.656704
vt 0.853786 0.661703
vt 0.853786 0.667044
vt 0.853786 0.672397
vt 0.853786 0.677429
vt 0.830434 0.656704
vt 0.830434 0.661703
vt 0.830434 0.667044
vt 0.830434 0.672397
vt 0.830434 0.677429
vt 0.807082 0.656704
vt 0.807082 0.661703
vt 0.807082 0.667044
vt 0.807082 0.672397
vt 0.807082 0.677429
vt 0.783729 0.656704
vt 0.783729 0.661703
vt 0.783729 0.667043
vt 0.783729 0.672397
vt 0.783729 0.677429
vt 0.760377 0.656704
vt 0.760377 0.661703
vt 0.760377 0.667043
vt 0.760377 0.672397
vt 0.760377 0.677429
vt 0.737025 0.656704
vt 0.737024 0.661702
vt 0.737024 0.667043
vt 0.737024 0.672397
vt 0.737024 0.677429
vt 0.713672 0.656704
vt 0.713672 0.661702
vt 0.713672 0.667043
vt 0.713672 0.672397
vt 0.713672 0.677429
vt 0.690320 0.656704
vt 0.690320 0.661702
vt 0.690320 0.667043
vt 0.690320 0.672397
vt 0.690320 0.677429
vt 0.666967 0.656704
vt 0.666967 0.661702
vt 0.666967 0.667043
vt 0.666967 0.672397
vt 0.666967 0.677429
vt 0.643615 0.656704
vt 0.643615 0.661702
vt 0.643615 0.667043
vt 0.643615 0.672397
vt 0.643615 0.677428
vt 0.620263 0.656703
vt 0.620262 0.661702
vt 0.620262 0.667043
vt 0.620262 0.672397
vt 0.620262 0.677428
vt 0.596910 0.656703
vt 0.596910 0.661702
vt 0.596910 0.667043
vt 0.596910 0.672396
vt 0.596910 0.677428
vt 0.573558 0.656703
vt 0.573558 0.661702
vt 0.573558 0.667043
vt 0.573558 0.672396
vt 0.573558 0.677428
vt 0.550205 0.656703
vt 0.550205 0.661702
vt 0.550205 0.667043
vt 0.550205 0.672396
vt 0.550205 0.677428
vt 0.526853 0.656703
vt 0.526853 0.661702
vt 0.526853 0.667043
vt 0.526853 0.672396
vt 0.526853 0.677428
vt 0.503500 0.656703
vt 0.503500 0.661702
vt 0.503500 0.667042
vt 0.503500 0.672396
vt 0.503500 0.677428
vt 0.480148 0.656703
vt 0.480148 0.661702
vt 0.480148 0.667042
vt 0.480148 0.672396
vt 0.480148 0.677428
vt 0.456796 0.656703
vt 0.456796 0.661702
vt 0.456796 0.667042
vt 0.456796 0.672396
vt 0.456796 0.677428
vt 0.433443 0.656703
vt 0.433443 0.661701
vt 0.433443 0.667042
vt 0.433443 0.672396
vt 0.433443 0.677428
vt 0.446005 0.019871
vt 0.474596 0.088894
vt 0.429115 0.148166
vt 0.456796 0.651923
vt 0.433443 0.651923
vt 0.993901 0.651925
vt 0.970549 0.651925
vt 0.947196 0.651925
vt 0.923844 0.651925
vt 0.900491 0.651925
vt 0.877139 0.651925
vt 0.853786 0.651925
vt 0.830434 0.651925
vt 0.807082 0.651924
vt 0.783729 0.651924
vt 0.760377 0.651924
vt 0.737025 0.651924
vt 0.713672 0.651924
vt 0.690320 0.651924
vt 0.666967 0.651924
vt 0.643615 0.651924
vt 0.620263 0.651924
vt 0.596910 0.651924
vt 0.573558 0.651924
vt 0.550205 0.651923
vt 0.526853 0.651923
vt 0.503501 0.651923
vt 0.480148 0.651923
vt 0.553241 0.227044
vt 0.560329 0.230217
vt 0.548679 0.269555
vt 0.540961 0.268300
vt 0.567793 0.233564
vt 0.556695 0.270836
vt 0.575262 0.236912
vt 0.564756 0.272128
vt 0.582407 0.240112
vt 0.572493 0.273370
vt 0.575778 0.190360
vt 0.581876 0.195329
vt 0.588181 0.200473
vt 0.594515 0.205625
vt 0.600588 0.210557
vt 0.607077 0.160846
vt 0.611645 0.167184
vt 0.616411 0.173747
vt 0.621201 0.180365
vt 0.625795 0.186707
vt 0.644897 0.140344
vt 0.647680 0.147596
vt 0.650602 0.155239
vt 0.653517 0.162876
vt 0.656314 0.170192
vt 0.686784 0.130296
vt 0.687591 0.138126
vt 0.688416 0.146228
vt 0.689256 0.154354
vt 0.690066 0.162142
vt 0.729838 0.131553
vt 0.728575 0.139268
vt 0.727278 0.147311
vt 0.725990 0.155368
vt 0.724755 0.163101
vt 0.771092 0.143847
vt 0.767878 0.150972
vt 0.764542 0.158403
vt 0.761211 0.165863
vt 0.758013 0.173011
vt 0.807758 0.166397
vt 0.802811 0.172448
vt 0.797667 0.178761
vt 0.792507 0.185113
vt 0.787572 0.191190
vt 0.837332 0.197674
vt 0.830987 0.202240
vt 0.824383 0.207008
vt 0.817764 0.211798
vt 0.811422 0.216394
vt 0.857804 0.235538
vt 0.850494 0.238306
vt 0.842883 0.241203
vt 0.835250 0.244118
vt 0.827937 0.246915
vt 0.867777 0.277407
vt 0.860002 0.278191
vt 0.851902 0.279023
vt 0.843778 0.279864
vt 0.835991 0.280672
vt 0.866547 0.320423
vt 0.858871 0.319192
vt 0.850848 0.317906
vt 0.842780 0.316609
vt 0.835037 0.315364
vt 0.854305 0.361691
vt 0.847168 0.358517
vt 0.839713 0.355168
vt 0.832253 0.351820
vt 0.825115 0.348621
vt 0.831755 0.398370
vt 0.825653 0.393404
vt 0.819344 0.388261
vt 0.813009 0.383109
vt 0.806936 0.378177
vt 0.800454 0.427886
vt 0.795885 0.421549
vt 0.791118 0.414985
vt 0.786327 0.408368
vt 0.781732 0.402026
vt 0.762633 0.448388
vt 0.759849 0.441136
vt 0.756928 0.433493
vt 0.754013 0.425856
vt 0.751215 0.418540
vt 0.720745 0.458438
vt 0.719938 0.450607
vt 0.719114 0.442505
vt 0.718273 0.434379
vt 0.717463 0.426591
vt 0.677691 0.457181
vt 0.678954 0.449466
vt 0.680251 0.441423
vt 0.681539 0.433366
vt 0.682774 0.425633
vt 0.636436 0.444888
vt 0.639650 0.437762
vt 0.642986 0.430332
vt 0.646318 0.422872
vt 0.649516 0.415724
vt 0.599769 0.422337
vt 0.604717 0.416287
vt 0.609861 0.409974
vt 0.615021 0.403623
vt 0.619956 0.397547
vt 0.570195 0.391059
vt 0.576540 0.386494
vt 0.583144 0.381726
vt 0.589764 0.376936
vt 0.596106 0.372341
vt 0.549722 0.353194
vt 0.557032 0.350427
vt 0.564645 0.347530
vt 0.572278 0.344616
vt 0.579591 0.341820
vt 0.539747 0.311322
vt 0.547524 0.310541
vt 0.555625 0.309711
vt 0.563751 0.308871
vt 0.571538 0.308063
vt 0.532305 0.312122
vt 0.533562 0.267145
vt 0.546396 0.224014
vt 0.569953 0.185664
vt 0.602652 0.154736
vt 0.642244 0.133343
vt 0.686018 0.122906
vt 0.730997 0.124157
vt 0.774122 0.137001
vt 0.812456 0.160569
vt 0.843378 0.193260
vt 0.864786 0.232838
vt 0.875219 0.276607
vt 0.873951 0.321579
vt 0.861146 0.364721
vt 0.837581 0.403067
vt 0.804879 0.433995
vt 0.765286 0.455389
vt 0.721512 0.465826
vt 0.676532 0.464576
vt 0.633406 0.451733
vt 0.595072 0.428165
vt 0.564149 0.395473
vt 0.542740 0.355893
vt 0.438114 0.184364
vt 0.418706 0.256863
vt 0.417073 0.256648
vt 0.436593 0.183734
vt 0.415443 0.256434
vt 0.435074 0.183106
vt 0.475633 0.119352
vt 0.474326 0.118349
vt 0.473022 0.117349
vt 0.528715 0.066264
vt 0.527711 0.064957
vt 0.526711 0.063653
vt 0.593726 0.028733
vt 0.593096 0.027211
vt 0.592467 0.025692
vt 0.666225 0.009304
vt 0.666011 0.007670
vt 0.665796 0.006041
vt 0.741281 0.009308
vt 0.741496 0.007675
vt 0.741710 0.006045
vt 0.813779 0.028723
vt 0.814409 0.027201
vt 0.815037 0.025683
vt 0.878782 0.066247
vt 0.879785 0.064940
vt 0.880785 0.063636
vt 0.931856 0.119319
vt 0.933163 0.118316
vt 0.934467 0.117315
vt 0.969387 0.184315
vt 0.970909 0.183684
vt 0.972427 0.183056
vt 0.988819 0.256810
vt 0.990452 0.256595
vt 0.992081 0.256380
vt 0.988818 0.331861
vt 0.990452 0.332076
vt 0.992081 0.332290
vt 0.969423 0.404355
vt 0.970944 0.404985
vt 0.972463 0.405613
vt 0.931901 0.469377
vt 0.933209 0.470379
vt 0.934513 0.471379
vt 0.878818 0.522467
vt 0.879821 0.523774
vt 0.880822 0.525078
vt 0.813805 0.559999
vt 0.814435 0.561521
vt 0.815064 0.563040
vt 0.741305 0.579429
vt 0.741519 0.581062
vt 0.741734 0.582692
vt 0.666248 0.579426
vt 0.666033 0.581059
vt 0.665819 0.582688
vt 0.593748 0.560011
vt 0.593118 0.561532
vt 0.592490 0.563051
vt 0.528745 0.522485
vt 0.527742 0.523792
vt 0.526741 0.525096
vt 0.475669 0.469412
vt 0.474362 0.470415
vt 0.473058 0.471416
vt 0.438138 0.404414
vt 0.436616 0.405045
vt 0.435097 0.405674
vt 0.418705 0.331917
vt 0.417072 0.332132
vt 0.415443 0.332347
vt 0.443474 0.186583
vt 0.424453 0.257619
vt 0.422898 0.257414
vt 0.442025 0.185983
vt 0.421328 0.257208
vt 0.440562 0.185378
vt 0.480234 0.122881
vt 0.478989 0.121927
vt 0.477733 0.120963
vt 0.532244 0.070864
vt 0.531288 0.069618
vt 0.530325 0.068363
vt 0.595946 0.034089
vt 0.595346 0.032641
vt 0.594740 0.031178
vt 0.666983 0.015056
vt 0.666778 0.013500
vt 0.666571 0.011931
vt 0.740524 0.015054
vt 0.740729 0.013499
vt 0.740935 0.011930
vt 0.811560 0.034083
vt 0.812160 0.032633
vt 0.812765 0.031171
vt 0.875251 0.070848
vt 0.876206 0.069603
vt 0.877170 0.068347
vt 0.927257 0.122848
vt 0.928502 0.121892
vt 0.929758 0.120929
vt 0.964030 0.186534
vt 0.965480 0.185934
vt 0.966942 0.185329
vt 0.983067 0.257567
vt 0.984622 0.257363
vt 0.986192 0.257156
vt 0.983071 0.331106
vt 0.984626 0.331310
vt 0.986196 0.331517
vt 0.964062 0.402137
vt 0.965512 0.402737
vt 0.966974 0.403342
vt 0.927300 0.465847
vt 0.928545 0.466802
vt 0.929801 0.467765
vt 0.875289 0.517867
vt 0.876244 0.519113
vt 0.877208 0.520368
vt 0.811585 0.554642
vt 0.812186 0.556091
vt 0.812791 0.557554
vt 0.740547 0.573676
vt 0.740752 0.575233
vt 0.740959 0.576802
vt 0.667005 0.573679
vt 0.666800 0.575234
vt 0.666593 0.576804
vt 0.595968 0.554650
vt 0.595368 0.556100
vt 0.594762 0.557563
vt 0.532275 0.517884
vt 0.531320 0.519129
vt 0.530357 0.520385
vt 0.480269 0.465883
vt 0.479023 0.466839
vt 0.477767 0.467802
vt 0.443494 0.402195
vt 0.442045 0.402795
vt 0.440583 0.403401
vt 0.424457 0.331160
vt 0.422902 0.331364
vt 0.421332 0.331571
vt 0.456796 0.589960
vt 0.433443 0.589960
vt 0.993901 0.589962
vt 0.970549 0.589962
vt 0.947196 0.589962
vt 0.923844 0.589962
vt 0.900492 0.589962
vt 0.877139 0.589962
vt 0.853787 0.589962
vt 0.830434 0.589962
vt 0.807082 0.589961
vt 0.783729 0.589961
vt 0.760377 0.589961
vt 0.737025 0.589961
vt 0.713672 0.589961
vt 0.690320 0.589961
vt 0.666968 0.589961
vt 0.643615 0.589961
vt 0.620263 0.589961
vt 0.596910 0.589961
vt 0.573558 0.589961
vt 0.550205 0.589960
vt 0.526853 0.589960
vt 0.503501 0.589960
vt 0.480148 0.589960
vt 0.410276 0.153214
vt 0.390773 0.153214
vt 0.371934 0.148166
vt 0.355044 0.138414
vt 0.341253 0.124623
vt 0.326454 0.069391
vt 0.331501 0.107733
vt 0.326454 0.088894
vt 0.331501 0.050552
vt 0.341253 0.033662
vt 0.355044 0.019871
vt 0.371934 0.010119
vt 0.390773 0.005072
vt 0.410276 0.005072
vt 0.429115 0.010119
vt 0.459796 0.033662
vt 0.469548 0.050552
vt 0.474596 0.069391
vt 0.469548 0.107733
vt 0.459796 0.124623
vt 0.446005 0.138414
s 1
usemtl PanciAir
f 37/1/1 6/2/2 3/3/3 38/4/3
f 38/4/3 39/5/4 12/6/5 5/7/6
f 39/5/4 40/8/7 13/9/8 12/6/5
f 51/10/9 2/11/10 7/12/11 56/13/12
f 63/14/13 14/15/14 13/16/15 62/17/15
f 53/18/16 4/19/17 14/15/14 63/14/13
f 57/20/18 8/21/19 4/19/17 53/18/16
f 89/22/20 40/8/7 10/23/21 59/24/22
f 59/25/23 10/26/23 9/27/24 58/28/25
f 98/29/26 49/30/27 8/21/19 57/20/18
f 62/31/28 13/9/8 40/8/7 89/22/20
f 23/32/29 18/33/30 19/34/31 24/35/32
f 22/36/33 16/37/34 15/38/35 21/39/36
f 7/12/11 2/11/10 17/40/37 25/41/38
f 14/42/14 4/43/17 20/44/39 36/45/40
f 31/46/41 19/34/31 18/33/30 30/47/42
f 4/43/17 8/21/19 26/48/43 20/44/39
f 2/11/10 9/27/24 27/49/44 17/40/37
f 9/27/24 28/50/45 29/51/46 27/49/44
f 28/50/45 31/46/41 30/47/42 29/51/46
f 21/39/36 32/52/47 33/53/48 22/36/33
f 32/52/47 34/54/49 35/55/50 33/53/48
f 34/54/49 14/42/14 36/45/40 35/55/50
f 21/39/36 15/38/35 1/56/51 5/57/52
f 41/58/53 42/59/54 18/33/30 23/32/29
f 48/60/55 41/61/55 23/62/55 24/63/55
f 43/64/56 20/44/39 26/48/43 44/65/57
f 45/66/58 36/45/40 20/44/39 43/64/56
f 24/35/32 19/34/31 3/67/23 6/68/23
f 42/59/54 22/36/33 33/53/48 46/69/59
f 19/34/31 31/46/41 11/70/23 3/67/23
f 32/52/47 21/39/36 5/57/52 12/71/60
f 47/72/61 35/55/50 36/45/40 45/66/58
f 28/50/45 9/27/24 10/26/23
f 46/69/59 33/53/48 35/55/50 47/72/61
f 31/46/41 28/50/45 10/26/23 11/70/23
f 34/54/49 32/52/47 12/71/60 13/73/15
f 14/42/14 34/54/49 13/73/15
f 37/74/55 48/60/55 24/63/55 6/75/55
f 1/76/55 15/77/55 48/60/55 37/74/55
f 30/47/42 46/69/59 47/72/61 29/51/46
f 29/51/46 47/72/61 45/66/58 27/49/44
f 18/33/30 42/59/54 46/69/59 30/47/42
f 27/49/44 45/66/58 43/64/56 17/40/37
f 17/40/37 43/64/56 44/65/57 25/41/38
f 15/77/55 16/78/55 41/61/55 48/60/55
f 16/37/34 22/36/33 42/59/54 41/58/53
f 56/13/12 7/12/11 49/30/27 98/29/26
f 11/79/62 10/23/21 40/8/7 39/5/4
f 3/3/3 11/79/62 39/5/4 38/4/3
f 1/80/63 37/1/1 38/4/3 5/7/6
f 49/30/27 7/12/11 25/41/38 44/65/57
f 8/21/19 49/30/27 44/65/57 26/48/43
f 86/81/64 87/82/65 52/83/65 55/84/66
f 87/82/65 54/85/67 61/86/68 88/87/69
f 88/87/69 61/86/68 62/31/28 89/22/20
f 72/88/70 73/89/71 68/90/72 67/91/73
f 71/92/74 70/93/75 64/94/76 65/95/77
f 56/13/12 74/96/78 66/97/79 51/10/9
f 63/98/13 85/99/80 69/100/81 53/101/16
f 80/102/82 79/103/83 67/91/73 68/90/72
f 53/101/16 69/100/81 75/104/84 57/20/18
f 51/10/9 66/97/79 76/105/85 58/28/25
f 58/28/25 76/105/85 78/106/86 77/107/87
f 77/107/87 78/106/86 79/103/83 80/102/82
f 70/93/75 71/92/74 82/108/88 81/109/89
f 81/109/89 82/108/88 84/110/90 83/111/91
f 83/111/91 84/110/90 85/99/80 63/98/13
f 70/93/75 54/112/92 50/113/93 64/94/76
f 90/114/94 72/88/70 67/91/73 91/115/95
f 97/116/96 73/117/96 72/118/96 90/119/96
f 92/120/97 93/121/98 75/104/84 69/100/81
f 94/122/99 92/120/97 69/100/81 85/99/80
f 73/89/71 55/123/23 52/124/23 68/90/72
f 91/115/95 95/125/100 82/108/88 71/92/74
f 68/90/72 52/124/23 60/126/23 80/102/82
f 81/109/89 61/127/60 54/112/92 70/93/75
f 96/128/101 94/122/99 85/99/80 84/110/90
f 77/107/87 59/25/23 58/28/25
f 95/125/100 96/128/101 84/110/90 82/108/88
f 80/102/82 60/126/23 59/25/23 77/107/87
f 83/111/91 62/129/15 61/127/60 81/109/89
f 63/98/13 62/129/15 83/111/91
f 86/130/96 55/131/96 73/117/96 97/116/96
f 50/132/96 86/130/96 97/116/96 64/133/96
f 79/103/83 78/106/86 96/128/101 95/125/100
f 78/106/86 76/105/85 94/122/99 96/128/101
f 67/91/73 79/103/83 95/125/100 91/115/95
f 76/105/85 66/97/79 92/120/97 94/122/99
f 66/97/79 74/96/78 93/121/98 92/120/97
f 64/133/96 97/116/96 90/119/96 65/134/96
f 65/95/77 90/114/94 91/115/95 71/92/74
f 60/135/102 88/87/69 89/22/20 59/24/22
f 52/83/65 87/82/65 88/87/69 60/135/102
f 50/136/103 54/85/67 87/82/65 86/81/64
f 98/29/26 93/121/98 74/96/78 56/13/12
f 57/20/18 75/104/84 93/121/98 98/29/26
f 58/28/25 9/27/24 2/11/10 51/10/9
f 135/137/104 136/138/105 101/139/105 104/140/106
f 136/138/105 103/141/107 110/142/108 137/143/109
f 137/143/109 110/142/108 111/144/110 138/145/111
f 149/146/112 154/147/113 105/148/114 100/149/115
f 161/150/116 160/151/117 111/152/117 112/153/118
f 151/154/119 161/150/116 112/153/118 102/155/120
f 155/156/121 151/154/119 102/155/120 106/157/122
f 187/158/123 157/159/124 108/160/125 138/145/111
f 157/161/23 156/162/126 107/163/127 108/164/23
f 196/165/128 155/156/121 106/157/122 147/166/129
f 160/167/130 187/158/123 138/145/111 111/144/110
f 121/168/131 122/169/132 117/170/133 116/171/134
f 120/172/135 119/173/136 113/174/137 114/175/138
f 105/148/114 123/176/139 115/177/140 100/149/115
f 112/178/118 134/179/141 118/180/142 102/181/120
f 129/182/143 128/183/144 116/171/134 117/170/133
f 102/181/120 118/180/142 124/184/145 106/157/122
f 100/149/115 115/177/140 125/185/146 107/163/127
f 107/163/127 125/185/146 127/186/147 126/187/148
f 126/187/148 127/186/147 128/183/144 129/182/143
f 119/173/136 120/172/135 131/188/149 130/189/150
f 130/189/150 131/188/149 133/190/151 132/191/152
f 132/191/152 133/190/151 134/179/141 112/178/118
f 119/173/136 103/192/153 99/193/154 113/174/137
f 139/194/155 121/168/131 116/171/134 140/195/156
f 146/196/157 122/197/157 121/198/157 139/199/157
f 141/200/158 142/201/159 124/184/145 118/180/142
f 143/202/160 141/200/158 118/180/142 134/179/141
f 122/169/132 104/203/23 101/204/23 117/170/133
f 140/195/156 144/205/161 131/188/149 120/172/135
f 117/170/133 101/204/23 109/206/23 129/182/143
f 130/189/150 110/207/162 103/192/153 119/173/136
f 145/208/163 143/202/160 134/179/141 133/190/151
f 126/187/148 108/164/23 107/163/127
f 144/205/161 145/208/163 133/190/151 131/188/149
f 129/182/143 109/206/23 108/164/23 126/187/148
f 132/191/152 111/209/117 110/207/162 130/189/150
f 112/178/118 111/209/117 132/191/152
f 135/210/157 104/211/157 122/197/157 146/196/157
f 99/212/157 135/210/157 146/196/157 113/213/157
f 128/183/144 127/186/147 145/208/163 144/205/161
f 127/186/147 125/185/146 143/202/160 145/208/163
f 116/171/134 128/183/144 144/205/161 140/195/156
f 125/185/146 115/177/140 141/200/158 143/202/160
f 115/177/140 123/176/139 142/201/159 141/200/158
f 113/213/157 146/196/157 139/199/157 114/214/157
f 114/175/138 139/194/155 140/195/156 120/172/135
f 154/147/113 196/165/128 147/166/129 105/148/114
f 109/215/164 137/143/109 138/145/111 108/160/125
f 101/139/105 136/138/105 137/143/109 109/215/164
f 99/216/165 103/141/107 136/138/105 135/137/104
f 147/166/129 142/201/159 123/176/139 105/148/114
f 106/157/122 124/184/145 142/201/159 147/166/129
f 184/217/166 153/218/167 150/219/168 185/220/168
f 185/220/168 186/221/169 159/222/170 152/223/171
f 186/221/169 187/158/123 160/167/130 159/222/170
f 170/224/172 165/225/173 166/226/174 171/227/175
f 169/228/176 163/229/177 162/230/178 168/231/179
f 154/147/113 149/146/112 164/232/180 172/233/181
f 161/234/116 151/235/119 167/236/182 183/237/183
f 178/238/184 166/226/174 165/225/173 177/239/185
f 151/235/119 155/156/121 173/240/186 167/236/182
f 149/146/112 156/162/126 174/241/187 164/232/180
f 156/162/126 175/242/188 176/243/189 174/241/187
f 175/242/188 178/238/184 177/239/185 176/243/189
f 168/231/179 179/244/190 180/245/191 169/228/176
f 179/244/190 181/246/192 182/247/193 180/245/191
f 181/246/192 161/234/116 183/237/183 182/247/193
f 168/231/179 162/230/178 148/248/194 152/249/195
f 188/250/196 189/251/197 165/225/173 170/224/172
f 195/252/198 188/253/198 170/254/198 171/255/198
f 190/256/199 167/236/182 173/240/186 191/257/200
f 192/258/201 183/237/183 167/236/182 190/256/199
f 171/227/175 166/226/174 150/259/23 153/260/23
f 189/251/197 169/228/176 180/245/191 193/261/202
f 166/226/174 178/238/184 158/262/23 150/259/23
f 179/244/190 168/231/179 152/249/195 159/263/162
f 194/264/203 182/247/193 183/237/183 192/258/201
f 175/242/188 156/162/126 157/161/23
f 193/261/202 180/245/191 182/247/193 194/264/203
f 178/238/184 175/242/188 157/161/23 158/262/23
f 181/246/192 179/244/190 159/263/162 160/265/117
f 161/234/116 181/246/192 160/265/117
f 184/266/198 195/252/198 171/255/198 153/267/198
f 148/268/198 162/269/198 195/252/198 184/266/198
f 177/239/185 193/261/202 194/264/203 176/243/189
f 176/243/189 194/264/203 192/258/201 174/241/187
f 165/225/173 189/251/197 193/261/202 177/239/185
f 174/241/187 192/258/201 190/256/199 164/232/180
f 164/232/180 190/256/199 191/257/200 172/233/181
f 162/269/198 163/270/198 188/253/198 195/252/198
f 163/229/177 169/228/176 189/251/197 188/250/196
f 158/271/204 157/159/124 187/158/123 186/221/169
f 150/219/168 158/271/204 186/221/169 185/220/168
f 148/272/205 184/217/166 185/220/168 152/223/171
f 196/165/128 154/147/113 172/233/181 191/257/200
f 155/156/121 196/165/128 191/257/200 173/240/186
f 156/162/126 149/146/112 100/149/115 107/163/127
f 227/273/206 221/274/207 223/275/208 230/276/209
f 230/276/209 223/275/208 224/277/210 229/278/211
f 229/278/211 224/277/210 225/279/212 228/280/213
f 228/280/213 225/279/212 222/281/214 226/282/215
f 232/283/216 227/273/206 230/276/209 235/284/217
f 235/284/217 230/276/209 229/278/211 234/285/218
f 234/285/218 229/278/211 228/280/213 233/286/219
f 233/286/219 228/280/213 226/282/215 231/287/220
f 237/288/221 232/283/216 235/284/217 240/289/222
f 240/289/222 235/284/217 234/285/218 239/290/223
f 239/290/223 234/285/218 233/286/219 238/291/224
f 238/291/224 233/286/219 231/287/220 236/292/225
f 242/293/226 237/288/221 240/289/222 245/294/227
f 245/294/227 240/289/222 239/290/223 244/295/228
f 244/295/228 239/290/223 238/291/224 243/296/229
f 243/296/229 238/291/224 236/292/225 241/297/230
f 247/298/231 242/293/226 245/294/227 250/299/232
f 250/299/232 245/294/227 244/295/228 249/300/233
f 249/300/233 244/295/228 243/296/229 248/301/234
f 248/301/234 243/296/229 241/297/230 246/302/235
f 252/303/236 247/298/231 250/299/232 255/304/237
f 255/304/237 250/299/232 249/300/233 254/305/238
f 254/305/238 249/300/233 248/301/234 253/306/239
f 253/306/239 248/301/234 246/302/235 251/307/240
f 257/308/241 252/303/236 255/304/237 260/309/242
f 260/309/242 255/304/237 254/305/238 259/310/243
f 259/310/243 254/305/238 253/306/239 258/311/244
f 258/311/244 253/306/239 251/307/240 256/312/245
f 262/313/246 257/308/241 260/309/242 265/314/247
f 265/314/247 260/309/242 259/310/243 264/315/248
f 264/315/248 259/310/243 258/311/244 263/316/249
f 263/316/249 258/311/244 256/312/245 261/317/250
f 267/318/251 262/313/246 265/314/247 270/319/252
f 270/319/252 265/314/247 264/315/248 269/320/253
f 269/320/253 264/315/248 263/316/249 268/321/254
f 268/321/254 263/316/249 261/317/250 266/322/255
f 272/323/256 267/318/251 270/319/252 275/324/257
f 275/324/257 270/319/252 269/320/253 274/325/258
f 274/325/258 269/320/253 268/321/254 273/326/259
f 273/326/259 268/321/254 266/322/255 271/327/260
f 277/328/261 272/323/256 275/324/257 280/329/262
f 280/329/262 275/324/257 274/325/258 279/330/263
f 279/330/263 274/325/258 273/326/259 278/331/264
f 278/331/264 273/326/259 271/327/260 276/332/265
f 282/333/266 277/328/261 280/329/262 285/334/267
f 285/334/267 280/329/262 279/330/263 284/335/268
f 284/335/268 279/330/263 278/331/264 283/336/269
f 283/336/269 278/331/264 276/332/265 281/337/270
f 287/338/271 282/333/266 285/334/267 290/339/272
f 290/339/272 285/334/267 284/335/268 289/340/273
f 289/340/273 284/335/268 283/336/269 288/341/274
f 288/341/274 283/336/269 281/337/270 286/342/275
f 292/343/276 287/338/271 290/339/272 295/344/277
f 295/344/277 290/339/272 289/340/273 294/345/278
f 294/345/278 289/340/273 288/341/274 293/346/279
f 293/346/279 288/341/274 286/342/275 291/347/280
f 297/348/281 292/343/276 295/344/277 300/349/282
f 300/349/282 295/344/277 294/345/278 299/350/283
f 299/350/283 294/345/278 293/346/279 298/351/284
f 298/351/284 293/346/279 291/347/280 296/352/285
f 302/353/286 297/348/281 300/349/282 305/354/287
f 305/354/287 300/349/282 299/350/283 304/355/288
f 304/355/288 299/350/283 298/351/284 303/356/289
f 303/356/289 298/351/284 296/352/285 301/357/290
f 307/358/291 302/353/286 305/354/287 310/359/292
f 310/359/292 305/354/287 304/355/288 309/360/293
f 309/360/293 304/355/288 303/356/289 308/361/294
f 308/361/294 303/356/289 301/357/290 306/362/295
f 312/363/296 307/358/291 310/359/292 315/364/297
f 315/364/297 310/359/292 309/360/293 314/365/298
f 314/365/298 309/360/293 308/361/294 313/366/299
f 313/366/299 308/361/294 306/362/295 311/367/300
f 317/368/301 312/363/296 315/364/297 320/369/302
f 320/369/302 315/364/297 314/365/298 319/370/303
f 319/370/303 314/365/298 313/366/299 318/371/304
f 318/371/304 313/366/299 311/367/300 316/372/305
f 322/373/306 317/368/301 320/369/302 325/374/307
f 325/374/307 320/369/302 319/370/303 324/375/308
f 324/375/308 319/370/303 318/371/304 323/376/309
f 323/376/309 318/371/304 316/372/305 321/377/310
f 327/378/311 322/373/306 325/374/307 330/379/312
f 330/379/312 325/374/307 324/375/308 329/380/313
f 329/380/313 324/375/308 323/376/309 328/381/314
f 328/381/314 323/376/309 321/377/310 326/382/315
f 332/383/316 327/378/311 330/379/312 335/384/317
f 335/384/317 330/379/312 329/380/313 334/385/318
f 334/385/318 329/380/313 328/381/314 333/386/319
f 333/386/319 328/381/314 326/382/315 331/387/320
f 337/388/321 332/383/316 335/384/317 340/389/322
f 340/389/322 335/384/317 334/385/318 339/390/323
f 339/390/323 334/385/318 333/386/319 338/391/324
f 338/391/324 333/386/319 331/387/320 336/392/325
f 221/393/207 337/388/321 340/389/322 223/394/208
f 223/394/208 340/389/322 339/390/323 224/395/210
f 224/395/210 339/390/323 338/391/324 225/396/212
f 225/396/212 338/391/324 336/392/325 222/397/214
f 271/398/260 251/399/240 231/400/220
f 207/401/326 337/388/321 221/393/207 208/402/327
f 208/403/327 221/274/207 227/273/206 209/404/328
f 209/404/328 227/273/206 232/283/216 212/405/329
f 212/405/329 232/283/216 237/288/221 215/406/330
f 215/406/330 237/288/221 242/293/226 218/407/331
f 218/407/331 242/293/226 247/298/231 197/408/332
f 197/408/332 247/298/231 252/303/236 198/409/333
f 198/409/333 252/303/236 257/308/241 203/410/334
f 203/410/334 257/308/241 262/313/246 206/411/335
f 206/411/335 262/313/246 267/318/251 211/412/336
f 211/412/336 267/318/251 272/323/256 214/413/337
f 214/413/337 272/323/256 277/328/261 217/414/338
f 217/414/338 277/328/261 282/333/266 220/415/339
f 220/415/339 282/333/266 287/338/271 201/416/340
f 201/416/340 287/338/271 292/343/276 202/417/341
f 202/417/341 292/343/276 297/348/281 205/418/342
f 205/418/342 297/348/281 302/353/286 210/419/343
f 210/419/343 302/353/286 307/358/291 213/420/344
f 213/420/344 307/358/291 312/363/296 216/421/345
f 216/421/345 312/363/296 317/368/301 219/422/346
f 219/422/346 317/368/301 322/373/306 199/423/347
f 199/423/347 322/373/306 327/378/311 200/424/348
f 200/424/348 327/378/311 332/383/316 204/425/349
f 204/425/349 332/383/316 337/388/321 207/401/326
f 371/426/350 374/427/351 367/428/352 365/429/353
f 374/427/351 373/430/354 368/431/355 367/428/352
f 373/430/354 372/432/356 369/433/357 368/431/355
f 372/432/356 370/434/358 366/435/359 369/433/357
f 376/436/360 379/437/361 374/427/351 371/426/350
f 379/437/361 378/438/362 373/430/354 374/427/351
f 378/438/362 377/439/363 372/432/356 373/430/354
f 377/439/363 375/440/364 370/434/358 372/432/356
f 381/441/365 384/442/366 379/437/361 376/436/360
f 384/442/366 383/443/367 378/438/362 379/437/361
f 383/443/367 382/444/368 377/439/363 378/438/362
f 382/444/368 380/445/369 375/440/364 377/439/363
f 386/446/370 389/447/371 384/442/366 381/441/365
f 389/447/371 388/448/372 383/443/367 384/442/366
f 388/448/372 387/449/373 382/444/368 383/443/367
f 387/449/373 385/450/374 380/445/369 382/444/368
f 391/451/375 394/452/376 389/447/371 386/446/370
f 394/452/376 393/453/377 388/448/372 389/447/371
f 393/453/377 392/454/378 387/449/373 388/448/372
f 392/454/378 390/455/379 385/450/374 387/449/373
f 396/456/380 399/457/381 394/452/376 391/451/375
f 399/457/381 398/458/382 393/453/377 394/452/376
f 398/458/382 397/459/383 392/454/378 393/453/377
f 397/459/383 395/460/384 390/455/379 392/454/378
f 401/461/385 404/462/386 399/457/381 396/456/380
f 404/462/386 403/463/387 398/458/382 399/457/381
f 403/463/387 402/464/388 397/459/383 398/458/382
f 402/464/388 400/465/389 395/460/384 397/459/383
f 406/466/390 409/467/391 404/462/386 401/461/385
f 409/467/391 408/468/392 403/463/387 404/462/386
f 408/468/392 407/469/393 402/464/388 403/463/387
f 407/469/393 405/470/394 400/465/389 402/464/388
f 411/471/395 414/472/396 409/467/391 406/466/390
f 414/472/396 413/473/397 408/468/392 409/467/391
f 413/473/397 412/474/398 407/469/393 408/468/392
f 412/474/398 410/475/399 405/470/394 407/469/393
f 416/476/400 419/477/401 414/472/396 411/471/395
f 419/477/401 418/478/402 413/473/397 414/472/396
f 418/478/402 417/479/403 412/474/398 413/473/397
f 417/479/403 415/480/404 410/475/399 412/474/398
f 421/481/405 424/482/406 419/477/401 416/476/400
f 424/482/406 423/483/407 418/478/402 419/477/401
f 423/483/407 422/484/408 417/479/403 418/478/402
f 422/484/408 420/485/409 415/480/404 417/479/403
f 426/486/410 429/487/411 424/482/406 421/481/405
f 429/487/411 428/488/412 423/483/407 424/482/406
f 428/488/412 427/489/413 422/484/408 423/483/407
f 427/489/413 425/490/414 420/485/409 422/484/408
f 431/491/415 434/492/416 429/487/411 426/486/410
f 434/492/416 433/493/417 428/488/412 429/487/411
f 433/493/417 432/494/418 427/489/413 428/488/412
f 432/494/418 430/495/419 425/490/414 427/489/413
f 436/496/420 439/497/421 434/492/416 431/491/415
f 439/497/421 438/498/422 433/493/417 434/492/416
f 438/498/422 437/499/423 432/494/418 433/493/417
f 437/499/423 435/500/424 430/495/419 432/494/418
f 441/501/425 444/502/426 439/497/421 436/496/420
f 444/502/426 443/503/427 438/498/422 439/497/421
f 443/503/427 442/504/428 437/499/423 438/498/422
f 442/504/428 440/505/429 435/500/424 437/499/423
f 446/506/430 449/507/431 444/502/426 441/501/425
f 449/507/431 448/508/432 443/503/427 444/502/426
f 448/508/432 447/509/433 442/504/428 443/503/427
f 447/509/433 445/510/434 440/505/429 442/504/428
f 451/511/435 454/512/436 449/507/431 446/506/430
f 454/512/436 453/513/437 448/508/432 449/507/431
f 453/513/437 452/514/438 447/509/433 448/508/432
f 452/514/438 450/515/439 445/510/434 447/509/433
f 456/516/440 459/517/441 454/512/436 451/511/435
f 459/517/441 458/518/442 453/513/437 454/512/436
f 458/518/442 457/519/443 452/514/438 453/513/437
f 457/519/443 455/520/444 450/515/439 452/514/438
f 461/521/445 464/522/446 459/517/441 456/516/440
f 464/522/446 463/523/447 458/518/442 459/517/441
f 463/523/447 462/524/448 457/519/443 458/518/442
f 462/524/448 460/525/449 455/520/444 457/519/443
f 466/526/450 469/527/451 464/522/446 461/521/445
f 469/527/451 468/528/452 463/523/447 464/522/446
f 468/528/452 467/529/453 462/524/448 463/523/447
f 467/529/453 465/530/454 460/525/449 462/524/448
f 471/531/455 474/532/456 469/527/451 466/526/450
f 474/532/456 473/533/457 468/528/452 469/527/451
f 473/533/457 472/534/458 467/529/453 468/528/452
f 472/534/458 470/535/459 465/530/454 467/529/453
f 476/536/460 479/537/461 474/532/456 471/531/455
f 479/537/461 478/538/462 473/533/457 474/532/456
f 478/538/462 477/539/463 472/534/458 473/533/457
f 477/539/463 475/540/464 470/535/459 472/534/458
f 481/541/465 484/542/466 479/537/461 476/536/460
f 484/542/466 483/543/467 478/538/462 479/537/461
f 483/543/467 482/544/468 477/539/463 478/538/462
f 482/544/468 480/545/469 475/540/464 477/539/463
f 365/429/353 367/428/352 484/542/466 481/541/465
f 367/428/352 368/431/355 483/543/467 484/542/466
f 368/431/355 369/433/357 482/544/468 483/543/467
f 369/433/357 366/435/359 480/545/469 482/544/468
f 405/470/394 445/510/434 366/435/359
f 351/546/470 352/547/471 365/429/353 481/541/465
f 352/547/471 353/548/472 371/426/350 365/429/353
f 353/548/472 356/549/473 376/436/360 371/426/350
f 356/549/473 359/550/474 381/441/365 376/436/360
f 359/550/474 362/551/475 386/446/370 381/441/365
f 362/551/475 341/552/476 391/451/375 386/446/370
f 341/552/476 342/553/477 396/456/380 391/451/375
f 342/553/477 347/554/478 401/461/385 396/456/380
f 347/554/478 350/555/479 406/466/390 401/461/385
f 350/555/479 355/556/480 411/471/395 406/466/390
f 355/556/480 358/557/481 416/476/400 411/471/395
f 358/557/481 361/558/482 421/481/405 416/476/400
f 361/558/482 364/559/483 426/486/410 421/481/405
f 364/559/483 345/560/484 431/491/415 426/486/410
f 345/560/484 346/561/485 436/496/420 431/491/415
f 346/561/485 349/562/486 441/501/425 436/496/420
f 349/562/486 354/563/487 446/506/430 441/501/425
f 354/563/487 357/564/488 451/511/435 446/506/430
f 357/564/488 360/565/489 456/516/440 451/511/435
f 360/565/489 363/566/490 461/521/445 456/516/440
f 363/566/490 343/567/491 466/526/450 461/521/445
f 343/567/491 344/568/492 471/531/455 466/526/450
f 344/568/492 348/569/493 476/536/460 471/531/455
f 348/569/493 351/546/470 481/541/465 476/536/460
f 489/570/494 485/571/495 487/572/496 490/573/497
f 490/573/497 487/572/496 486/574/498 488/575/499
f 492/576/500 489/570/494 490/573/497 493/577/501
f 493/577/501 490/573/497 488/575/499 491/578/502
f 495/579/503 492/576/500 493/577/501 496/580/504
f 496/580/504 493/577/501 491/578/502 494/581/505
f 498/582/506 495/579/503 496/580/504 499/583/507
f 499/583/507 496/580/504 494/581/505 497/584/508
f 501/585/509 498/582/506 499/583/507 502/586/510
f 502/586/510 499/583/507 497/584/508 500/587/511
f 504/588/512 501/585/509 502/586/510 505/589/513
f 505/589/513 502/586/510 500/587/511 503/590/514
f 507/591/515 504/588/512 505/589/513 508/592/516
f 508/592/516 505/589/513 503/590/514 506/593/517
f 510/594/518 507/591/515 508/592/516 511/595/519
f 511/595/519 508/592/516 506/593/517 509/596/520
f 513/597/521 510/594/518 511/595/519 514/598/522
f 514/598/522 511/595/519 509/596/520 512/599/523
f 516/600/524 513/597/521 514/598/522 517/601/525
f 517/601/525 514/598/522 512/599/523 515/602/526
f 519/603/527 516/600/524 517/601/525 520/604/528
f 520/604/528 517/601/525 515/602/526 518/605/529
f 522/606/530 519/603/527 520/604/528 523/607/531
f 523/607/531 520/604/528 518/605/529 521/608/532
f 525/609/533 522/606/530 523/607/531 526/610/534
f 526/610/534 523/607/531 521/608/532 524/611/535
f 528/612/536 525/609/533 526/610/534 529/613/537
f 529/613/537 526/610/534 524/611/535 527/614/538
f 531/615/539 528/612/536 529/613/537 532/616/540
f 532/616/540 529/613/537 527/614/538 530/617/541
f 534/618/542 531/615/539 532/616/540 535/619/543
f 535/619/543 532/616/540 530/617/541 533/620/544
f 537/621/545 534/618/542 535/619/543 538/622/546
f 538/622/546 535/619/543 533/620/544 536/623/547
f 540/624/548 537/621/545 538/622/546 541/625/549
f 541/625/549 538/622/546 536/623/547 539/626/550
f 543/627/551 540/624/548 541/625/549 544/628/552
f 544/628/552 541/625/549 539/626/550 542/629/553
f 546/630/554 543/627/551 544/628/552 547/631/555
f 547/631/555 544/628/552 542/629/553 545/632/556
f 549/633/557 546/630/554 547/631/555 550/634/558
f 550/634/558 547/631/555 545/632/556 548/635/559
f 552/636/560 549/633/557 550/634/558 553/637/561
f 553/637/561 550/634/558 548/635/559 551/638/562
f 555/639/563 552/636/560 553/637/561 556/640/564
f 556/640/564 553/637/561 551/638/562 554/641/565
f 485/571/495 555/639/563 556/640/564 487/572/496
f 487/572/496 556/640/564 554/641/565 486/574/498
f 561/642/566 557/643/567 559/644/568 562/645/569
f 562/645/569 559/644/568 558/646/570 560/647/571
f 564/648/572 561/642/566 562/645/569 565/649/573
f 565/649/573 562/645/569 560/647/571 563/650/574
f 567/651/575 564/648/572 565/649/573 568/652/576
f 568/652/576 565/649/573 563/650/574 566/653/577
f 570/654/578 567/651/575 568/652/576 571/655/579
f 571/655/579 568/652/576 566/653/577 569/656/580
f 573/657/581 570/654/578 571/655/579 574/658/582
f 574/658/582 571/655/579 569/656/580 572/659/583
f 576/660/584 573/657/581 574/658/582 577/661/585
f 577/661/585 574/658/582 572/659/583 575/662/586
f 579/663/587 576/660/584 577/661/585 580/664/588
f 580/664/588 577/661/585 575/662/586 578/665/589
f 582/666/590 579/663/587 580/664/588 583/667/591
f 583/667/591 580/664/588 578/665/589 581/668/592
f 585/669/593 582/666/590 583/667/591 586/670/594
f 586/670/594 583/667/591 581/668/592 584/671/595
f 588/672/596 585/669/593 586/670/594 589/673/597
f 589/673/597 586/670/594 584/671/595 587/674/598
f 591/675/599 588/672/596 589/673/597 592/676/600
f 592/676/600 589/673/597 587/674/598 590/677/601
f 594/678/602 591/675/599 592/676/600 595/679/603
f 595/679/603 592/676/600 590/677/601 593/680/604
f 597/681/605 594/678/602 595/679/603 598/682/606
f 598/682/606 595/679/603 593/680/604 596/683/607
f 600/684/608 597/681/605 598/682/606 601/685/609
f 601/685/609 598/682/606 596/683/607 599/686/610
f 603/687/611 600/684/608 601/685/609 604/688/612
f 604/688/612 601/685/609 599/686/610 602/689/613
f 606/690/614 603/687/611 604/688/612 607/691/615
f 607/691/615 604/688/612 602/689/613 605/692/616
f 609/693/617 606/690/614 607/691/615 610/694/618
f 610/694/618 607/691/615 605/692/616 608/695/619
f 612/696/620 609/693/617 610/694/618 613/697/621
f 613/697/621 610/694/618 608/695/619 611/698/622
f 615/699/623 612/696/620 613/697/621 616/700/624
f 616/700/624 613/697/621 611/698/622 614/701/625
f 618/702/626 615/699/623 616/700/624 619/703/627
f 619/703/627 616/700/624 614/701/625 617/704/628
f 621/705/629 618/702/626 619/703/627 622/706/630
f 622/706/630 619/703/627 617/704/628 620/707/631
f 624/708/632 621/705/629 622/706/630 625/709/633
f 625/709/633 622/706/630 620/707/631 623/710/634
f 627/711/635 624/708/632 625/709/633 628/712/636
f 628/712/636 625/709/633 623/710/634 626/713/637
f 557/643/567 627/711/635 628/712/636 559/644/568
f 559/644/568 628/712/636 626/713/637 558/646/570
f 485/571/495 489/570/494 560/647/571 558/646/570
f 554/714/565 207/401/326 208/402/327 486/715/498
f 486/716/498 208/403/327 209/404/328 488/717/499
f 555/639/563 485/571/495 558/646/570 626/713/637
f 489/570/494 492/576/500 563/650/574 560/647/571
f 488/717/499 209/404/328 212/405/329 491/718/502
f 492/576/500 495/579/503 566/653/577 563/650/574
f 491/718/502 212/405/329 215/406/330 494/719/505
f 495/579/503 498/582/506 569/656/580 566/653/577
f 494/719/505 215/406/330 218/407/331 497/720/508
f 498/582/506 501/585/509 572/659/583 569/656/580
f 497/720/508 218/407/331 197/408/332 500/721/511
f 501/585/509 504/588/512 575/662/586 572/659/583
f 500/721/511 197/408/332 198/409/333 503/722/514
f 504/588/512 507/591/515 578/665/589 575/662/586
f 503/722/514 198/409/333 203/410/334 506/723/517
f 507/591/515 510/594/518 581/668/592 578/665/589
f 506/723/517 203/410/334 206/411/335 509/724/520
f 510/594/518 513/597/521 584/671/595 581/668/592
f 509/724/520 206/411/335 211/412/336 512/725/523
f 513/597/521 516/600/524 587/674/598 584/671/595
f 512/725/523 211/412/336 214/413/337 515/726/526
f 516/600/524 519/603/527 590/677/601 587/674/598
f 515/726/526 214/413/337 217/414/338 518/727/529
f 519/603/527 522/606/530 593/680/604 590/677/601
f 518/727/529 217/414/338 220/415/339 521/728/532
f 522/606/530 525/609/533 596/683/607 593/680/604
f 521/728/532 220/415/339 201/416/340 524/729/535
f 525/609/533 528/612/536 599/686/610 596/683/607
f 524/729/535 201/416/340 202/417/341 527/730/538
f 528/612/536 531/615/539 602/689/613 599/686/610
f 527/730/538 202/417/341 205/418/342 530/731/541
f 531/615/539 534/618/542 605/692/616 602/689/613
f 530/731/541 205/418/342 210/419/343 533/732/544
f 534/618/542 537/621/545 608/695/619 605/692/616
f 533/732/544 210/419/343 213/420/344 536/733/547
f 537/621/545 540/624/548 611/698/622 608/695/619
f 536/733/547 213/420/344 216/421/345 539/734/550
f 540/624/548 543/627/551 614/701/625 611/698/622
f 539/734/550 216/421/345 219/422/346 542/735/553
f 543/627/551 546/630/554 617/704/628 614/701/625
f 542/735/553 219/422/346 199/423/347 545/736/556
f 546/630/554 549/633/557 620/707/631 617/704/628
f 545/736/556 199/423/347 200/424/348 548/737/559
f 549/633/557 552/636/560 623/710/634 620/707/631
f 548/737/559 200/424/348 204/425/349 551/738/562
f 552/636/560 555/639/563 626/713/637 623/710/634
f 551/738/562 204/425/349 207/401/326 554/714/565
f 557/643/567 561/642/566 353/548/472 352/547/471
f 627/711/635 557/643/567 352/547/471 351/546/470
f 561/642/566 564/648/572 356/549/473 353/548/472
f 564/648/572 567/651/575 359/550/474 356/549/473
f 567/651/575 570/654/578 362/551/475 359/550/474
f 570/654/578 573/657/581 341/552/476 362/551/475
f 573/657/581 576/660/584 342/553/477 341/552/476
f 576/660/584 579/663/587 347/554/478 342/553/477
f 579/663/587 582/666/590 350/555/479 347/554/478
f 582/666/590 585/669/593 355/556/480 350/555/479
f 585/669/593 588/672/596 358/557/481 355/556/480
f 588/672/596 591/675/599 361/558/482 358/557/481
f 591/675/599 594/678/602 364/559/483 361/558/482
f 594/678/602 597/681/605 345/560/484 364/559/483
f 597/681/605 600/684/608 346/561/485 345/560/484
f 600/684/608 603/687/611 349/562/486 346/561/485
f 603/687/611 606/690/614 354/563/487 349/562/486
f 606/690/614 609/693/617 357/564/488 354/563/487
f 609/693/617 612/696/620 360/565/489 357/564/488
f 612/696/620 615/699/623 363/566/490 360/565/489
f 615/699/623 618/702/626 343/567/491 363/566/490
f 618/702/626 621/705/629 344/568/492 343/567/491
f 621/705/629 624/708/632 348/569/493 344/568/492
f 624/708/632 627/711/635 351/546/470 348/569/493
f 366/435/359 370/434/358 375/440/364
f 375/440/364 380/445/369 366/435/359
f 380/445/369 385/450/374 366/435/359
f 385/450/374 390/455/379 405/470/394
f 390/455/379 395/460/384 405/470/394
f 395/460/384 400/465/389 405/470/394
f 405/470/394 410/475/399 425/490/414
f 410/475/399 415/480/404 425/490/414
f 415/480/404 420/485/409 425/490/414
f 425/490/414 430/495/419 435/500/424
f 435/500/424 440/505/429 425/490/414
f 440/505/429 445/510/434 425/490/414
f 445/510/434 450/515/439 465/530/454
f 450/515/439 455/520/444 465/530/454
f 455/520/444 460/525/449 465/530/454
f 465/530/454 470/535/459 366/435/359
f 470/535/459 475/540/464 366/435/359
f 475/540/464 480/545/469 366/435/359
f 366/435/359 385/450/374 405/470/394
f 405/470/394 425/490/414 445/510/434
f 445/510/434 465/530/454 366/435/359
f 231/400/220 226/739/215 222/740/214
f 222/740/214 336/741/325 231/400/220
f 336/741/325 331/742/320 231/400/220
f 331/742/320 326/743/315 311/744/300
f 326/743/315 321/745/310 311/744/300
f 321/745/310 316/746/305 311/744/300
f 311/744/300 306/747/295 301/748/290
f 301/748/290 296/749/285 311/744/300
f 296/749/285 291/750/280 311/744/300
f 291/750/280 286/751/275 281/752/270
f 281/752/270 276/753/265 271/398/260
f 271/398/260 266/754/255 251/399/240
f 266/754/255 261/755/250 251/399/240
f 261/755/250 256/756/245 251/399/240
f 251/399/240 246/757/235 241/758/230
f 241/758/230 236/759/225 251/399/240
f 236/759/225 231/400/220 251/399/240
f 291/750/280 281/752/270 311/744/300
f 281/752/270 271/398/260 311/744/300
f 231/400/220 331/742/320 271/398/260
f 331/742/320 311/744/300 271/398/260
