# Blender 5.0.1
# www.blender.org
mtllib MejaKecil.mtl
o MejaKecil
v 2.275646 0.760755 -4.408259
v 2.275646 0.000447 -4.408259
v 2.275646 0.760755 -4.368259
v 2.275646 0.000447 -4.368259
v 2.315646 0.760755 -4.368259
v 2.315646 0.000447 -4.368259
v 2.315646 0.760755 -4.408259
v 2.315646 0.000447 -4.408259
v 2.275647 0.161748 -4.408260
v 2.275647 0.131748 -4.408260
v 2.275646 0.161748 -3.796701
v 2.275646 0.131748 -3.796701
v 2.826028 0.161748 -3.796701
v 2.826028 0.131748 -3.796701
v 2.826028 0.161748 -4.408260
v 2.826028 0.131748 -4.408260
v 2.786028 0.760755 -3.836701
v 2.786028 0.000447 -3.836701
v 2.786028 0.760755 -3.796701
v 2.786028 0.000447 -3.796701
v 2.826028 0.760755 -3.796701
v 2.826028 0.000447 -3.796701
v 2.826028 0.760755 -3.836701
v 2.826028 0.000447 -3.836701
v 2.786028 0.760755 -4.408259
v 2.786028 0.000447 -4.408259
v 2.786028 0.760755 -4.368259
v 2.786028 0.000447 -4.368259
v 2.826029 0.760755 -4.368259
v 2.826029 0.000447 -4.368259
v 2.826029 0.760755 -4.408259
v 2.826029 0.000447 -4.408259
v 2.275646 0.760755 -3.836701
v 2.275646 0.000447 -3.836701
v 2.275646 0.760755 -3.796701
v 2.275646 0.000447 -3.796701
v 2.315646 0.760755 -3.796701
v 2.315646 0.000447 -3.796701
v 2.315646 0.760755 -3.836701
v 2.315646 0.000447 -3.836701
v 2.254523 0.800755 -4.486413
v 2.254523 0.760755 -4.486413
v 2.254523 0.800755 -3.753407
v 2.254523 0.760755 -3.753407
v 2.854077 0.800755 -3.753407
v 2.854077 0.760755 -3.753407
v 2.854077 0.800755 -4.486413
v 2.854077 0.760755 -4.486413
vn 1.0000 -0.0000 -0.0000
vn -0.0000 -0.0000 1.0000
vn -1.0000 -0.0000 -0.0000
vn -0.0000 -0.0000 -1.0000
vn -0.0000 -1.0000 -0.0000
vn -0.0000 1.0000 -0.0000
vt 0.708558 0.433967
vt 0.685747 0.433967
vt 0.685747 0.000386
vt 0.708558 0.000386
vt 0.023970 0.419171
vt 0.046781 0.852751
vt 0.023970 0.852751
vt 0.046781 0.419171
vt 0.709331 0.000386
vt 0.732142 0.000386
vt 0.732142 0.433967
vt 0.709331 0.433967
vt 0.000386 0.419171
vt 0.023197 0.419171
vt 0.023197 0.852751
vt 0.000386 0.852751
vt 0.282618 0.768697
vt 0.259807 0.791508
vt 0.259807 0.768697
vt 0.282618 0.791508
vt 0.329785 0.768697
vt 0.329785 0.791508
vt 0.306974 0.791508
vt 0.306974 0.768697
vt 0.591554 0.767924
vt 0.574446 0.767924
vt 0.591554 0.419171
vt 0.574446 0.419171
vt 0.867942 0.000386
vt 0.850833 0.314253
vt 0.850833 0.000386
vt 0.867942 0.314253
vt 0.609435 0.767924
vt 0.592327 0.767924
vt 0.609435 0.419171
vt 0.592327 0.419171
vt 0.674484 0.419171
vt 0.674484 0.733037
vt 0.657376 0.733037
vt 0.657376 0.419171
vt 0.685747 0.783494
vt 0.685748 0.434740
vt 0.999614 0.434740
vt 0.999614 0.783494
vt 0.755726 0.433967
vt 0.732915 0.433967
vt 0.732915 0.000386
vt 0.755726 0.000386
vt 0.141116 0.852751
vt 0.118305 0.852751
vt 0.118305 0.419171
vt 0.141116 0.419171
vt 0.047554 0.419171
vt 0.070365 0.852751
vt 0.047554 0.852751
vt 0.070365 0.419171
vt 0.802893 0.433967
vt 0.780082 0.433967
vt 0.780082 0.000386
vt 0.802893 0.000386
vt 0.610208 0.784662
vt 0.633019 0.761851
vt 0.633019 0.784662
vt 0.610208 0.761851
vt 0.633792 0.761851
vt 0.656603 0.761851
vt 0.656603 0.784662
vt 0.633792 0.784662
vt 0.779309 0.433967
vt 0.756499 0.433967
vt 0.756499 0.000386
vt 0.779309 0.000386
vt 0.071138 0.419171
vt 0.093948 0.852751
vt 0.071138 0.852751
vt 0.093948 0.419171
vt 0.164699 0.852751
vt 0.141889 0.852751
vt 0.141889 0.419171
vt 0.164699 0.419171
vt 0.094721 0.419171
vt 0.117532 0.419171
vt 0.117532 0.852751
vt 0.094721 0.852751
vt 0.680186 0.733810
vt 0.657376 0.756621
vt 0.657376 0.733810
vt 0.680186 0.756621
vt 0.680186 0.780204
vt 0.657376 0.780204
vt 0.657376 0.757394
vt 0.680186 0.757394
vt 0.189056 0.419171
vt 0.211867 0.419171
vt 0.211867 0.852751
vt 0.189056 0.852751
vt 0.803666 0.000386
vt 0.826477 0.433967
vt 0.803666 0.433967
vt 0.826477 0.000386
vt 0.188283 0.852751
vt 0.165472 0.852751
vt 0.165472 0.419171
vt 0.188283 0.419171
vt 0.827250 0.000386
vt 0.850061 0.000386
vt 0.850061 0.433967
vt 0.827250 0.433967
vt 0.330558 0.791508
vt 0.353369 0.768697
vt 0.353369 0.791508
vt 0.330558 0.768697
vt 0.283391 0.768697
vt 0.306201 0.768697
vt 0.306201 0.791508
vt 0.283391 0.791508
vt 0.633019 0.419171
vt 0.633019 0.761078
vt 0.610208 0.761078
vt 0.610208 0.419171
vt 0.235450 0.419171
vt 0.235450 0.837182
vt 0.212640 0.837182
vt 0.212640 0.419171
vt 0.656603 0.419171
vt 0.656603 0.761078
vt 0.633792 0.761078
vt 0.633792 0.419171
vt 0.000386 0.000386
vt 0.342294 0.000386
vt 0.342294 0.418398
vt 0.000386 0.418398
vt 0.343067 0.418398
vt 0.343067 0.000386
vt 0.684975 0.000386
vt 0.684974 0.418398
vt 0.573673 0.767924
vt 0.259807 0.767924
vt 0.259807 0.419171
vt 0.573673 0.419171
vt 0.259034 0.419171
vt 0.259034 0.837182
vt 0.236223 0.837182
vt 0.236223 0.419171
s 1
usemtl MejaKecil
f 6/1/1 8/2/1 7/3/1 5/4/1
f 4/5/2 5/6/2 3/7/2
f 4/5/2 6/8/2 5/6/2
f 26/9/3 28/10/3 27/11/3 25/12/3
f 1/13/4 7/14/4 8/15/4
f 2/16/4 1/13/4 8/15/4
f 2/17/5 6/18/5 4/19/5
f 8/20/5 6/18/5 2/17/5
f 1/21/6 3/22/6 5/23/6
f 1/21/6 5/23/6 7/24/6
f 9/25/3 10/26/3 11/27/3
f 11/27/3 10/26/3 12/28/3
f 12/29/2 13/30/2 11/31/2
f 12/29/2 14/32/2 13/30/2
f 13/33/1 14/34/1 15/35/1
f 15/35/1 14/34/1 16/36/1
f 9/37/4 15/38/4 16/39/4
f 9/37/4 16/39/4 10/40/4
f 13/41/6 15/42/6 9/43/6 11/44/6
f 2/45/3 4/46/3 3/47/3 1/48/3
f 22/49/1 24/50/1 23/51/1 21/52/1
f 20/53/2 21/54/2 19/55/2
f 20/53/2 22/56/2 21/54/2
f 17/57/4 23/58/4 24/59/4
f 17/57/4 24/59/4 18/60/4
f 18/61/5 22/62/5 20/63/5
f 24/64/5 22/62/5 18/61/5
f 17/65/6 19/66/6 21/67/6
f 17/65/6 21/67/6 23/68/6
f 30/69/1 32/70/1 31/71/1 29/72/1
f 28/73/2 29/74/2 27/75/2
f 28/73/2 30/76/2 29/74/2
f 34/77/3 36/78/3 35/79/3 33/80/3
f 25/81/4 31/82/4 32/83/4
f 25/81/4 32/83/4 26/84/4
f 26/85/5 30/86/5 28/87/5
f 32/88/5 30/86/5 26/85/5
f 25/89/6 27/90/6 29/91/6
f 25/89/6 29/91/6 31/92/6
f 38/93/1 40/94/1 39/95/1 37/96/1
f 36/97/2 37/98/2 35/99/2
f 36/97/2 38/100/2 37/98/2
f 18/101/3 20/102/3 19/103/3 17/104/3
f 33/105/4 39/106/4 40/107/4
f 34/108/4 33/105/4 40/107/4
f 34/109/5 38/110/5 36/111/5
f 40/112/5 38/110/5 34/109/5
f 33/113/6 35/114/6 37/115/6
f 33/113/6 37/115/6 39/116/6
f 44/117/2 46/118/2 45/119/2 43/120/2
f 46/121/1 48/122/1 47/123/1 45/124/1
f 48/125/4 42/126/4 41/127/4 47/128/4
f 42/129/5 48/130/5 46/131/5 44/132/5
f 45/133/6 47/134/6 41/135/6 43/136/6
f 10/137/5 16/138/5 14/139/5 12/140/5
f 42/141/3 44/142/3 43/143/3 41/144/3
