# Blender v2.92.0 OBJ File: 'ElectricOutlet.blend'
# www.blender.org
mtllib ElectricOutlet.mtl
o polySurface168_Mesh
v 0.027476 0.042296 0.020747
v 0.032256 0.042296 0.011366
v 0.033903 0.042296 0.000968
v 0.032256 0.042296 -0.009430
v 0.027476 0.042296 -0.018811
v 0.020032 0.042296 -0.026255
v 0.010651 0.042296 -0.031035
v 0.000253 0.042296 -0.032682
v -0.010146 0.042296 -0.031035
v -0.019526 0.042296 -0.026255
v -0.026971 0.042296 -0.018811
v -0.031750 0.042296 -0.009430
v -0.033397 0.042296 0.000968
v -0.031750 0.042296 0.011366
v -0.026971 0.042296 0.020747
v -0.019526 0.042296 0.028192
v -0.010146 0.042296 0.032971
v 0.000253 0.042296 0.034618
v 0.010651 0.042296 0.032971
v 0.020032 0.042296 0.028192
v -0.010146 0.058292 0.032971
v -0.019526 0.058292 0.028192
v -0.026971 0.058292 0.020747
v -0.031750 0.058292 0.011366
v -0.033397 0.058292 0.000968
v -0.031750 0.058292 -0.009430
v -0.026971 0.058292 -0.018811
v -0.019526 0.058292 -0.026255
v -0.010146 0.058292 -0.031035
v 0.000253 0.058292 -0.032682
v 0.010651 0.058292 -0.031035
v 0.020032 0.058292 -0.026255
v 0.027476 0.058292 -0.018811
v 0.032256 0.058292 -0.009430
v 0.033903 0.058292 0.000968
v 0.032256 0.058292 0.011366
v 0.027476 0.058292 0.020747
v 0.020032 0.058292 0.028192
v 0.010651 0.058292 0.032971
v 0.000253 0.058292 0.034618
v -0.038945 0.048552 -0.050150
v -0.050150 0.048552 -0.038945
v -0.038945 0.058292 -0.038945
v 0.038945 0.058292 -0.038945
v 0.050150 0.048552 -0.038945
v 0.038945 0.048552 -0.050150
v -0.050150 0.048552 0.038945
v -0.038945 0.048552 0.050150
v -0.038945 0.058292 0.038945
v 0.038945 0.058292 0.038945
v 0.038945 0.048552 0.050150
v 0.050150 0.048552 0.038945
v -0.038945 0.000000 -0.050150
v -0.050150 -0.000000 -0.038945
v 0.050150 -0.000000 -0.038945
v 0.038945 0.000000 -0.050150
v -0.050150 -0.000000 0.038945
v -0.038945 -0.000000 0.050150
v 0.038945 -0.000000 0.050150
v 0.050150 -0.000000 0.038945
vt 0.309408 0.554068
vt 0.212183 0.554068
vt 0.260796 0.546369
vt 0.044541 0.111734
vt 0.044541 0.030940
vt 0.076767 0.111734
vt 0.076767 0.030940
vt 0.126961 0.111734
vt 0.126961 0.030940
vt 0.190208 0.111734
vt 0.190208 0.030940
vt 0.260318 0.111734
vt 0.260318 0.030940
vt 0.330428 0.111734
vt 0.330428 0.030940
vt 0.393676 0.111734
vt 0.393676 0.030940
vt 0.443869 0.111734
vt 0.443869 0.030940
vt 0.476095 0.111734
vt 0.476095 0.030940
vt 0.487199 0.111734
vt 0.487199 0.030940
vt 0.476095 0.111734
vt 0.476095 0.030940
vt 0.443869 0.111734
vt 0.443869 0.030940
vt 0.393675 0.111734
vt 0.393676 0.030940
vt 0.330428 0.111734
vt 0.330428 0.030940
vt 0.260318 0.111734
vt 0.260318 0.030940
vt 0.190208 0.111734
vt 0.190208 0.030940
vt 0.126961 0.111734
vt 0.126961 0.030940
vt 0.076767 0.111734
vt 0.076767 0.030940
vt 0.044541 0.111734
vt 0.044541 0.030940
vt 0.033437 0.111734
vt 0.033437 0.030940
vt 0.077547 0.942655
vt 0.025166 0.890274
vt 0.077547 0.890274
vt 0.441681 0.890274
vt 0.494062 0.890274
vt 0.441681 0.942655
vt 0.025166 0.526140
vt 0.077547 0.473759
vt 0.077547 0.526140
vt 0.441681 0.526140
vt 0.441681 0.473759
vt 0.494062 0.526140
vt 0.442269 0.412424
vt 0.494867 0.412424
vt 0.442269 0.157296
vt 0.494867 0.157296
vt 0.494867 0.412424
vt 0.442269 0.412424
vt 0.494867 0.157296
vt 0.442269 0.157296
vt 0.024033 0.412424
vt 0.076631 0.412424
vt 0.024033 0.157296
vt 0.076631 0.157296
vt 0.024033 0.157296
vt 0.076631 0.157296
vt 0.024033 0.412424
vt 0.076631 0.412424
vt 0.076795 0.157612
vt 0.076795 0.412330
vt 0.442149 0.157612
vt 0.442149 0.412330
vt 0.353262 0.830950
vt 0.388065 0.796148
vt 0.309408 0.853295
vt 0.260796 0.860994
vt 0.212183 0.853295
vt 0.168330 0.830950
vt 0.133527 0.796148
vt 0.410410 0.752294
vt 0.111182 0.752294
vt 0.418109 0.703681
vt 0.410410 0.655069
vt 0.388065 0.611215
vt 0.353262 0.576413
vt 0.309408 0.554068
vt 0.260796 0.546369
vt 0.212183 0.554068
vt 0.168330 0.576413
vt 0.133527 0.611215
vt 0.111182 0.655069
vt 0.103483 0.703681
vt 0.442149 0.157612
vt 0.442149 0.412330
vt 0.076795 0.157612
vt 0.076795 0.412330
vt 0.565839 0.942397
vt 0.929448 0.942397
vt 0.513533 0.890091
vt 0.981754 0.890091
vt 0.981754 0.526482
vt 0.929448 0.474176
vt 0.565839 0.474176
vt 0.513533 0.526482
vt 0.103483 0.703681
vt 0.418109 0.703681
vt 0.111182 0.752294
vt 0.410410 0.752294
vt 0.410410 0.655069
vt 0.111182 0.655069
vt 0.388065 0.611215
vt 0.133527 0.611215
vt 0.353262 0.576413
vt 0.168330 0.576413
vt 0.133527 0.796148
vt 0.388065 0.796148
vt 0.168330 0.830950
vt 0.353262 0.830950
vt 0.212183 0.853295
vt 0.309408 0.853295
vt 0.260796 0.860994
vn 0.0016 0.9965 -0.0841
vn 0.1846 0.9802 -0.0716
vn 0.3875 0.8450 -0.3686
vn 0.4863 -0.0172 -0.8736
vn 0.1566 0.1025 -0.9823
vn 0.6812 -0.1363 -0.7193
vn 0.5232 0.0246 -0.8518
vn 0.8700 -0.1360 -0.4739
vn 0.7578 0.0260 -0.6520
vn 0.9740 -0.1403 -0.1776
vn 0.9206 0.0273 -0.3896
vn 0.9988 -0.0427 0.0240
vn 0.9957 0.0280 -0.0882
vn 0.8924 -0.1404 0.4289
vn 0.9741 0.0278 0.2245
vn 0.7194 -0.1362 0.6811
vn 0.8554 0.0267 0.5173
vn 0.4739 -0.1360 0.8700
vn 0.6503 0.0253 0.7593
vn 0.1778 -0.1402 0.9740
vn 0.3794 0.0238 0.9249
vn -0.1357 -0.1443 0.9802
vn 0.0312 0.5031 0.8636
vn -0.3313 -0.0424 0.9426
vn -0.2778 0.1835 0.9429
vn -0.6809 -0.1360 0.7196
vn -0.5232 0.0246 0.8518
vn -0.8701 -0.1362 0.4737
vn -0.7578 0.0260 0.6520
vn -0.9741 -0.1406 0.1774
vn -0.9206 0.0273 0.3896
vn -0.9988 -0.0428 -0.0241
vn -0.9957 0.0280 0.0882
vn -0.8924 -0.1405 -0.4289
vn -0.9741 0.0278 -0.2245
vn -0.7195 -0.1360 -0.6810
vn -0.8554 0.0267 -0.5173
vn -0.4737 -0.1363 -0.8701
vn -0.6503 0.0253 -0.7593
vn -0.1772 -0.1407 -0.9741
vn -0.3352 0.0734 -0.9393
vn 0.0242 -0.0429 -0.9988
vn -0.3950 0.3132 -0.8636
vn -0.3770 0.2662 -0.8872
vn -0.8209 0.4925 -0.2889
vn -0.1084 0.9799 -0.1673
vn 0.2030 0.9703 -0.1314
vn 0.8872 0.2662 -0.3770
vn 0.2889 0.4925 -0.8209
vn -0.8872 0.2662 0.3770
vn -0.2889 0.4925 0.8209
vn -0.1835 0.9758 0.1188
vn 0.1188 0.9758 0.1835
vn 0.3770 0.2662 0.8872
vn 0.8209 0.4925 0.2889
vn -0.9172 0.1205 -0.3799
vn -0.4729 0.1342 -0.8708
vn 0.3827 0.0000 -0.9239
vn 0.8708 0.1342 -0.4729
vn -0.3827 -0.0000 0.9239
vn -0.8708 0.1342 0.4729
vn 0.4729 0.1342 0.8708
vn 0.9265 0.1180 0.3573
vn 0.1979 0.9800 -0.0223
vn 0.1956 0.9799 0.0401
vn 0.0400 0.9987 -0.0332
vn 0.1560 0.9774 -0.1426
vn 0.1014 0.9787 -0.1786
vn 0.0400 0.9800 -0.1952
vn -0.0223 0.9799 -0.1983
vn 0.1792 0.9785 0.1017
vn -0.0851 0.9786 -0.1874
vn 0.0443 0.9986 0.0280
vn 0.0851 0.9786 0.1874
vn 0.0223 0.9799 0.1981
vn -0.0401 0.9799 0.1956
vn -0.1018 0.9785 0.1793
vn -0.0281 0.9986 0.0444
vn -0.1921 0.9785 -0.0752
vn -0.1985 0.9798 0.0223
vn -0.1952 0.9800 -0.0400
vn -0.1788 0.9786 -0.1015
vn -0.0443 0.9986 -0.0280
vn 0.1127 -0.9894 0.0920
vn -0.0000 -1.0000 -0.0000
vn 0.0962 -0.9946 0.0399
vn -0.0920 -0.9894 0.1127
vn -0.1012 -0.9946 -0.0247
vn -0.1127 -0.9894 -0.0920
vn 0.0920 -0.9894 -0.1127
vn 0.0415 0.9951 0.0897
vn -0.0415 0.9951 -0.0897
vn 0.0117 0.9952 0.0973
vn -0.0656 0.9953 -0.0707
vn -0.0117 0.9952 -0.0973
vn 0.0656 0.9953 0.0707
vn 0.0183 0.9955 -0.0926
vn 0.0803 0.9958 0.0448
vn 0.0436 0.9960 -0.0781
vn 0.0851 0.9962 0.0168
vn -0.0183 0.9955 0.0926
vn -0.0803 0.9958 -0.0448
vn -0.0436 0.9960 0.0781
vn -0.0851 0.9962 -0.0168
vn -0.0617 0.9965 0.0572
vn -0.0854 0.9802 0.1786
vn -0.0298 0.8450 0.5340
usemtl ROZETE
s 1
f 19/1/1 17/2/2 18/3/3
f 21/4/4 17/5/5 22/6/6
f 17/5/5 16/7/7 22/6/6
f 22/6/6 16/7/7 23/8/8
f 16/7/7 15/9/9 23/8/8
f 23/8/8 15/9/9 24/10/10
f 15/9/9 14/11/11 24/10/10
f 24/10/10 14/11/11 25/12/12
f 14/11/11 13/13/13 25/12/12
f 25/12/12 13/13/13 26/14/14
f 13/13/13 12/15/15 26/14/14
f 26/14/14 12/15/15 27/16/16
f 12/15/15 11/17/17 27/16/16
f 27/16/16 11/17/17 28/18/18
f 11/17/17 10/19/19 28/18/18
f 28/18/18 10/19/19 29/20/20
f 10/19/19 9/21/21 29/20/20
f 29/20/20 9/21/21 30/22/22
f 9/21/21 8/23/23 30/22/22
f 30/22/22 8/23/23 31/24/24
f 8/23/23 7/25/25 31/24/24
f 31/24/24 7/25/25 32/26/26
f 7/25/25 6/27/27 32/26/26
f 32/26/26 6/27/27 33/28/28
f 6/27/27 5/29/29 33/28/28
f 33/28/28 5/29/29 34/30/30
f 5/29/29 4/31/31 34/30/30
f 34/30/30 4/31/31 35/32/32
f 4/31/31 3/33/33 35/32/32
f 35/32/32 3/33/33 36/34/34
f 3/33/33 2/35/35 36/34/34
f 36/34/34 2/35/35 37/36/36
f 2/35/35 1/37/37 37/36/36
f 37/36/36 1/37/37 38/38/38
f 1/37/37 20/39/39 38/38/38
f 38/38/38 20/39/39 39/40/40
f 20/39/39 19/41/41 39/40/40
f 39/40/40 19/41/41 40/42/42
f 19/41/41 18/43/43 40/42/42
f 40/42/42 18/43/43 21/4/4
f 18/43/43 17/5/5 21/4/4
f 41/44/44 42/45/45 43/46/46
f 44/47/47 45/48/48 46/49/49
f 47/50/50 48/51/51 49/52/52
f 50/53/53 51/54/54 52/55/55
f 42/56/45 41/57/44 54/58/56
f 41/57/44 53/59/57 54/58/56
f 44/47/47 46/49/49 43/46/46
f 46/49/49 41/44/44 43/46/46
f 46/60/49 45/61/48 56/62/58
f 45/61/48 55/63/59 56/62/58
f 47/50/50 49/52/52 42/45/45
f 49/52/52 43/46/46 42/45/45
f 48/64/51 47/65/50 58/66/60
f 47/65/50 57/67/61 58/66/60
f 50/53/53 52/55/55 44/47/47
f 52/55/55 45/48/48 44/47/47
f 51/54/54 50/53/53 48/51/51
f 50/53/53 49/52/52 48/51/51
f 59/68/62 60/69/63 51/70/54
f 60/69/63 52/71/55 51/70/54
f 57/67/61 47/65/50 54/58/56
f 47/65/50 42/56/45 54/58/56
f 55/63/59 45/61/48 60/69/63
f 45/61/48 52/71/55 60/69/63
f 53/72/57 41/73/44 56/74/58
f 41/73/44 46/75/49 56/74/58
f 32/76/64 33/77/65 44/47/47
f 32/76/64 44/47/47 31/78/66
f 44/47/47 43/46/46 31/78/66
f 31/78/66 43/46/46 30/79/67
f 30/79/67 43/46/46 29/80/68
f 29/80/68 43/46/46 28/81/69
f 28/81/69 43/46/46 27/82/70
f 33/77/65 34/83/71 44/47/47
f 27/82/70 43/46/46 26/84/72
f 34/83/71 35/85/73 44/47/47
f 44/47/47 35/85/73 50/53/53
f 35/85/73 36/86/74 50/53/53
f 36/86/74 37/87/75 50/53/53
f 37/87/75 38/88/76 50/53/53
f 38/88/76 39/89/77 50/53/53
f 39/89/77 40/90/78 50/53/53
f 50/53/53 40/90/78 49/52/52
f 40/90/78 21/91/79 49/52/52
f 21/91/79 22/92/80 49/52/52
f 22/92/80 23/93/81 49/52/52
f 23/93/81 24/94/82 49/52/52
f 24/94/82 25/95/83 49/52/52
f 26/84/72 43/46/46 25/95/83
f 25/95/83 43/46/46 49/52/52
f 59/96/62 51/97/54 58/98/60
f 51/97/54 48/99/51 58/98/60
f 53/100/84 56/101/85 54/102/86
f 55/103/87 60/104/88 56/101/85
f 59/105/89 58/106/85 60/104/88
f 57/107/90 54/102/86 58/106/85
f 56/101/85 60/104/88 54/102/86
f 60/104/88 58/106/85 54/102/86
f 13/108/91 3/109/92 12/110/93
f 3/109/92 4/111/94 12/110/93
f 3/109/92 13/108/91 2/112/95
f 14/113/96 2/112/95 13/108/91
f 2/112/95 14/113/96 1/114/97
f 1/114/97 14/113/96 15/115/98
f 1/114/97 15/115/98 20/116/99
f 15/115/98 16/117/100 20/116/99
f 20/116/99 16/117/100 19/1/1
f 16/117/100 17/2/2 19/1/1
f 12/110/93 4/111/94 11/118/101
f 4/111/94 5/119/102 11/118/101
f 11/118/101 5/119/102 10/120/103
f 5/119/102 6/121/104 10/120/103
f 10/120/103 6/121/104 9/122/105
f 6/121/104 7/123/106 9/122/105
f 9/122/105 7/123/106 8/124/107
