# Blender 5.0.1
# www.blender.org
mtllib ExhaustKompor.mtl
o ExhaustKompor
v -8.168986 1.994756 -4.100242
v -8.168985 1.873676 -5.055120
v -5.676045 1.994756 -4.100242
v -5.676044 1.873676 -5.055120
v -7.155188 3.500755 -5.086417
v -6.692706 3.500755 -4.701984
v -6.692706 3.500755 -5.086417
v -7.155188 3.500755 -4.701984
v -6.692706 2.473658 -5.086417
v -7.155188 2.473658 -5.086417
v -7.155188 2.473658 -4.701984
v -6.692706 2.473658 -4.701984
v -7.396867 2.256517 -4.701651
v -6.754726 2.256517 -4.701650
v -5.678905 1.851061 -4.100241
v -8.168986 1.851062 -4.100242
v -5.678905 1.995513 -4.100241
v -8.168986 1.995513 -4.100242
v -7.396867 2.292966 -4.881279
v -6.754726 2.292966 -4.881278
v -5.678905 1.851061 -4.580573
v -8.168986 1.851062 -4.580574
v -5.678905 1.995513 -4.580573
v -8.168986 1.995513 -4.580574
v -8.198986 1.997698 -4.075628
v -8.193601 2.003426 -4.075082
v -8.193601 1.995676 -4.070242
v -8.197409 2.001678 -4.075355
v -8.196711 1.999712 -4.072403
v -8.193601 2.000247 -4.071547
v -8.197409 1.996197 -4.071933
v -5.654292 2.003426 -4.075080
v -5.648906 1.997698 -4.075627
v -5.654292 1.995675 -4.070241
v -5.650484 2.001677 -4.075354
v -5.651182 1.999712 -4.072402
v -5.650484 1.996197 -4.071932
v -5.654292 2.000247 -4.071545
v -8.198986 1.856448 -4.075628
v -8.193601 1.856448 -4.070242
v -8.193601 1.851062 -4.075628
v -8.197409 1.856448 -4.071820
v -8.196711 1.853338 -4.072519
v -8.193601 1.852639 -4.071820
v -8.197409 1.852639 -4.075628
v -5.648906 1.856447 -4.075627
v -5.654292 1.851061 -4.075627
v -5.654292 1.856447 -4.070241
v -5.650484 1.852639 -4.075627
v -5.651182 1.853338 -4.072517
v -5.654292 1.852639 -4.071818
v -5.650484 1.856447 -4.071818
v -7.389588 2.292966 -5.060906
v -7.396867 2.292966 -5.055175
v -7.394735 2.292966 -5.059227
v -6.754726 2.292966 -5.055174
v -6.762143 2.292966 -5.060905
v -6.756898 2.292966 -5.059227
v -8.185647 1.851062 -5.081032
v -8.193600 1.856448 -5.086418
v -8.198986 1.856448 -5.081032
v -8.193600 1.851062 -5.076002
v -8.189623 1.852639 -5.084841
v -8.195338 1.852629 -5.083196
v -8.197409 1.856448 -5.084841
v -8.197409 1.852639 -5.078517
v -8.191313 1.851062 -5.079519
v -5.662186 1.851061 -5.081031
v -5.654292 1.851061 -5.076001
v -5.648906 1.856448 -5.081031
v -5.654292 1.856448 -5.086417
v -5.656563 1.851061 -5.079519
v -5.652545 1.852629 -5.083195
v -5.650484 1.852639 -5.078516
v -5.650484 1.856448 -5.084839
v -5.658239 1.852639 -5.084839
v -8.193600 2.297048 -5.086418
v -8.198986 2.297048 -5.081032
v -8.197409 2.297048 -5.084841
v -5.648906 2.297048 -5.081031
v -5.654292 2.297048 -5.086417
v -5.650483 2.297048 -5.084839
v -8.198985 2.468272 -5.081032
v -8.193600 2.468272 -5.086418
v -8.193600 2.473658 -5.081032
v -8.197408 2.468272 -5.084841
v -8.196709 2.471382 -5.084142
v -8.193600 2.472080 -5.084841
v -8.197408 2.472080 -5.081032
v -5.654292 2.473658 -5.081031
v -5.654292 2.468272 -5.086417
v -5.648906 2.468272 -5.081031
v -5.654292 2.472080 -5.084839
v -5.651182 2.471381 -5.084141
v -5.650483 2.468272 -5.084839
v -5.650483 2.472080 -5.081031
v -8.198986 2.468272 -4.681525
v -8.193600 2.473658 -4.681525
v -8.193600 2.468272 -4.676139
v -8.197408 2.472080 -4.681525
v -8.196709 2.471382 -4.678415
v -8.193600 2.472080 -4.677717
v -8.197408 2.468272 -4.677717
v -5.654292 2.468272 -4.676137
v -5.654292 2.473658 -4.681524
v -5.648906 2.468272 -4.681524
v -5.654292 2.472080 -4.677715
v -5.651182 2.471381 -4.678414
v -5.650483 2.472080 -4.681524
v -5.650483 2.468272 -4.677715
v -8.193600 2.302434 -4.676139
v -8.193600 2.294684 -4.671299
v -8.198986 2.293685 -4.681525
v -8.193600 2.297933 -4.674722
v -8.196710 2.297040 -4.676153
v -8.197409 2.295187 -4.675922
v -8.197409 2.298060 -4.677716
v -5.648906 2.293684 -4.681524
v -5.654292 2.294684 -4.671298
v -5.654292 2.302434 -4.676137
v -5.650484 2.295186 -4.675921
v -5.651182 2.297039 -4.676151
v -5.654292 2.297933 -4.674720
v -5.650484 2.298059 -4.677715
v -5.685797 1.851061 -5.060905
v -5.678905 1.851061 -5.055118
v -5.680924 1.851061 -5.059210
v -8.168985 1.851062 -5.055120
v -8.162033 1.851062 -5.060906
v -8.166949 1.851062 -5.059211
v -5.685811 1.995513 -5.060905
v -5.678905 1.995513 -5.055161
v -5.680928 1.995513 -5.059222
v -8.168985 1.995513 -5.055162
v -8.162015 1.995513 -5.060906
v -8.166945 1.995513 -5.059224
v -5.648906 1.856447 -4.579510
v -5.654292 1.851061 -4.578732
v -5.650484 1.852639 -4.578793
v -8.193600 1.851062 -4.578733
v -8.198986 1.856448 -4.579512
v -8.197409 1.852639 -4.578794
vn -0.0000 -0.9921 0.1258
vn -0.0000 1.0000 -0.0000
vn -0.0000 -0.0000 -1.0000
vn -0.0000 -1.0000 -0.0000
vn -0.0000 -0.0000 1.0000
vn 1.0000 -0.0000 -0.0000
vn -1.0000 -0.0000 -0.0000
vn -0.0785 -0.9684 -0.2367
vn -0.6025 -0.5122 -0.6121
vn -0.7892 -0.6139 -0.0199
vn -0.1263 -0.9901 -0.0617
vn 0.6067 -0.4991 -0.6187
vn 0.7071 -0.0000 -0.7071
vn -0.7071 -0.0000 -0.7071
vn 0.1152 -0.9666 -0.2289
vn 0.1723 -0.9831 -0.0611
vn 0.8159 -0.5779 -0.0196
vn -0.9598 0.1487 0.2380
vn -0.6899 0.5883 0.4219
vn -0.5743 0.4336 0.6944
vn -0.6899 0.1209 0.7137
vn -0.1861 0.8220 0.5382
vn -0.1734 0.5216 0.8354
vn -0.1861 0.1229 0.9748
vn 0.1861 0.8220 0.5382
vn 0.6899 0.5883 0.4219
vn 0.5742 0.4336 0.6944
vn 0.1734 0.5216 0.8354
vn 0.9598 0.1487 0.2381
vn 0.6899 0.1209 0.7138
vn 0.1861 0.1229 0.9748
vn -0.9670 -0.1794 0.1807
vn -0.6979 -0.1721 0.6953
vn -0.5773 -0.5773 0.5774
vn -0.6965 -0.6965 0.1726
vn -0.1826 -0.1794 0.9667
vn -0.1726 -0.6965 0.6965
vn -0.1794 -0.9673 0.1794
vn 0.9670 -0.1794 0.1807
vn 0.6965 -0.6965 0.1726
vn 0.5773 -0.5773 0.5774
vn 0.6979 -0.1721 0.6953
vn 0.1794 -0.9673 0.1794
vn 0.1726 -0.6965 0.6965
vn 0.1826 -0.1794 0.9667
vn -0.0144 -0.9801 -0.1977
vn -0.0755 -0.7282 -0.6812
vn -0.4180 -0.7729 -0.4775
vn -0.1048 -0.9838 -0.1456
vn -0.2031 -0.2557 -0.9452
vn -0.6721 -0.2855 -0.6832
vn -0.9439 -0.2511 -0.2145
vn -0.6734 -0.7301 -0.1163
vn -0.2007 -0.9790 -0.0362
vn 0.0145 -0.9801 -0.1978
vn 0.1052 -0.9838 -0.1455
vn 0.4189 -0.7725 -0.4773
vn 0.0759 -0.7281 -0.6812
vn 0.2008 -0.9790 -0.0360
vn 0.6736 -0.7299 -0.1161
vn 0.9440 -0.2508 -0.2143
vn 0.6723 -0.2852 -0.6831
vn 0.2032 -0.2553 -0.9453
vn -0.9673 0.1794 -0.1794
vn -0.6965 0.1726 -0.6965
vn -0.5773 0.5773 -0.5774
vn -0.6965 0.6965 -0.1726
vn -0.1794 0.1794 -0.9673
vn -0.1726 0.6965 -0.6965
vn -0.1794 0.9673 -0.1794
vn 0.1794 0.9673 -0.1794
vn 0.1726 0.6965 -0.6965
vn 0.5774 0.5774 -0.5773
vn 0.6965 0.6965 -0.1726
vn 0.1794 0.1794 -0.9673
vn 0.6965 0.1726 -0.6965
vn 0.9673 0.1794 -0.1794
vn -0.9673 0.1794 0.1794
vn -0.6965 0.6965 0.1726
vn -0.5773 0.5773 0.5774
vn -0.6965 0.1726 0.6965
vn -0.1794 0.9673 0.1794
vn -0.1726 0.6965 0.6965
vn -0.1794 0.1794 0.9673
vn 0.1794 0.1794 0.9673
vn 0.1726 0.6965 0.6965
vn 0.5774 0.5773 0.5773
vn 0.6965 0.1726 0.6965
vn 0.1794 0.9673 0.1794
vn 0.6965 0.6965 0.1726
vn 0.9673 0.1794 0.1794
vn -0.2328 0.1251 0.9645
vn -0.3198 0.5018 0.8037
vn -0.7281 0.3630 0.5814
vn -0.8327 0.1354 0.5369
vn -0.2375 0.8106 0.5353
vn -0.8323 0.4236 0.3575
vn -0.9939 0.0587 0.0934
vn 0.9939 0.0587 0.0934
vn 0.8323 0.4236 0.3575
vn 0.7281 0.3630 0.5814
vn 0.8327 0.1354 0.5369
vn 0.2375 0.8106 0.5353
vn 0.3198 0.5018 0.8037
vn 0.2328 0.1251 0.9644
vn -0.1951 -0.0000 -0.9808
vn -0.9808 -0.0000 -0.1951
vn 0.9808 -0.0000 -0.1951
vn 0.1951 -0.0000 -0.9808
vn -0.1951 -0.9808 -0.0000
vn -0.7071 -0.7071 -0.0000
vn -0.9808 -0.1951 -0.0000
vn 0.9808 -0.1951 -0.0000
vn 0.7071 -0.7071 -0.0000
vn 0.1951 -0.9808 -0.0000
vn -0.1659 -0.0000 0.9861
vn -0.1950 -0.3692 0.9086
vn -0.5846 -0.5159 0.6262
vn -0.6609 0.0001 0.7505
vn -0.8046 -0.5641 0.1854
vn -0.9737 -0.0000 0.2280
vn 0.9732 -0.0000 0.2298
vn 0.8280 -0.5272 0.1911
vn 0.6041 -0.4732 0.6412
vn 0.6584 -0.0000 0.7526
vn 0.2016 -0.2932 0.9346
vn 0.1645 -0.0000 0.9864
vn -0.1546 -0.9869 0.0450
vn -0.1467 -0.9366 0.3183
vn -0.0191 -0.7082 0.7057
vn 0.0265 -0.7074 0.7063
vn 0.1862 -0.9047 0.3831
vn 0.2089 -0.9761 0.0600
vt 0.264407 0.773317
vt 0.774310 0.773319
vt 0.774310 0.970192
vt 0.264407 0.970190
vt 0.168576 0.626173
vt 0.168576 0.720768
vt 0.247208 0.720768
vt 0.247208 0.626173
vt 0.476754 0.756427
vt 0.571350 0.546346
vt 0.476754 0.546346
vt 0.571350 0.756427
vt 0.247208 0.815983
vt 0.247208 0.721387
vt 0.168576 0.721387
vt 0.168576 0.815983
vt 0.807027 0.540427
vt 0.712431 0.540427
vt 0.712431 0.750508
vt 0.807027 0.750508
vt 0.089326 0.626173
vt 0.167957 0.836254
vt 0.167957 0.626173
vt 0.089326 0.836254
vt 0.010075 0.836254
vt 0.088707 0.836254
vt 0.088707 0.626173
vt 0.010075 0.626173
vt 0.163350 0.286179
vt 0.039544 0.081051
vt 0.143042 0.045405
vt 0.194728 0.287074
vt 0.048201 0.565417
vt 0.019068 0.576944
vt 0.010075 0.076920
vt 0.127167 0.011098
vt 0.166986 0.415800
vt 0.199834 0.413697
vt 0.151269 0.597171
vt 0.146689 0.625553
vt 0.419223 0.544368
vt 0.416907 0.543337
vt 0.418974 0.543132
vt 0.419727 0.543611
vt 0.511904 0.532242
vt 0.522157 0.536608
vt 0.521450 0.538346
vt 0.520185 0.539686
vt 0.532177 0.538724
vt 0.531987 0.539570
vt 0.531492 0.539700
vt 0.522785 0.538828
vt 0.507286 0.014779
vt 0.507321 0.012073
vt 0.507969 0.011978
vt 0.516492 0.014706
vt 0.680142 0.759836
vt 0.680645 0.760588
vt 0.679865 0.760677
vt 0.677314 0.761229
vt 0.531983 0.018487
vt 0.522776 0.018231
vt 0.525239 0.014587
vt 0.528844 0.011098
vt 0.448373 0.548295
vt 0.448546 0.547470
vt 0.449146 0.547573
vt 0.450335 0.548612
vt 0.562116 0.538358
vt 0.571350 0.538633
vt 0.568641 0.542474
vt 0.565185 0.545727
vt 0.465016 0.749760
vt 0.467000 0.749800
vt 0.466795 0.750430
vt 0.466309 0.750881
vt 0.709255 0.755462
vt 0.711812 0.755030
vt 0.710115 0.756050
vt 0.709449 0.756281
vt 0.456233 0.544542
vt 0.458156 0.543337
vt 0.458573 0.543854
vt 0.458491 0.544514
vt 0.561916 0.018164
vt 0.561984 0.017186
vt 0.563223 0.016921
vt 0.571350 0.018055
vt 0.825763 0.526952
vt 0.834284 0.529531
vt 0.833068 0.532184
vt 0.830782 0.532997
vt 0.581359 0.532189
vt 0.581389 0.533984
vt 0.580831 0.533621
vt 0.571969 0.531892
vt 0.448416 0.746687
vt 0.450335 0.746001
vt 0.449650 0.747621
vt 0.448594 0.748464
vt 0.465495 0.545171
vt 0.465089 0.543522
vt 0.466806 0.543337
vt 0.467437 0.544603
vt 0.827358 0.019645
vt 0.832150 0.011292
vt 0.833688 0.011098
vt 0.834284 0.012750
vt 0.456690 0.749136
vt 0.458894 0.749721
vt 0.457986 0.751000
vt 0.456046 0.750770
vt 0.709185 0.559649
vt 0.709425 0.557292
vt 0.710308 0.557662
vt 0.711812 0.559005
vt 0.581389 0.013259
vt 0.571969 0.013993
vt 0.579264 0.010957
vt 0.581347 0.011204
vt 0.328511 0.761785
vt 0.328777 0.762587
vt 0.328186 0.762749
vt 0.326903 0.762180
vt 0.707660 0.532257
vt 0.716876 0.532556
vt 0.714044 0.536425
vt 0.710579 0.539808
vt 0.791900 0.016142
vt 0.800198 0.011098
vt 0.800818 0.011332
vt 0.801008 0.012038
vt 0.802922 0.532068
vt 0.812181 0.531267
vt 0.811310 0.533763
vt 0.809337 0.536315
vt 0.706656 0.013101
vt 0.706657 0.012255
vt 0.707227 0.012231
vt 0.716078 0.012986
vt 0.591646 0.541627
vt 0.589512 0.541028
vt 0.589933 0.540427
vt 0.590629 0.540510
vt 0.314794 0.679793
vt 0.313190 0.680207
vt 0.313293 0.679422
vt 0.313813 0.678753
vt 0.726852 0.016422
vt 0.717496 0.013462
vt 0.717577 0.012842
vt 0.718500 0.011910
vt 0.322646 0.539694
vt 0.322576 0.540999
vt 0.321006 0.540862
vt 0.313190 0.539687
vt 0.322384 0.018767
vt 0.313190 0.018519
vt 0.316880 0.014708
vt 0.320813 0.011098
vt 0.727109 0.532900
vt 0.727325 0.534825
vt 0.726354 0.534870
vt 0.717496 0.536075
vt 0.574107 0.623186
vt 0.573790 0.623966
vt 0.573161 0.623641
vt 0.571969 0.622560
vt 0.356870 0.539771
vt 0.369339 0.530899
vt 0.370613 0.542717
vt 0.363324 0.542208
vt 0.382800 0.538548
vt 0.378194 0.541963
vt 0.350068 0.671167
vt 0.348803 0.670678
vt 0.348430 0.670543
vt 0.348391 0.668959
vt 0.609863 0.632797
vt 0.607615 0.635313
vt 0.608308 0.633309
vt 0.608722 0.633383
vt 0.379572 0.015517
vt 0.369975 0.017596
vt 0.368400 0.014462
vt 0.369995 0.013399
vt 0.360786 0.018485
vt 0.365322 0.012650
vt 0.855504 0.011098
vt 0.855504 0.533015
vt 0.846343 0.529967
vt 0.846028 0.013712
vt 0.671495 0.532896
vt 0.671427 0.534689
vt 0.361960 0.755363
vt 0.361664 0.753600
vt 0.623083 0.549815
vt 0.623500 0.547477
vt 0.671550 0.011098
vt 0.671571 0.013142
vt 0.466366 0.646865
vt 0.468350 0.646857
vt 0.442655 0.648796
vt 0.440668 0.648889
vt 0.698849 0.655236
vt 0.701435 0.655312
vt 0.459811 0.647476
vt 0.457553 0.647468
vt 0.816241 0.026636
vt 0.819855 0.013183
vt 0.450954 0.745740
vt 0.451378 0.744837
vt 0.460869 0.549482
vt 0.460430 0.548604
vt 0.818864 0.533218
vt 0.812800 0.519917
vt 0.312571 0.052231
vt 0.284737 0.062463
vt 0.279791 0.056105
vt 0.304921 0.040839
vt 0.274189 0.056099
vt 0.297126 0.036148
vt 0.299475 0.594488
vt 0.273758 0.575512
vt 0.277143 0.572646
vt 0.306629 0.588792
vt 0.285223 0.570399
vt 0.312571 0.578958
vt 0.222332 0.273531
vt 0.231115 0.271661
vt 0.234600 0.271320
vt 0.234054 0.405115
vt 0.231690 0.408242
vt 0.229193 0.408858
vt 0.834903 0.520131
vt 0.836833 0.026233
vt 0.460430 0.744649
vt 0.461712 0.646479
vt 0.450954 0.549681
vt 0.452207 0.647855
s 1
usemtl Material_#7
f 1/1/1 2/4/1 4/3/1 3/2/1
f 5/5/2 6/7/2 7/6/2
f 5/5/2 8/8/2 6/7/2
f 7/9/3 9/11/3 10/10/3
f 5/12/3 7/9/3 10/10/3
f 11/13/4 9/15/4 12/14/4
f 10/16/4 9/15/4 11/13/4
f 8/17/5 12/19/5 6/18/5
f 8/17/5 11/20/5 12/19/5
f 12/21/6 9/23/6 7/22/6
f 6/24/6 12/21/6 7/22/6
f 11/25/7 5/27/7 10/26/7
f 8/28/7 5/27/7 11/25/7
f 14/29/8 20/32/11 23/31/10 17/30/9
f 18/33/12 17/30/9 15/35/14 16/34/13
f 23/31/10 21/36/7 15/35/14 17/30/9
f 14/29/8 17/30/9 18/33/12 13/37/15
f 14/29/8 13/37/15 19/38/16 20/32/11
f 13/37/15 18/33/12 24/39/17 19/38/16
f 18/33/12 16/34/13 22/40/6 24/39/17
f 25/41/18 31/44/21 29/43/20 28/42/19
f 26/45/22 28/48/19 29/47/20 30/46/23
f 27/49/24 30/52/23 29/51/20 31/50/21
f 32/53/25 38/56/28 36/55/27 35/54/26
f 33/57/29 35/60/26 36/59/27 37/58/30
f 34/61/31 37/64/30 36/63/27 38/62/28
f 39/65/32 45/68/35 43/67/34 42/66/33
f 40/69/36 42/72/33 43/71/34 44/70/37
f 41/73/38 44/76/37 43/75/34 45/74/35
f 46/77/39 52/80/42 50/79/41 49/78/40
f 47/81/43 49/84/40 50/83/41 51/82/44
f 48/85/45 51/88/44 50/87/41 52/86/42
f 59/89/46 67/92/49 64/91/48 63/90/47
f 60/93/50 63/96/47 64/95/48 65/94/51
f 61/97/52 65/100/51 64/99/48 66/98/53
f 62/101/54 66/104/53 64/103/48 67/102/49
f 68/105/55 76/108/58 73/107/57 72/106/56
f 69/109/59 72/112/56 73/111/57 74/110/60
f 70/113/61 74/116/60 73/115/57 75/114/62
f 71/117/63 75/120/62 73/119/57 76/118/58
f 83/121/64 89/124/67 87/123/66 86/122/65
f 84/125/68 86/128/65 87/127/66 88/126/69
f 85/129/70 88/132/69 87/131/66 89/130/67
f 90/133/71 96/136/74 94/135/73 93/134/72
f 91/137/75 93/140/72 94/139/73 95/138/76
f 92/141/77 95/144/76 94/143/73 96/142/74
f 97/145/78 103/148/81 101/147/80 100/146/79
f 98/149/82 100/152/79 101/151/80 102/150/83
f 99/153/84 102/156/83 101/155/80 103/154/81
f 104/157/85 110/160/88 108/159/87 107/158/86
f 105/161/89 107/164/86 108/163/87 109/162/90
f 106/165/91 109/168/90 108/167/87 110/166/88
f 111/169/92 117/172/95 115/171/94 114/170/93
f 112/173/96 114/170/93 115/171/94 116/174/97
f 113/175/98 116/178/97 115/177/94 117/176/95
f 118/179/99 124/182/102 122/181/101 121/180/100
f 119/183/103 121/186/100 122/185/101 123/184/104
f 120/187/105 123/184/104 122/185/101 124/188/102
f 27/49/24 31/50/21 42/72/33 40/69/36
f 31/44/21 25/41/18 39/65/32 42/66/33
f 26/45/22 30/46/23 38/56/28 32/53/25
f 30/52/23 27/49/24 34/61/31 38/62/28
f 33/57/29 37/58/30 52/80/42 46/77/39
f 37/64/30 34/61/31 48/85/45 52/86/42
f 40/69/36 44/70/37 51/88/44 48/85/45
f 44/189/37 41/192/38 47/191/43 51/190/44
f 59/89/46 63/90/47 76/108/58 68/105/55
f 63/96/47 60/93/50 71/117/63 76/118/58
f 60/93/50 65/94/51 79/194/14 77/193/106
f 65/100/51 61/97/52 78/196/107 79/195/14
f 70/113/61 75/114/62 82/198/13 80/197/108
f 75/120/62 71/117/63 81/200/109 82/199/13
f 77/193/106 79/194/14 86/128/65 84/125/68
f 79/195/14 78/196/107 83/121/64 86/122/65
f 84/125/68 88/126/69 93/140/72 91/137/75
f 88/132/69 85/129/70 90/133/71 93/134/72
f 80/197/108 82/198/13 95/144/76 92/141/77
f 82/199/13 81/200/109 91/137/75 95/138/76
f 85/129/70 89/130/67 100/152/79 98/149/82
f 89/124/67 83/121/64 97/145/78 100/146/79
f 98/149/82 102/150/83 107/164/86 105/161/89
f 102/156/83 99/153/84 104/157/85 107/158/86
f 92/141/77 96/142/74 109/168/90 106/165/91
f 96/136/74 90/133/71 105/161/89 109/162/90
f 99/153/84 103/154/81 117/172/95 111/169/92
f 103/148/81 97/145/78 113/175/98 117/176/95
f 106/165/91 110/166/88 124/182/102 118/179/99
f 110/160/88 104/157/85 120/187/105 124/188/102
f 111/169/92 114/170/93 123/184/104 120/187/105
f 114/170/93 112/173/96 119/183/103 123/184/104
f 25/41/18 28/42/19 116/178/97 113/175/98
f 28/48/19 26/45/22 112/173/96 116/174/97
f 32/53/25 35/54/26 121/186/100 119/183/103
f 35/60/26 33/57/29 118/179/99 121/180/100
f 41/73/38 45/74/35 142/202/111 140/201/110
f 45/68/35 39/65/32 141/204/112 142/203/111
f 46/77/39 49/78/40 139/206/114 137/205/113
f 49/84/40 47/81/43 138/208/115 139/207/114
f 137/205/113 139/206/114 74/116/60 70/113/61
f 139/207/114 138/208/115 69/109/59 74/110/60
f 140/201/110 142/202/111 66/104/53 62/101/54
f 142/203/111 141/204/112 61/97/52 66/98/53
f 68/105/55 72/106/56 127/210/4 125/209/4
f 72/112/56 69/109/59 126/212/4 127/211/4
f 62/101/54 67/102/49 130/214/4 128/213/4
f 67/92/49 59/89/46 129/216/4 130/215/4
f 125/217/116 127/220/119 133/219/118 131/218/117
f 127/220/119 126/222/121 132/221/120 133/219/118
f 128/223/122 130/226/125 136/225/124 134/224/123
f 130/226/125 129/228/127 135/227/126 136/225/124
f 56/229/128 58/230/129 133/219/118 132/221/120
f 58/230/129 57/231/130 131/218/117 133/219/118
f 53/232/131 55/233/132 136/225/124 135/227/126
f 55/233/132 54/234/133 134/224/123 136/225/124
f 34/61/31 27/49/24 40/69/36 48/85/45
f 119/183/103 112/173/96 26/45/22 32/53/25
f 141/204/112 39/65/32 25/41/18 113/175/98
f 46/77/39 137/205/113 118/179/99 33/57/29
f 15/235/4 47/191/43 41/192/38 16/236/4
f 16/237/4 41/73/38 140/201/110 22/238/4
f 15/239/4 21/240/4 138/208/115 47/81/43
f 19/38/16 54/234/133 53/232/131
f 53/232/131 135/227/126 131/218/117 57/231/130
f 19/38/16 24/39/17 134/224/123 54/234/133
f 20/32/11 56/229/128 132/221/120 23/31/10
f 129/216/4 59/89/46 68/105/55 125/209/4
f 71/117/63 60/93/50 77/193/106 81/200/109
f 61/97/52 141/204/112 113/175/98 78/196/107
f 22/238/4 140/201/110 62/101/54 128/213/4
f 137/205/113 70/113/61 80/197/108 118/179/99
f 21/240/4 126/212/4 69/109/59 138/208/115
f 81/200/109 77/193/106 84/125/68 91/137/75
f 78/196/107 113/175/98 97/145/78 83/121/64
f 80/197/108 92/141/77 106/165/91 118/179/99
f 90/133/71 85/129/70 98/149/82 105/161/89
f 104/157/85 99/153/84 111/169/92 120/187/105
f 135/227/126 129/228/127 125/217/116 131/218/117
f 132/221/120 126/222/121 21/36/7 23/31/10
f 24/39/17 22/40/6 128/223/122 134/224/123
f 19/38/16 57/231/130 20/32/11
f 20/32/11 57/231/130 56/229/128
f 56/229/128 57/231/130 58/230/129
f 57/231/130 19/38/16 53/232/131
f 53/232/131 54/234/133 55/233/132
