# Blender 5.0.1
# www.blender.org
mtllib Pisau04.mtl
o Pisau04
v -0.001287 0.204487 0.000662
v -0.001234 0.177947 0.000662
v -0.001260 0.187674 0.013201
v -0.001283 0.202923 0.109798
v 0.000000 0.202856 0.113799
v -0.001235 0.178569 0.002400
v -0.001239 0.179519 0.004537
v -0.001245 0.180859 0.006843
v -0.001250 0.182267 0.008891
v -0.001253 0.183727 0.010909
v 0.000000 0.185272 0.013612
v 0.000000 0.185890 0.017627
v 0.000000 0.185890 0.067464
v 0.000000 0.186199 0.079665
v 0.000000 0.187434 0.091558
v 0.000000 0.190214 0.101134
v 0.000000 0.195517 0.107999
v -0.001263 0.189015 0.017223
v -0.001262 0.189015 0.067422
v -0.001261 0.189105 0.079220
v -0.001264 0.190088 0.091376
v -0.001269 0.192680 0.100404
v -0.001276 0.196827 0.105623
v -0.001287 0.204457 0.002400
v -0.001287 0.204421 0.004537
v -0.001287 0.204382 0.006843
v -0.001286 0.204348 0.008891
v -0.001286 0.204314 0.010909
v -0.001286 0.204275 0.013201
v -0.001286 0.204207 0.017223
v -0.001285 0.203640 0.067422
v -0.001284 0.203440 0.079220
v -0.001284 0.203235 0.091376
v -0.001283 0.203082 0.100404
v -0.001283 0.202994 0.105623
v 0.000000 0.204487 0.000662
v 0.000000 0.177947 0.000662
v 0.000000 0.202923 0.109798
v 0.000000 0.178569 0.002400
v 0.000000 0.179519 0.004537
v 0.000000 0.180859 0.006843
v 0.000000 0.182267 0.008891
v 0.000000 0.183727 0.010909
v 0.000000 0.204457 0.002400
v 0.000000 0.204421 0.004537
v 0.000000 0.204382 0.006843
v 0.000000 0.204348 0.008891
v 0.000000 0.204314 0.010909
v 0.000000 0.204275 0.013201
v 0.000000 0.204207 0.017223
v 0.000000 0.203640 0.067422
v 0.000000 0.203440 0.079220
v 0.000000 0.203235 0.091376
v 0.000000 0.203082 0.100404
v 0.000000 0.202994 0.105623
v 0.001287 0.204487 0.000662
v 0.001234 0.177947 0.000662
v 0.001260 0.187674 0.013201
v 0.001283 0.202923 0.109798
v 0.001235 0.178569 0.002400
v 0.001239 0.179519 0.004537
v 0.001245 0.180859 0.006843
v 0.001250 0.182267 0.008891
v 0.001253 0.183727 0.010909
v 0.001263 0.189015 0.017223
v 0.001262 0.189015 0.067422
v 0.001261 0.189105 0.079220
v 0.001264 0.190088 0.091376
v 0.001269 0.192680 0.100404
v 0.001276 0.196827 0.105623
v 0.001287 0.204457 0.002400
v 0.001287 0.204421 0.004537
v 0.001287 0.204382 0.006843
v 0.001286 0.204348 0.008891
v 0.001286 0.204314 0.010909
v 0.001286 0.204275 0.013201
v 0.001286 0.204207 0.017223
v 0.001285 0.203640 0.067422
v 0.001284 0.203440 0.079220
v 0.001284 0.203235 0.091376
v 0.001283 0.203082 0.100404
v 0.001283 0.202994 0.105623
v 0.004685 0.205979 -0.014607
v -0.004685 0.205979 -0.014607
v 0.004297 0.206655 -0.032439
v -0.004297 0.206655 -0.032439
v 0.004236 0.207260 -0.046813
v -0.004236 0.207260 -0.046813
v 0.004172 0.207591 -0.075068
v -0.004172 0.207591 -0.075068
v 0.004189 0.207465 -0.088188
v -0.004189 0.207465 -0.088188
v 0.004229 0.206938 -0.101123
v -0.004229 0.206938 -0.101123
v 0.004161 0.205554 -0.113883
v -0.004161 0.205554 -0.113883
v 0.004036 0.202868 -0.123034
v -0.004036 0.202868 -0.123034
v 0.004880 0.205642 -0.003480
v 0.004190 0.176676 -0.002444
v -0.004880 0.205642 -0.003480
v -0.004190 0.176676 -0.002444
v 0.004271 0.186910 -0.016010
v -0.004271 0.186910 -0.016010
v 0.003886 0.189612 -0.032211
v -0.003886 0.189612 -0.032211
v 0.003738 0.189167 -0.046860
v -0.003738 0.189167 -0.046860
v 0.003625 0.188111 -0.075852
v -0.003625 0.188111 -0.075852
v 0.003737 0.188976 -0.088799
v -0.003737 0.188976 -0.088799
v 0.003806 0.189495 -0.101963
v -0.003806 0.189495 -0.101963
v 0.003837 0.188682 -0.113331
v -0.003837 0.188682 -0.113331
v 0.003830 0.187431 -0.122686
v -0.003830 0.187431 -0.122686
v 0.003722 0.188941 -0.125904
v -0.003722 0.188941 -0.125904
v 0.003739 0.192493 -0.127422
v -0.003739 0.192493 -0.127422
v 0.003703 0.196686 -0.127592
v -0.003703 0.196686 -0.127592
v 0.003821 0.199995 -0.126249
v -0.003821 0.199995 -0.126249
v 0.004831 0.205726 -0.006262
v 0.004205 0.178851 -0.006084
v -0.004831 0.205726 -0.006262
v -0.004205 0.178851 -0.006084
v 0.004795 0.205789 -0.008348
v 0.004267 0.182392 -0.008761
v -0.004795 0.205789 -0.008348
v -0.004267 0.182392 -0.008761
v 0.004340 0.185144 -0.012203
v 0.004740 0.205884 -0.011477
v -0.004340 0.185144 -0.012203
v -0.004740 0.205884 -0.011477
v 0.005111 0.179712 -0.002509
v -0.005111 0.179712 -0.002509
v 0.005207 0.182751 -0.006094
v -0.005207 0.182751 -0.006094
v 0.005253 0.185968 -0.008796
v -0.005253 0.185968 -0.008796
v 0.005251 0.187767 -0.012014
v -0.005251 0.187767 -0.012014
v 0.005348 0.189635 -0.015311
v -0.005348 0.189635 -0.015311
v 0.005587 0.203192 -0.003103
v -0.005587 0.203192 -0.003103
v 0.005601 0.203358 -0.005840
v -0.005601 0.203358 -0.005840
v 0.005583 0.203525 -0.008196
v -0.005583 0.203525 -0.008196
v 0.005583 0.203725 -0.011363
v -0.005583 0.203725 -0.011363
v 0.005573 0.203915 -0.014376
v -0.005573 0.203915 -0.014376
v 0.004858 0.204382 -0.032235
v -0.004858 0.204382 -0.032235
v 0.004865 0.204820 -0.046770
v -0.004865 0.204820 -0.046770
v 0.004858 0.205589 -0.075055
v -0.004858 0.205589 -0.075055
v 0.004839 0.205603 -0.088193
v -0.004839 0.205603 -0.088193
v 0.004857 0.204882 -0.101098
v -0.004857 0.204882 -0.101098
v 0.004701 0.200512 -0.122843
v 0.004859 0.203081 -0.113713
v -0.004701 0.200512 -0.122843
v -0.004859 0.203081 -0.113713
v 0.004589 0.191611 -0.032152
v -0.004589 0.191611 -0.032152
v 0.004551 0.191286 -0.046668
v -0.004551 0.191286 -0.046668
v 0.004426 0.189935 -0.075754
v -0.004426 0.189935 -0.075754
v 0.004458 0.190778 -0.088739
v -0.004458 0.190778 -0.088739
v 0.004527 0.191429 -0.102038
v -0.004527 0.191429 -0.102038
v 0.004676 0.189587 -0.122706
v 0.004560 0.190693 -0.113132
v -0.004676 0.189587 -0.122706
v -0.004560 0.190693 -0.113132
v 0.004487 0.199032 -0.125093
v -0.004487 0.199032 -0.125093
v 0.004563 0.190513 -0.124922
v -0.004563 0.190513 -0.124922
v 0.004531 0.196842 -0.125505
v -0.004531 0.196842 -0.125505
v 0.004516 0.192547 -0.125599
v -0.004516 0.192547 -0.125599
v 0.004841 0.192724 -0.122733
v -0.004841 0.192724 -0.122733
v 0.004834 0.197354 -0.122692
v -0.004834 0.197354 -0.122692
v 0.004233 0.207422 -0.061945
v -0.004233 0.207422 -0.061945
v 0.004858 0.205354 -0.061976
v -0.004858 0.205354 -0.061976
v 0.003593 0.188098 -0.062299
v 0.004424 0.189944 -0.062141
v -0.003593 0.188098 -0.062299
v -0.004424 0.189944 -0.062141
v 0.004849 0.205188 0.000604
v 0.005031 0.205530 0.000263
v -0.004849 0.205188 0.000604
v -0.005031 0.205530 0.000263
v 0.004033 0.176688 0.000678
v 0.004186 0.176389 0.000348
v -0.004033 0.176688 0.000678
v -0.004186 0.176389 0.000348
v 0.005112 0.179416 0.000330
v 0.004857 0.179381 0.000663
v -0.004857 0.179381 0.000663
v -0.005112 0.179416 0.000330
v 0.005243 0.202974 0.000662
v 0.005505 0.202993 0.000329
v -0.005505 0.202993 0.000329
v -0.005243 0.202974 0.000662
vn -1.0000 -0.0020 0.0003
vn -1.0000 -0.0020 -0.0001
vn -1.0000 -0.0020 -0.0002
vn -0.8673 -0.3677 0.3355
vn -0.9831 -0.1541 0.0989
vn -0.9923 -0.0637 0.1067
vn -0.9204 -0.3880 0.0474
vn -0.9836 -0.1792 0.0220
vn -0.9250 -0.3800 0.0032
vn -0.9808 -0.1948 0.0016
vn -0.9170 -0.3983 0.0229
vn -0.9781 -0.2079 0.0110
vn -0.9061 -0.4161 0.0766
vn -0.9728 -0.2271 0.0447
vn -0.8964 -0.3983 0.1943
vn -0.9667 -0.2254 0.1213
vn -0.9706 -0.1732 0.1672
vn -0.9074 -0.2895 0.3045
vn -0.9614 -0.1645 0.2207
vn -0.9183 -0.2362 0.3175
vn -1.0000 -0.0019 -0.0007
vn -1.0000 -0.0018 -0.0006
vn -1.0000 -0.0017 -0.0004
vn -1.0000 -0.0016 -0.0002
vn -1.0000 -0.0016 -0.0001
vn -1.0000 -0.0016 -0.0000
vn -1.0000 -0.0015 -0.0001
vn -1.0000 -0.0014 -0.0001
vn -1.0000 -0.0012 -0.0000
vn -0.0000 0.9999 0.0169
vn -0.0000 -0.8905 0.4551
vn -0.0000 -0.9283 0.3718
vn -0.0000 -0.8905 0.4550
vn -0.0000 -0.8449 0.5349
vn -0.0000 -0.8450 0.5348
vn -0.0000 -0.8171 0.5765
vn -0.0000 -0.8363 0.5482
vn -0.0000 -0.8404 0.5420
vn -0.0000 -0.8682 0.4962
vn -0.0000 0.9999 0.0141
vn -0.0000 -0.0000 -1.0000
vn -0.0000 -0.9416 0.3367
vn 1.0000 -0.0020 0.0003
vn 1.0000 -0.0020 -0.0002
vn 1.0000 -0.0020 -0.0001
vn 0.8673 -0.3677 0.3355
vn 0.9923 -0.0637 0.1067
vn 0.9831 -0.1541 0.0989
vn 0.9204 -0.3880 0.0474
vn 0.9836 -0.1792 0.0220
vn 0.9250 -0.3800 0.0032
vn 0.9808 -0.1948 0.0016
vn 0.9170 -0.3983 0.0229
vn 0.9781 -0.2079 0.0110
vn 0.9061 -0.4161 0.0766
vn 0.9728 -0.2271 0.0447
vn 0.8964 -0.3983 0.1943
vn 0.9667 -0.2254 0.1213
vn 0.9706 -0.1732 0.1672
vn 0.9074 -0.2895 0.3045
vn 0.9614 -0.1645 0.2207
vn 0.9183 -0.2362 0.3175
vn 1.0000 -0.0019 -0.0007
vn 1.0000 -0.0018 -0.0006
vn 1.0000 -0.0017 -0.0004
vn 1.0000 -0.0016 -0.0002
vn 1.0000 -0.0016 -0.0001
vn 1.0000 -0.0016 -0.0000
vn 1.0000 -0.0015 -0.0001
vn 1.0000 -0.0014 -0.0001
vn 1.0000 -0.0012 -0.0000
vn 0.9768 0.1623 -0.1395
vn 0.9903 0.1353 -0.0323
vn 0.9984 0.0117 -0.0548
vn -0.9768 0.1623 -0.1395
vn -0.9984 0.0117 -0.0548
vn -0.9903 0.1353 -0.0323
vn 0.9988 -0.0242 -0.0421
vn 0.9822 -0.1865 0.0239
vn 0.9713 -0.2294 -0.0623
vn -0.9988 -0.0242 -0.0421
vn -0.9713 -0.2294 -0.0623
vn -0.9822 -0.1865 0.0239
vn 0.9852 0.1712 -0.0111
vn 0.9910 0.1332 -0.0147
vn 0.5992 0.8003 0.0219
vn 0.5734 0.8191 0.0165
vn 0.5638 0.8256 0.0231
vn 0.9846 0.1748 0.0044
vn -0.9852 0.1712 -0.0111
vn -0.5734 0.8191 0.0165
vn -0.5992 0.8003 0.0219
vn -0.9910 0.1332 -0.0147
vn -0.9846 0.1748 0.0044
vn -0.5638 0.8256 0.0231
vn 0.9931 0.1170 0.0020
vn 0.6061 0.7952 0.0208
vn -0.6061 0.7952 0.0208
vn -0.9931 0.1170 0.0020
vn 0.9912 0.1327 0.0012
vn 0.5976 0.8017 0.0099
vn -0.5976 0.8017 0.0099
vn -0.9912 0.1327 0.0012
vn 0.9890 0.1478 0.0001
vn 0.9884 0.1515 -0.0030
vn 0.5807 0.8139 -0.0199
vn 0.5818 0.8134 0.0013
vn -0.9890 0.1478 0.0001
vn -0.5818 0.8134 0.0013
vn -0.5807 0.8139 -0.0199
vn -0.9884 0.1515 -0.0030
vn 0.9900 0.1407 -0.0116
vn 0.5881 0.8064 -0.0617
vn -0.9900 0.1407 -0.0116
vn -0.5881 0.8064 -0.0617
vn 0.5854 0.7943 -0.1627
vn -0.5854 0.7943 -0.1627
vn 0.5568 0.7246 -0.4062
vn -0.5568 0.7246 -0.4062
vn 0.9573 0.1301 -0.2581
vn 0.5194 0.4777 -0.7085
vn -0.5194 0.4777 -0.7085
vn -0.9573 0.1301 -0.2581
vn 0.5880 0.8085 0.0224
vn 0.6028 0.7976 0.0217
vn 0.9927 0.1206 0.0065
vn 0.9895 0.1442 0.0032
vn 0.9799 -0.1442 -0.1379
vn 0.9826 -0.1732 -0.0675
vn 0.5572 -0.7894 -0.2577
vn 0.5459 -0.6315 -0.5507
vn -0.5880 0.8085 0.0224
vn -0.9895 0.1442 0.0032
vn -0.9927 0.1206 0.0065
vn -0.6028 0.7976 0.0217
vn -0.9799 -0.1442 -0.1379
vn -0.5459 -0.6315 -0.5507
vn -0.5572 -0.7894 -0.2577
vn -0.9826 -0.1732 -0.0675
vn 0.5978 -0.6841 -0.4179
vn 0.5942 -0.7646 -0.2497
vn 0.9858 -0.1567 -0.0608
vn 0.9823 -0.1659 -0.0867
vn 0.5880 -0.8062 -0.0653
vn 0.9837 -0.1770 -0.0309
vn -0.5978 -0.6841 -0.4179
vn -0.9823 -0.1659 -0.0867
vn -0.9858 -0.1567 -0.0608
vn -0.5942 -0.7646 -0.2497
vn -0.9837 -0.1770 -0.0309
vn -0.5880 -0.8062 -0.0653
vn 0.5658 -0.8237 0.0379
vn 0.9812 -0.1932 0.0045
vn -0.5658 -0.8237 0.0379
vn -0.9812 -0.1932 0.0045
vn 0.5424 -0.8397 0.0270
vn 0.9756 -0.2196 0.0055
vn -0.9756 -0.2196 0.0055
vn -0.5424 -0.8397 0.0270
vn 0.5434 -0.8391 -0.0263
vn 0.9756 -0.2195 -0.0051
vn 0.9794 -0.2019 -0.0071
vn 0.5623 -0.8259 -0.0414
vn -0.9756 -0.2195 -0.0051
vn -0.5434 -0.8391 -0.0263
vn -0.9794 -0.2019 -0.0071
vn -0.5623 -0.8259 -0.0414
vn 0.9827 -0.1852 0.0059
vn 0.5789 -0.8153 0.0142
vn -0.9827 -0.1852 0.0059
vn -0.5789 -0.8153 0.0142
vn 0.5750 -0.8137 0.0856
vn -0.5750 -0.8137 0.0856
vn 0.5243 -0.8414 -0.1311
vn -0.5243 -0.8414 -0.1311
vn 0.4908 -0.6060 -0.6260
vn 0.9545 -0.1739 -0.2421
vn -0.9545 -0.1739 -0.2421
vn -0.4908 -0.6060 -0.6260
vn 0.5197 -0.1781 -0.8356
vn 0.9608 -0.0556 -0.2716
vn -0.9608 -0.0556 -0.2716
vn -0.5197 -0.1781 -0.8356
vn 0.9650 0.0404 -0.2593
vn 0.5162 0.1367 -0.8455
vn -0.9650 0.0404 -0.2593
vn -0.5162 0.1367 -0.8455
vn 0.9872 0.1593 -0.0002
vn 0.5771 0.8164 0.0226
vn 0.5833 -0.5674 -0.5812
vn 0.9860 -0.1342 -0.0992
vn -0.5771 0.8164 0.0226
vn -0.9872 0.1593 -0.0002
vn -0.9860 -0.1342 -0.0992
vn -0.5833 -0.5674 -0.5812
vn 0.3418 0.3457 0.8739
vn 0.4596 0.0490 0.8868
vn 0.9425 0.0924 0.3212
vn 0.5792 0.7285 0.3658
vn 0.5477 -0.7800 0.3027
vn 0.9415 -0.1473 0.3031
vn 0.4733 -0.0809 0.8772
vn 0.3271 -0.3775 0.8663
vn -0.5792 0.7285 0.3658
vn -0.9425 0.0924 0.3212
vn -0.4596 0.0490 0.8868
vn -0.3418 0.3457 0.8739
vn -0.3271 -0.3775 0.8663
vn -0.4733 -0.0809 0.8772
vn -0.9415 -0.1473 0.3031
vn -0.5477 -0.7800 0.3027
vt 0.372529 0.373241
vt 0.445407 0.373242
vt 0.443691 0.378014
vt 0.372564 0.378015
vt 0.425968 0.409403
vt 0.418524 0.407612
vt 0.429365 0.401291
vt 0.424059 0.419694
vt 0.414801 0.418652
vt 0.426760 0.555976
vt 0.417504 0.556119
vt 0.427694 0.588622
vt 0.418938 0.587946
vt 0.427063 0.620561
vt 0.418968 0.620760
vt 0.423160 0.646590
vt 0.415397 0.645612
vt 0.407421 0.661418
vt 0.413413 0.666912
vt 0.395143 0.677209
vt 0.399691 0.687713
vt 0.441026 0.383872
vt 0.372612 0.383892
vt 0.437295 0.390183
vt 0.372672 0.390247
vt 0.433393 0.395782
vt 0.372733 0.395904
vt 0.372804 0.401490
vt 0.372900 0.407857
vt 0.373161 0.419078
vt 0.377368 0.557450
vt 0.379332 0.590694
vt 0.383152 0.625018
vt 0.387516 0.650685
vt 0.391368 0.665725
vt 0.509900 0.673020
vt 0.506377 0.684007
vt 0.506377 0.673019
vt 0.509879 0.373243
vt 0.509926 0.378043
vt 0.506381 0.378060
vt 0.506381 0.373311
vt 0.509901 0.661554
vt 0.506377 0.661552
vt 0.509918 0.383918
vt 0.506381 0.383922
vt 0.496365 0.479243
vt 0.496352 0.485668
vt 0.492961 0.485661
vt 0.492961 0.479241
vt 0.509915 0.390253
vt 0.506381 0.390255
vt 0.496381 0.471918
vt 0.492961 0.471918
vt 0.509914 0.395879
vt 0.506381 0.395880
vt 0.496394 0.465090
vt 0.492961 0.465094
vt 0.509914 0.401422
vt 0.506381 0.401423
vt 0.496399 0.458246
vt 0.492961 0.458256
vt 0.509914 0.407717
vt 0.506381 0.407716
vt 0.492961 0.449707
vt 0.509913 0.418765
vt 0.506381 0.418763
vt 0.509907 0.556629
vt 0.506379 0.556629
vt 0.509905 0.589034
vt 0.506378 0.589034
vt 0.509903 0.622422
vt 0.506378 0.622421
vt 0.496594 0.373267
vt 0.496592 0.446133
vt 0.493058 0.446146
vt 0.493205 0.373243
vt 0.509902 0.647217
vt 0.506377 0.647216
vt 0.496346 0.490735
vt 0.492961 0.490731
vt 0.429876 0.687713
vt 0.429911 0.682940
vt 0.501038 0.682943
vt 0.502754 0.687714
vt 0.483316 0.651553
vt 0.486713 0.659666
vt 0.475873 0.653344
vt 0.481407 0.641261
vt 0.472150 0.642304
vt 0.484113 0.504979
vt 0.474858 0.504837
vt 0.485048 0.472334
vt 0.476292 0.473009
vt 0.484418 0.440395
vt 0.476323 0.440196
vt 0.480516 0.414366
vt 0.472753 0.415343
vt 0.464777 0.399537
vt 0.470769 0.394043
vt 0.452500 0.383746
vt 0.457048 0.373242
vt 0.429960 0.677063
vt 0.498373 0.677085
vt 0.430020 0.670707
vt 0.494643 0.670773
vt 0.430081 0.665051
vt 0.490742 0.665175
vt 0.430152 0.659465
vt 0.430249 0.653097
vt 0.430510 0.641877
vt 0.434721 0.503504
vt 0.436686 0.470260
vt 0.440507 0.435937
vt 0.444872 0.410269
vt 0.448724 0.395229
vt 0.502854 0.673019
vt 0.502883 0.373243
vt 0.502837 0.378042
vt 0.502853 0.661554
vt 0.502845 0.383918
vt 0.489556 0.479243
vt 0.489569 0.485667
vt 0.502847 0.390253
vt 0.489541 0.471918
vt 0.502848 0.395879
vt 0.489528 0.465090
vt 0.502848 0.401422
vt 0.489523 0.458246
vt 0.502848 0.407717
vt 0.502849 0.418765
vt 0.502850 0.556629
vt 0.502851 0.589034
vt 0.502852 0.622422
vt 0.489816 0.373253
vt 0.489523 0.446118
vt 0.502853 0.647217
vt 0.489575 0.490734
vt 0.903435 0.039532
vt 0.910921 0.088636
vt 0.886658 0.038353
vt 0.631114 0.039532
vt 0.647892 0.038353
vt 0.623629 0.088636
vt 0.862475 0.035117
vt 0.845088 0.085089
vt 0.846016 0.032944
vt 0.672075 0.035117
vt 0.688534 0.032944
vt 0.689462 0.085090
vt 0.910116 0.611573
vt 0.906596 0.517899
vt 0.919287 0.516205
vt 0.922640 0.609208
vt 0.923608 0.625512
vt 0.910722 0.627331
vt 0.624434 0.611573
vt 0.611910 0.609208
vt 0.615263 0.516205
vt 0.627954 0.517899
vt 0.623828 0.627331
vt 0.610942 0.625512
vt 0.907473 0.441583
vt 0.921233 0.441339
vt 0.613317 0.441339
vt 0.627077 0.441583
vt 0.910672 0.361440
vt 0.922563 0.361778
vt 0.611987 0.361778
vt 0.623878 0.361440
vt 0.913208 0.292332
vt 0.915240 0.223064
vt 0.926193 0.223440
vt 0.924959 0.292523
vt 0.621341 0.292332
vt 0.609590 0.292523
vt 0.608356 0.223440
vt 0.619310 0.223064
vt 0.914733 0.155209
vt 0.926563 0.155760
vt 0.619817 0.155209
vt 0.607987 0.155760
vt 0.925034 0.088957
vt 0.609515 0.088957
vt 0.916885 0.039693
vt 0.617664 0.039693
vt 0.897352 0.026703
vt 0.904116 0.020227
vt 0.630434 0.020227
vt 0.637198 0.026703
vt 0.925320 0.653114
vt 0.926101 0.668037
vt 0.912248 0.670730
vt 0.911734 0.656298
vt 0.802578 0.666296
vt 0.789348 0.687203
vt 0.772034 0.692192
vt 0.779743 0.669439
vt 0.609230 0.653114
vt 0.622816 0.656297
vt 0.622302 0.670730
vt 0.608448 0.668037
vt 0.731972 0.666296
vt 0.754807 0.669439
vt 0.762516 0.692192
vt 0.745202 0.687203
vt 0.810241 0.631541
vt 0.817618 0.609852
vt 0.834180 0.613025
vt 0.825743 0.631715
vt 0.826748 0.521269
vt 0.838539 0.521276
vt 0.724309 0.631540
vt 0.708807 0.631715
vt 0.700370 0.613025
vt 0.716931 0.609851
vt 0.696011 0.521276
vt 0.707802 0.521269
vt 0.822344 0.441789
vt 0.835055 0.442775
vt 0.712206 0.441789
vt 0.699496 0.442775
vt 0.817133 0.358531
vt 0.828629 0.359520
vt 0.705921 0.359520
vt 0.717416 0.358531
vt 0.818635 0.285737
vt 0.829903 0.286533
vt 0.836375 0.216911
vt 0.825492 0.216147
vt 0.704646 0.286533
vt 0.715914 0.285736
vt 0.698175 0.216912
vt 0.709058 0.216147
vt 0.843578 0.145309
vt 0.832025 0.144933
vt 0.690972 0.145309
vt 0.702525 0.144933
vt 0.833332 0.082720
vt 0.701217 0.082720
vt 0.833234 0.030999
vt 0.701316 0.030999
vt 0.844054 0.014072
vt 0.852549 0.021968
vt 0.682001 0.021968
vt 0.690496 0.014072
vt 0.864727 0.008472
vt 0.863677 0.019675
vt 0.670872 0.019675
vt 0.669822 0.008472
vt 0.886138 0.023084
vt 0.887294 0.010477
vt 0.648412 0.023084
vt 0.647256 0.010477
vt 0.911373 0.643919
vt 0.924636 0.642008
vt 0.797147 0.651530
vt 0.817892 0.649983
vt 0.609914 0.642008
vt 0.623177 0.643919
vt 0.716658 0.649983
vt 0.737402 0.651530
vt 0.603038 0.114189
vt 0.603143 0.165509
vt 0.543229 0.164258
vt 0.544969 0.114021
vt 0.601686 0.234121
vt 0.540819 0.232252
vt 0.599043 0.303118
vt 0.538777 0.301020
vt 0.596394 0.372947
vt 0.536372 0.370798
vt 0.594338 0.442727
vt 0.533415 0.440673
vt 0.591791 0.522999
vt 0.530775 0.521439
vt 0.590737 0.598935
vt 0.528765 0.598683
vt 0.594511 0.692625
vt 0.527324 0.695053
vt 0.595619 0.708810
vt 0.527647 0.712219
vt 0.597008 0.725003
vt 0.528304 0.729341
vt 0.598123 0.735814
vt 0.528900 0.740710
vt 0.599778 0.750287
vt 0.529903 0.755767
vt 0.931039 0.673993
vt 0.930234 0.651219
vt 0.990700 0.649947
vt 0.991234 0.672316
vt 0.929350 0.627329
vt 0.990744 0.626573
vt 0.928647 0.603611
vt 0.991114 0.603357
vt 0.929181 0.581044
vt 0.990638 0.581230
vt 0.932849 0.493287
vt 0.988811 0.494107
vt 0.935383 0.415151
vt 0.989196 0.416223
vt 0.938172 0.332794
vt 0.989904 0.333833
vt 0.939303 0.260809
vt 0.991520 0.261531
vt 0.939119 0.192169
vt 0.992995 0.191999
vt 0.937627 0.122960
vt 0.992439 0.120899
vt 0.933976 0.063602
vt 0.988858 0.059019
vt 0.928647 0.014246
vt 0.983065 0.008473
vt 0.597025 0.008473
vt 0.597999 0.027528
vt 0.544692 0.030934
vt 0.542306 0.012282
vt 0.599546 0.048442
vt 0.545892 0.051089
vt 0.600279 0.071328
vt 0.547022 0.072892
vt 0.601487 0.090790
vt 0.546510 0.091486
vt 0.732937 0.480394
vt 0.730093 0.492170
vt 0.728277 0.492105
vt 0.731583 0.478624
vt 0.737578 0.633807
vt 0.730903 0.617668
vt 0.732740 0.617761
vt 0.738711 0.632117
vt 0.804004 0.478624
vt 0.807366 0.492133
vt 0.805551 0.492196
vt 0.802658 0.480397
vt 0.796698 0.632149
vt 0.802662 0.617823
vt 0.804498 0.617733
vt 0.797833 0.633837
vt 0.602868 0.769880
vt 0.530975 0.775832
vt 0.926525 0.687961
vt 0.912904 0.688947
vt 0.621646 0.688947
vt 0.608025 0.687961
vt 0.790400 0.702329
vt 0.774798 0.707355
vt 0.931748 0.688985
vt 0.991802 0.687180
vt 0.759751 0.707355
vt 0.744150 0.702329
s 1
usemtl Material
f 1/1/1 2/2/1 6/3/2 24/4/3
f 11/5/4 3/6/5 10/7/6
f 12/8/7 18/9/8 3/6/5 11/5/4
f 13/10/9 19/11/10 18/9/8 12/8/7
f 14/12/11 20/13/12 19/11/10 13/10/9
f 15/14/13 21/15/14 20/13/12 14/12/11
f 16/16/15 22/17/16 21/15/14 15/14/13
f 23/18/17 22/17/16 16/16/15 17/19/18
f 4/20/19 23/18/17 17/19/18 5/21/20
f 24/4/3 6/3/2 7/22/21 25/23/21
f 25/23/21 7/22/21 8/24/22 26/25/22
f 26/25/22 8/24/22 9/26/23 27/27/23
f 27/27/23 9/26/23 10/7/6 28/28/24
f 28/28/24 10/7/6 3/6/5 29/29/25
f 29/29/25 3/6/5 18/9/8 30/30/26
f 30/30/26 18/9/8 19/11/10 31/31/26
f 31/31/26 19/11/10 20/13/12 32/32/26
f 32/32/26 20/13/12 21/15/14 33/33/27
f 33/33/27 21/15/14 22/17/16 34/34/28
f 34/34/28 22/17/16 23/18/17 35/35/29
f 35/35/29 23/18/17 4/20/19
f 4/36/30 5/37/30 38/38/30
f 1/39/30 24/40/30 44/41/30 36/42/30
f 35/43/30 4/36/30 38/38/30 55/44/30
f 24/40/30 25/45/30 45/46/30 44/41/30
f 7/47/31 6/48/32 39/49/32 40/50/33
f 25/45/30 26/51/30 46/52/30 45/46/30
f 8/53/34 7/47/31 40/50/33 41/54/35
f 26/51/30 27/55/30 47/56/30 46/52/30
f 9/57/36 8/53/34 41/54/35 42/58/36
f 27/55/30 28/59/30 48/60/30 47/56/30
f 10/61/37 9/57/36 42/58/36 43/62/38
f 28/59/30 29/63/30 49/64/30 48/60/30
f 11/65/39 10/61/37 43/62/38
f 29/63/30 30/66/40 50/67/40 49/64/30
f 30/66/40 31/68/40 51/69/40 50/67/40
f 31/68/40 32/70/30 52/71/30 51/69/40
f 32/70/30 33/72/30 53/73/30 52/71/30
f 2/74/41 1/75/41 36/76/41 37/77/41
f 33/72/30 34/78/30 54/79/30 53/73/30
f 6/48/32 2/80/42 37/81/42 39/49/32
f 34/78/30 35/43/30 55/44/30 54/79/30
f 56/82/43 71/83/44 60/84/45 57/85/43
f 11/86/46 64/87/47 58/88/48
f 12/89/49 11/86/46 58/88/48 65/90/50
f 13/91/51 12/89/49 65/90/50 66/92/52
f 14/93/53 13/91/51 66/92/52 67/94/54
f 15/95/55 14/93/53 67/94/54 68/96/56
f 16/97/57 15/95/55 68/96/56 69/98/58
f 70/99/59 17/100/60 16/97/57 69/98/58
f 59/101/61 5/102/62 17/100/60 70/99/59
f 71/83/44 72/103/63 61/104/63 60/84/45
f 72/103/63 73/105/64 62/106/64 61/104/63
f 73/105/64 74/107/65 63/108/65 62/106/64
f 74/107/65 75/109/66 64/87/47 63/108/65
f 75/109/66 76/110/67 58/88/48 64/87/47
f 76/110/67 77/111/68 65/90/50 58/88/48
f 77/111/68 78/112/68 66/92/52 65/90/50
f 78/112/68 79/113/68 67/94/54 66/92/52
f 79/113/68 80/114/69 68/96/56 67/94/54
f 80/114/69 81/115/70 69/98/58 68/96/56
f 81/115/70 82/116/71 70/99/59 69/98/58
f 82/116/71 59/101/61 70/99/59
f 59/117/30 38/38/30 5/37/30
f 56/118/30 36/42/30 44/41/30 71/119/30
f 82/120/30 55/44/30 38/38/30 59/117/30
f 71/119/30 44/41/30 45/46/30 72/121/30
f 61/122/31 40/50/33 39/49/32 60/123/32
f 72/121/30 45/46/30 46/52/30 73/124/30
f 62/125/34 41/54/35 40/50/33 61/122/31
f 73/124/30 46/52/30 47/56/30 74/126/30
f 63/127/36 42/58/36 41/54/35 62/125/34
f 74/126/30 47/56/30 48/60/30 75/128/30
f 64/129/37 43/62/38 42/58/36 63/127/36
f 75/128/30 48/60/30 49/64/30 76/130/30
f 11/65/39 43/62/38 64/129/37
f 76/130/30 49/64/30 50/67/40 77/131/40
f 77/131/40 50/67/40 51/69/40 78/132/40
f 78/132/40 51/69/40 52/71/30 79/133/30
f 79/133/30 52/71/30 53/73/30 80/134/30
f 57/135/41 37/77/41 36/76/41 56/136/41
f 80/134/30 53/73/30 54/79/30 81/137/30
f 60/123/32 39/49/32 37/81/42 57/138/42
f 81/137/30 54/79/30 55/44/30 82/120/30
f 169/139/72 170/140/73 197/141/74
f 171/142/75 198/143/76 172/144/77
f 195/145/78 184/146/79 183/147/80
f 196/148/81 185/149/82 186/150/83
f 157/151/84 159/152/85 85/153/86 83/154/87
f 83/154/87 136/155/88 155/156/89 157/151/84
f 158/157/90 84/158/91 86/159/92 160/160/93
f 84/158/91 158/157/90 156/161/94 138/162/95
f 159/152/85 161/163/96 87/164/97 85/153/86
f 160/160/93 86/159/92 88/165/98 162/166/99
f 161/163/96 201/167/100 199/168/101 87/164/97
f 162/166/99 88/165/98 200/169/102 202/170/103
f 163/171/104 165/172/105 91/173/106 89/174/107
f 89/174/107 199/168/101 201/167/100 163/171/104
f 164/175/108 90/176/109 92/177/110 166/178/111
f 90/176/109 164/175/108 202/170/103 200/169/102
f 167/179/112 93/180/113 91/173/106 165/172/105
f 168/181/114 166/178/111 92/177/110 94/182/115
f 93/180/113 167/179/112 170/140/73 95/183/116
f 94/182/115 96/184/117 172/144/77 168/181/114
f 95/183/116 170/140/73 169/139/72 97/185/118
f 96/184/117 98/186/119 171/142/75 172/144/77
f 97/185/118 169/139/72 187/187/120 125/188/121
f 98/186/119 126/189/122 188/190/123 171/142/75
f 127/191/124 99/192/125 149/193/126 151/194/127
f 141/195/128 139/196/129 100/197/130 128/198/131
f 129/199/132 152/200/133 150/201/134 101/202/135
f 142/203/136 130/204/137 102/205/138 140/206/139
f 135/207/140 103/208/141 147/209/142 145/210/143
f 147/209/142 103/208/141 105/211/144 173/212/145
f 137/213/146 146/214/147 148/215/148 104/216/149
f 148/215/148 174/217/150 106/218/151 104/216/149
f 107/219/152 175/220/153 173/212/145 105/211/144
f 108/221/154 106/218/151 174/217/150 176/222/155
f 175/220/153 107/219/152 203/223/156 204/224/157
f 176/222/155 206/225/158 205/226/159 108/221/154
f 204/224/157 203/223/156 109/227/160 177/228/161
f 179/229/162 177/228/161 109/227/160 111/230/163
f 206/225/158 178/231/164 110/232/165 205/226/159
f 180/233/166 112/234/167 110/232/165 178/231/164
f 181/235/168 179/229/162 111/230/163 113/236/169
f 182/237/170 114/238/171 112/234/167 180/233/166
f 115/239/172 184/146/79 181/235/168 113/236/169
f 116/240/173 114/238/171 182/237/170 186/150/83
f 184/146/79 115/239/172 117/241/174 183/147/80
f 186/150/83 185/149/82 118/242/175 116/240/173
f 117/241/174 119/243/176 189/244/177 183/147/80
f 118/242/175 185/149/82 190/245/178 120/246/179
f 119/243/176 121/247/180 193/248/181 189/244/177
f 120/246/179 190/245/178 194/249/182 122/250/183
f 191/251/184 193/248/181 121/247/180 123/252/185
f 192/253/186 124/254/187 122/250/183 194/249/182
f 123/252/185 125/188/121 187/187/120 191/251/184
f 124/254/187 192/253/186 188/190/123 126/189/122
f 151/194/127 153/255/188 131/256/189 127/191/124
f 128/198/131 132/257/190 143/258/191 141/195/128
f 152/200/133 129/199/132 133/259/192 154/260/193
f 130/204/137 142/203/136 144/261/194 134/262/195
f 153/255/188 155/156/89 136/155/88 131/256/189
f 132/257/190 135/207/140 145/210/143 143/258/191
f 154/260/193 133/259/192 138/162/95 156/161/94
f 134/262/195 144/261/194 146/214/147 137/213/146
f 139/196/129 141/195/128 151/194/127 149/193/126
f 140/206/139 150/201/134 152/200/133 142/203/136
f 141/195/128 143/258/191 153/255/188 151/194/127
f 142/203/136 152/200/133 154/260/193 144/261/194
f 143/258/191 145/210/143 155/156/89 153/255/188
f 144/261/194 154/260/193 156/161/94 146/214/147
f 145/210/143 147/209/142 157/151/84 155/156/89
f 146/214/147 156/161/94 158/157/90 148/215/148
f 147/209/142 173/212/145 159/152/85 157/151/84
f 148/215/148 158/157/90 160/160/93 174/217/150
f 161/163/96 159/152/85 173/212/145 175/220/153
f 162/166/99 176/222/155 174/217/150 160/160/93
f 204/224/157 201/167/100 161/163/96 175/220/153
f 206/225/158 176/222/155 162/166/99 202/170/103
f 163/171/104 177/228/161 179/229/162 165/172/105
f 164/175/108 166/178/111 180/233/166 178/231/164
f 165/172/105 179/229/162 181/235/168 167/179/112
f 166/178/111 168/181/114 182/237/170 180/233/166
f 167/179/112 181/235/168 184/146/79 170/140/73
f 168/181/114 172/144/77 186/150/83 182/237/170
f 169/139/72 197/141/74 191/251/184 187/187/120
f 170/140/73 184/146/79 195/145/78 197/141/74
f 171/142/75 188/190/123 192/253/186 198/143/76
f 172/144/77 198/143/76 196/148/81 186/150/83
f 183/147/80 189/244/177 193/248/181 195/145/78
f 185/149/82 196/148/81 194/249/182 190/245/178
f 177/228/161 163/171/104 201/167/100 204/224/157
f 178/231/164 206/225/158 202/170/103 164/175/108
f 197/141/74 195/145/78 193/248/181 191/251/184
f 198/143/76 192/253/186 194/249/182 196/148/81
f 98/263/119 96/264/117 95/265/116 97/266/118
f 96/264/117 94/267/115 93/268/113 95/265/116
f 94/267/115 92/269/110 91/270/106 93/268/113
f 92/269/110 90/271/109 89/272/107 91/270/106
f 90/271/109 200/273/102 199/274/101 89/272/107
f 200/273/102 88/275/98 87/276/97 199/274/101
f 88/275/98 86/277/92 85/278/86 87/276/97
f 86/277/92 84/279/91 83/280/87 85/278/86
f 84/279/91 138/281/95 136/282/88 83/280/87
f 138/281/95 133/283/192 131/284/189 136/282/88
f 133/283/192 129/285/132 127/286/124 131/284/189
f 129/285/132 101/287/135 99/288/125 127/286/124
f 102/289/138 130/290/137 128/291/131 100/292/130
f 130/290/137 134/293/195 132/294/190 128/291/131
f 134/293/195 137/295/146 135/296/140 132/294/190
f 137/295/146 104/297/149 103/298/141 135/296/140
f 104/297/149 106/299/151 105/300/144 103/298/141
f 106/299/151 108/301/154 107/302/152 105/300/144
f 108/301/154 205/303/159 203/304/156 107/302/152
f 205/303/159 110/305/165 109/306/160 203/304/156
f 110/305/165 112/307/167 111/308/163 109/306/160
f 112/307/167 114/309/171 113/310/169 111/308/163
f 114/309/171 116/311/173 115/312/172 113/310/169
f 116/311/173 118/313/175 117/314/174 115/312/172
f 118/315/175 120/316/179 119/317/176 117/318/174
f 120/316/179 122/319/183 121/320/180 119/317/176
f 122/319/183 124/321/187 123/322/185 121/320/180
f 124/321/187 126/323/122 125/324/121 123/322/185
f 126/323/122 98/263/119 97/266/118 125/324/121
f 207/325/196 219/326/197 220/327/198 208/328/199
f 212/329/200 215/330/201 216/331/202 211/332/203
f 210/333/204 221/334/205 222/335/206 209/336/207
f 213/337/208 217/338/209 218/339/210 214/340/211
f 215/330/201 220/327/198 219/326/197 216/331/202
f 217/338/209 222/335/206 221/334/205 218/339/210
f 209/336/207 207/325/196 208/328/199 210/333/204
f 211/332/203 213/337/208 214/340/211 212/329/200
f 101/287/135 210/341/204 208/342/199 99/288/125
f 99/192/125 208/343/199 220/344/198 149/193/126
f 209/336/207 222/335/206 219/326/197 207/325/196
f 101/202/135 150/201/134 221/345/205 210/346/204
f 217/338/209 213/337/208 211/332/203 216/331/202
f 139/196/129 215/347/201 212/348/200 100/197/130
f 214/349/211 102/289/138 100/292/130 212/350/200
f 140/206/139 102/205/138 214/351/211 218/352/210
f 215/347/201 139/196/129 149/193/126 220/344/198
f 222/335/206 217/338/209 216/331/202 219/326/197
f 218/352/210 221/345/205 150/201/134 140/206/139
