# Blender 5.0.1
# www.blender.org
mtllib Pisau02.mtl
o Pisau02
v -0.001908 0.103463 0.045985
v -0.001908 0.104621 0.000662
v -0.001844 0.078612 0.000662
v -0.001908 0.104042 0.024299
v -0.001833 0.074021 0.002566
v 0.000000 0.068007 0.003407
v -0.001908 0.102883 0.067671
v -0.001908 0.102883 0.084756
v -0.001865 0.086066 0.150017
v 0.000000 0.070006 0.084756
v 0.000000 0.082987 0.154417
v 0.000000 0.069125 0.067671
v -0.001837 0.074854 0.084756
v -0.001835 0.074103 0.067671
v 0.000000 0.068007 0.024299
v -0.001832 0.073621 0.045985
v -0.001832 0.073320 0.024299
v 0.000000 0.068586 0.045985
v -0.001908 0.102883 0.101916
v -0.001902 0.100735 0.120172
v 0.000000 0.072579 0.120172
v 0.000000 0.070780 0.101916
v -0.001839 0.075707 0.101916
v -0.001842 0.077310 0.120172
v -0.001897 0.098554 0.129442
v -0.001887 0.094698 0.137687
v 0.000000 0.076295 0.137687
v 0.000000 0.074010 0.129442
v -0.001844 0.078594 0.129442
v -0.001849 0.081123 0.137687
v -0.001846 0.078100 0.024299
v -0.001846 0.078237 0.045985
v -0.001849 0.078522 0.067671
v -0.001850 0.079133 0.084756
v -0.001852 0.081294 0.120172
v -0.001851 0.079828 0.101916
v -0.001858 0.084583 0.137687
v -0.001854 0.082304 0.129442
v -0.001871 0.088446 0.146617
v 0.000000 0.103463 0.045985
v 0.000000 0.104621 0.000662
v 0.000000 0.078612 0.000662
v 0.000000 0.104042 0.024299
v 0.000000 0.074021 0.002566
v 0.000000 0.102883 0.067671
v 0.000000 0.102883 0.084756
v 0.000000 0.086066 0.150017
v 0.000000 0.102883 0.101916
v 0.000000 0.100735 0.120172
v 0.000000 0.098554 0.129442
v 0.000000 0.094698 0.137687
v 0.000000 0.088446 0.146617
v 0.001908 0.103463 0.045985
v 0.001908 0.104621 0.000662
v 0.001844 0.078612 0.000662
v 0.001908 0.104042 0.024299
v 0.001833 0.074021 0.002566
v 0.001908 0.102883 0.067671
v 0.001908 0.102883 0.084756
v 0.001865 0.086066 0.150017
v 0.001837 0.074854 0.084756
v 0.001835 0.074103 0.067671
v 0.001832 0.073621 0.045985
v 0.001832 0.073320 0.024299
v 0.001908 0.102883 0.101916
v 0.001902 0.100735 0.120172
v 0.001839 0.075707 0.101916
v 0.001842 0.077310 0.120172
v 0.001897 0.098554 0.129442
v 0.001887 0.094698 0.137687
v 0.001844 0.078594 0.129442
v 0.001849 0.081123 0.137687
v 0.001846 0.078100 0.024299
v 0.001846 0.078237 0.045985
v 0.001849 0.078522 0.067671
v 0.001850 0.079133 0.084756
v 0.001852 0.081294 0.120172
v 0.001851 0.079828 0.101916
v 0.001858 0.084583 0.137687
v 0.001854 0.082304 0.129442
v 0.001871 0.088446 0.146617
v 0.004685 0.106215 -0.014607
v -0.004685 0.106215 -0.014607
v 0.004297 0.106891 -0.032439
v -0.004297 0.106891 -0.032439
v 0.004236 0.107496 -0.046813
v -0.004236 0.107496 -0.046813
v 0.004172 0.107827 -0.075068
v -0.004172 0.107827 -0.075068
v 0.004189 0.107701 -0.088188
v -0.004189 0.107701 -0.088188
v 0.004229 0.107174 -0.101123
v -0.004229 0.107174 -0.101123
v 0.004161 0.105790 -0.113883
v -0.004161 0.105790 -0.113883
v 0.004036 0.103104 -0.123034
v -0.004036 0.103104 -0.123034
v 0.004880 0.105878 -0.003480
v 0.004190 0.076912 -0.002444
v -0.004880 0.105878 -0.003480
v -0.004190 0.076912 -0.002444
v 0.004271 0.087147 -0.016010
v -0.004271 0.087147 -0.016010
v 0.003886 0.089848 -0.032211
v -0.003886 0.089848 -0.032211
v 0.003738 0.089403 -0.046860
v -0.003738 0.089403 -0.046860
v 0.003625 0.088347 -0.075852
v -0.003625 0.088347 -0.075852
v 0.003737 0.089212 -0.088799
v -0.003737 0.089212 -0.088799
v 0.003806 0.089731 -0.101963
v -0.003806 0.089731 -0.101963
v 0.003837 0.088918 -0.113331
v -0.003837 0.088918 -0.113331
v 0.003830 0.087667 -0.122686
v -0.003830 0.087667 -0.122686
v 0.003722 0.089177 -0.125904
v -0.003722 0.089177 -0.125904
v 0.003739 0.092729 -0.127422
v -0.003739 0.092729 -0.127422
v 0.003703 0.096922 -0.127592
v -0.003703 0.096922 -0.127592
v 0.003821 0.100231 -0.126249
v -0.003821 0.100231 -0.126249
v 0.004831 0.105962 -0.006262
v 0.004205 0.079087 -0.006084
v -0.004831 0.105962 -0.006262
v -0.004205 0.079087 -0.006084
v 0.004795 0.106025 -0.008348
v 0.004267 0.082628 -0.008761
v -0.004795 0.106025 -0.008348
v -0.004267 0.082628 -0.008761
v 0.004340 0.085380 -0.012203
v 0.004740 0.106120 -0.011477
v -0.004340 0.085380 -0.012203
v -0.004740 0.106120 -0.011477
v 0.005111 0.079948 -0.002509
v -0.005111 0.079948 -0.002509
v 0.005207 0.082987 -0.006094
v -0.005207 0.082987 -0.006094
v 0.005253 0.086204 -0.008796
v -0.005253 0.086204 -0.008796
v 0.005251 0.088003 -0.012014
v -0.005251 0.088003 -0.012014
v 0.005348 0.089871 -0.015311
v -0.005348 0.089871 -0.015311
v 0.005587 0.103428 -0.003103
v -0.005587 0.103428 -0.003103
v 0.005601 0.103594 -0.005840
v -0.005601 0.103594 -0.005840
v 0.005583 0.103761 -0.008196
v -0.005583 0.103761 -0.008196
v 0.005583 0.103961 -0.011363
v -0.005583 0.103961 -0.011363
v 0.005573 0.104151 -0.014376
v -0.005573 0.104151 -0.014376
v 0.004858 0.104618 -0.032235
v -0.004858 0.104618 -0.032235
v 0.004865 0.105056 -0.046770
v -0.004865 0.105056 -0.046770
v 0.004858 0.105825 -0.075055
v -0.004858 0.105825 -0.075055
v 0.004839 0.105839 -0.088193
v -0.004839 0.105839 -0.088193
v 0.004857 0.105118 -0.101098
v -0.004857 0.105118 -0.101098
v 0.004701 0.100748 -0.122843
v 0.004859 0.103317 -0.113713
v -0.004701 0.100748 -0.122843
v -0.004859 0.103317 -0.113713
v 0.004589 0.091847 -0.032152
v -0.004589 0.091847 -0.032152
v 0.004551 0.091522 -0.046668
v -0.004551 0.091522 -0.046668
v 0.004426 0.090171 -0.075754
v -0.004426 0.090171 -0.075754
v 0.004458 0.091014 -0.088739
v -0.004458 0.091014 -0.088739
v 0.004527 0.091665 -0.102038
v -0.004527 0.091665 -0.102038
v 0.004676 0.089823 -0.122706
v 0.004560 0.090929 -0.113132
v -0.004676 0.089823 -0.122706
v -0.004560 0.090929 -0.113132
v 0.004487 0.099268 -0.125093
v -0.004487 0.099268 -0.125093
v 0.004563 0.090749 -0.124922
v -0.004563 0.090749 -0.124922
v 0.004531 0.097079 -0.125505
v -0.004531 0.097079 -0.125505
v 0.004516 0.092783 -0.125599
v -0.004516 0.092783 -0.125599
v 0.004841 0.092960 -0.122733
v -0.004841 0.092960 -0.122733
v 0.004834 0.097590 -0.122692
v -0.004834 0.097590 -0.122692
v 0.004233 0.107658 -0.061945
v -0.004233 0.107658 -0.061945
v 0.004858 0.105590 -0.061976
v -0.004858 0.105590 -0.061976
v 0.003593 0.088334 -0.062299
v 0.004424 0.090180 -0.062141
v -0.003593 0.088334 -0.062299
v -0.004424 0.090180 -0.062141
v 0.004849 0.105424 0.000604
v 0.005031 0.105766 0.000263
v -0.004849 0.105424 0.000604
v -0.005031 0.105766 0.000263
v 0.004033 0.076924 0.000678
v 0.004186 0.076625 0.000348
v -0.004033 0.076924 0.000678
v -0.004186 0.076625 0.000348
v 0.005112 0.079652 0.000330
v 0.004857 0.079617 0.000663
v -0.004857 0.079617 0.000663
v -0.005112 0.079652 0.000330
v 0.005243 0.103210 0.000662
v 0.005505 0.103229 0.000329
v -0.005505 0.103229 0.000329
v -0.005243 0.103210 0.000662
vn -0.9861 -0.1664 0.0004
vn -0.9471 -0.3210 0.0008
vn -0.9408 -0.3388 0.0074
vn -0.9847 -0.1740 0.0038
vn -0.9914 -0.1305 -0.0022
vn -0.9513 -0.3082 -0.0050
vn -0.9378 -0.3470 0.0123
vn -0.9838 -0.1790 0.0063
vn -0.9362 -0.3510 0.0167
vn -0.9836 -0.1802 0.0085
vn -1.0000 -0.0025 -0.0001
vn -1.0000 -0.0026 -0.0000
vn -1.0000 -0.0027 -0.0000
vn -1.0000 -0.0026 0.0001
vn -1.0000 -0.0025 0.0001
vn -1.0000 -0.0025 -0.0000
vn -1.0000 -0.0027 0.0001
vn -0.9315 -0.3613 0.0426
vn -0.9818 -0.1884 0.0228
vn -0.9829 -0.1835 0.0130
vn -0.9350 -0.3539 0.0245
vn -1.0000 -0.0028 -0.0000
vn -0.9252 -0.3600 0.1201
vn -0.9798 -0.1887 0.0665
vn -0.9795 -0.1963 0.0444
vn -0.9276 -0.3657 0.0764
vn -0.9641 -0.2466 0.0980
vn -1.0000 -0.0028 -0.0002
vn -0.9240 -0.3551 0.1417
vn -1.0000 -0.0024 -0.0000
vn -1.0000 -0.0024 -0.0001
vn -0.0000 0.8658 0.5004
vn -0.0000 0.8192 0.5735
vn -0.0000 -0.1384 -0.9904
vn -0.0000 -0.2756 -0.9613
vn -0.0000 -0.2629 -0.9648
vn -0.0000 0.9849 0.1732
vn -0.0000 0.9447 0.3280
vn -0.0000 0.9446 0.3281
vn -0.0000 0.9849 0.1733
vn -0.0000 0.9999 0.0134
vn -0.0000 1.0000 -0.0000
vn -0.0000 -0.1950 -0.9808
vn -0.0000 -0.0000 -1.0000
vn -0.0000 -0.1953 -0.9807
vn -0.0000 0.9996 0.0267
vn -0.0000 0.9983 0.0585
vn -0.0000 0.9997 0.0256
vn -0.0000 0.9997 0.0245
vn 0.9861 -0.1664 0.0004
vn 0.9847 -0.1740 0.0038
vn 0.9408 -0.3388 0.0074
vn 0.9471 -0.3210 0.0008
vn 0.9914 -0.1305 -0.0022
vn 0.9513 -0.3082 -0.0050
vn 0.9838 -0.1790 0.0063
vn 0.9378 -0.3470 0.0123
vn 0.9836 -0.1802 0.0085
vn 0.9362 -0.3510 0.0167
vn 1.0000 -0.0025 -0.0001
vn 1.0000 -0.0026 -0.0000
vn 1.0000 -0.0027 -0.0000
vn 1.0000 -0.0026 0.0001
vn 1.0000 -0.0027 0.0001
vn 1.0000 -0.0025 -0.0000
vn 1.0000 -0.0025 0.0001
vn 0.9315 -0.3613 0.0426
vn 0.9350 -0.3539 0.0245
vn 0.9829 -0.1835 0.0130
vn 0.9818 -0.1884 0.0228
vn 1.0000 -0.0028 -0.0000
vn 0.9252 -0.3600 0.1201
vn 0.9276 -0.3657 0.0764
vn 0.9795 -0.1963 0.0444
vn 0.9798 -0.1887 0.0665
vn 1.0000 -0.0028 -0.0002
vn 0.9641 -0.2466 0.0980
vn 0.9240 -0.3551 0.1417
vn 1.0000 -0.0024 -0.0000
vn 1.0000 -0.0024 -0.0001
vn 0.9768 0.1623 -0.1395
vn 0.9903 0.1353 -0.0323
vn 0.9984 0.0117 -0.0548
vn -0.9768 0.1623 -0.1395
vn -0.9984 0.0117 -0.0548
vn -0.9903 0.1353 -0.0323
vn 0.9988 -0.0242 -0.0421
vn 0.9822 -0.1865 0.0239
vn 0.9713 -0.2294 -0.0623
vn -0.9988 -0.0242 -0.0421
vn -0.9713 -0.2294 -0.0623
vn -0.9822 -0.1865 0.0239
vn 0.9852 0.1712 -0.0111
vn 0.9910 0.1332 -0.0147
vn 0.5992 0.8003 0.0219
vn 0.5734 0.8191 0.0165
vn 0.5638 0.8256 0.0231
vn 0.9846 0.1748 0.0044
vn -0.9852 0.1712 -0.0111
vn -0.5734 0.8191 0.0165
vn -0.5992 0.8003 0.0219
vn -0.9910 0.1332 -0.0147
vn -0.9846 0.1748 0.0044
vn -0.5638 0.8256 0.0231
vn 0.9931 0.1170 0.0020
vn 0.6061 0.7952 0.0208
vn -0.6061 0.7952 0.0208
vn -0.9931 0.1170 0.0020
vn 0.9912 0.1327 0.0012
vn 0.5976 0.8017 0.0099
vn -0.5976 0.8017 0.0099
vn -0.9912 0.1327 0.0012
vn 0.9890 0.1478 0.0001
vn 0.9884 0.1515 -0.0030
vn 0.5807 0.8139 -0.0199
vn 0.5818 0.8134 0.0013
vn -0.9890 0.1478 0.0001
vn -0.5818 0.8134 0.0013
vn -0.5807 0.8139 -0.0199
vn -0.9884 0.1515 -0.0030
vn 0.9900 0.1407 -0.0116
vn 0.5881 0.8064 -0.0617
vn -0.9900 0.1407 -0.0116
vn -0.5881 0.8064 -0.0617
vn 0.5854 0.7943 -0.1627
vn -0.5854 0.7943 -0.1627
vn 0.5568 0.7246 -0.4062
vn -0.5568 0.7246 -0.4062
vn 0.9573 0.1301 -0.2581
vn 0.5194 0.4777 -0.7085
vn -0.5194 0.4777 -0.7085
vn -0.9573 0.1301 -0.2581
vn 0.5880 0.8085 0.0224
vn 0.6028 0.7976 0.0217
vn 0.9927 0.1206 0.0065
vn 0.9895 0.1442 0.0032
vn 0.9799 -0.1442 -0.1379
vn 0.9826 -0.1732 -0.0675
vn 0.5572 -0.7894 -0.2577
vn 0.5459 -0.6315 -0.5507
vn -0.5880 0.8085 0.0224
vn -0.9895 0.1442 0.0032
vn -0.9927 0.1206 0.0065
vn -0.6028 0.7976 0.0217
vn -0.9799 -0.1442 -0.1379
vn -0.5459 -0.6315 -0.5507
vn -0.5572 -0.7894 -0.2577
vn -0.9826 -0.1732 -0.0675
vn 0.5978 -0.6841 -0.4179
vn 0.5942 -0.7646 -0.2497
vn 0.9858 -0.1567 -0.0608
vn 0.9823 -0.1659 -0.0867
vn 0.5880 -0.8062 -0.0653
vn 0.9837 -0.1770 -0.0309
vn -0.5978 -0.6841 -0.4179
vn -0.9823 -0.1659 -0.0867
vn -0.9858 -0.1567 -0.0608
vn -0.5942 -0.7646 -0.2497
vn -0.9837 -0.1770 -0.0309
vn -0.5880 -0.8062 -0.0653
vn 0.5658 -0.8237 0.0379
vn 0.9812 -0.1932 0.0045
vn -0.5658 -0.8237 0.0379
vn -0.9812 -0.1932 0.0045
vn 0.5424 -0.8397 0.0270
vn 0.9756 -0.2196 0.0055
vn -0.9756 -0.2196 0.0055
vn -0.5424 -0.8397 0.0270
vn 0.5434 -0.8391 -0.0263
vn 0.9756 -0.2195 -0.0051
vn 0.9794 -0.2019 -0.0071
vn 0.5623 -0.8259 -0.0414
vn -0.9756 -0.2195 -0.0051
vn -0.5434 -0.8391 -0.0263
vn -0.9794 -0.2019 -0.0071
vn -0.5623 -0.8259 -0.0414
vn 0.9827 -0.1852 0.0059
vn 0.5789 -0.8153 0.0142
vn -0.9827 -0.1852 0.0059
vn -0.5789 -0.8153 0.0142
vn 0.5750 -0.8137 0.0856
vn -0.5750 -0.8137 0.0856
vn 0.5243 -0.8414 -0.1311
vn -0.5243 -0.8414 -0.1311
vn 0.4908 -0.6060 -0.6260
vn 0.9545 -0.1739 -0.2421
vn -0.9545 -0.1739 -0.2421
vn -0.4908 -0.6060 -0.6260
vn 0.5197 -0.1781 -0.8356
vn 0.9608 -0.0556 -0.2716
vn -0.9608 -0.0556 -0.2716
vn -0.5197 -0.1781 -0.8356
vn 0.9650 0.0404 -0.2593
vn 0.5162 0.1367 -0.8455
vn -0.9650 0.0404 -0.2593
vn -0.5162 0.1367 -0.8455
vn 0.9872 0.1593 -0.0002
vn 0.5771 0.8164 0.0226
vn 0.5833 -0.5674 -0.5812
vn 0.9860 -0.1342 -0.0992
vn -0.5771 0.8164 0.0226
vn -0.9872 0.1593 -0.0002
vn -0.9860 -0.1342 -0.0992
vn -0.5833 -0.5674 -0.5812
vn 0.3418 0.3457 0.8739
vn 0.4596 0.0490 0.8868
vn 0.9425 0.0924 0.3212
vn 0.5792 0.7285 0.3658
vn 0.5477 -0.7800 0.3027
vn 0.9415 -0.1473 0.3031
vn 0.4733 -0.0809 0.8772
vn 0.3271 -0.3775 0.8663
vn -0.5792 0.7285 0.3658
vn -0.9425 0.0924 0.3212
vn -0.4596 0.0490 0.8868
vn -0.3418 0.3457 0.8739
vn -0.3271 -0.3775 0.8663
vn -0.4733 -0.0809 0.8772
vn -0.9415 -0.1473 0.3031
vn -0.5477 -0.7800 0.3027
vt 0.405615 0.155431
vt 0.405729 0.170873
vt 0.346695 0.170011
vt 0.346418 0.155302
vt 0.465074 0.153626
vt 0.462797 0.170873
vt 0.287484 0.169922
vt 0.287104 0.155362
vt 0.240603 0.168831
vt 0.240233 0.154597
vt 0.470248 0.141053
vt 0.405522 0.142298
vt 0.346184 0.142627
vt 0.286788 0.143231
vt 0.239909 0.142842
vt 0.142543 0.139435
vt 0.141164 0.086078
vt 0.191104 0.078916
vt 0.192758 0.142236
vt 0.143012 0.164321
vt 0.142801 0.150380
vt 0.193050 0.153554
vt 0.193365 0.167993
vt 0.094201 0.131665
vt 0.093346 0.103897
vt 0.115821 0.092679
vt 0.117032 0.137244
vt 0.094843 0.155313
vt 0.094572 0.141138
vt 0.117341 0.147408
vt 0.117445 0.160977
vt 0.060171 0.129219
vt 0.069201 0.122182
vt 0.048312 0.139310
vt 0.238203 0.077632
vt 0.285237 0.076251
vt 0.345126 0.073309
vt 0.405201 0.071061
vt 0.470496 0.069888
vt 0.428087 0.278203
vt 0.458026 0.278246
vt 0.458023 0.283385
vt 0.428085 0.283385
vt 0.151001 0.172673
vt 0.134315 0.177668
vt 0.134325 0.172633
vt 0.469423 0.278263
vt 0.484169 0.283384
vt 0.469422 0.283384
vt 0.376934 0.278161
vt 0.403090 0.278176
vt 0.403089 0.283385
vt 0.376935 0.283385
vt 0.232405 0.278147
vt 0.279326 0.278146
vt 0.279326 0.283385
vt 0.232406 0.283385
vt 0.120663 0.177664
vt 0.049244 0.177669
vt 0.049238 0.172429
vt 0.120679 0.172600
vt 0.172826 0.278147
vt 0.172827 0.283386
vt 0.326454 0.278146
vt 0.326454 0.283385
vt 0.113247 0.278147
vt 0.113248 0.283386
vt 0.048315 0.278147
vt 0.048313 0.283386
vt 0.405615 0.190473
vt 0.346419 0.190602
vt 0.346695 0.175893
vt 0.405729 0.175031
vt 0.465074 0.192278
vt 0.462797 0.175031
vt 0.287104 0.190543
vt 0.287483 0.175983
vt 0.240233 0.191308
vt 0.240603 0.177075
vt 0.470248 0.204850
vt 0.405522 0.203606
vt 0.346184 0.203277
vt 0.286788 0.202674
vt 0.239909 0.203064
vt 0.142544 0.206471
vt 0.192758 0.203669
vt 0.191105 0.266990
vt 0.141165 0.259828
vt 0.143012 0.181585
vt 0.193365 0.177912
vt 0.193050 0.192351
vt 0.142802 0.195526
vt 0.094201 0.214241
vt 0.117032 0.208662
vt 0.115822 0.253227
vt 0.093347 0.242009
vt 0.094844 0.190594
vt 0.117445 0.184929
vt 0.117341 0.198498
vt 0.094572 0.204769
vt 0.069201 0.223725
vt 0.060171 0.216687
vt 0.048312 0.206597
vt 0.238203 0.268273
vt 0.285237 0.269653
vt 0.345127 0.272595
vt 0.405202 0.274843
vt 0.470497 0.276016
vt 0.428087 0.288566
vt 0.458026 0.288523
vt 0.134339 0.167598
vt 0.469423 0.288505
vt 0.376935 0.288608
vt 0.403091 0.288593
vt 0.232406 0.288624
vt 0.279326 0.288624
vt 0.120688 0.167536
vt 0.049269 0.167189
vt 0.172826 0.288624
vt 0.326454 0.288624
vt 0.113247 0.288624
vt 0.048315 0.288625
vt 0.903435 0.039532
vt 0.910921 0.088636
vt 0.886658 0.038353
vt 0.631114 0.039532
vt 0.647892 0.038353
vt 0.623629 0.088636
vt 0.862475 0.035117
vt 0.845088 0.085089
vt 0.846016 0.032944
vt 0.672075 0.035117
vt 0.688534 0.032944
vt 0.689462 0.085090
vt 0.910116 0.611573
vt 0.906596 0.517899
vt 0.919287 0.516205
vt 0.922640 0.609208
vt 0.923608 0.625512
vt 0.910722 0.627331
vt 0.624434 0.611573
vt 0.611910 0.609208
vt 0.615263 0.516205
vt 0.627954 0.517899
vt 0.623828 0.627331
vt 0.610942 0.625512
vt 0.907473 0.441583
vt 0.921233 0.441339
vt 0.613317 0.441339
vt 0.627077 0.441583
vt 0.910672 0.361440
vt 0.922563 0.361778
vt 0.611987 0.361778
vt 0.623878 0.361440
vt 0.913208 0.292332
vt 0.915240 0.223064
vt 0.926193 0.223440
vt 0.924959 0.292523
vt 0.621341 0.292332
vt 0.609590 0.292523
vt 0.608356 0.223440
vt 0.619310 0.223064
vt 0.914733 0.155209
vt 0.926563 0.155760
vt 0.619817 0.155209
vt 0.607987 0.155760
vt 0.925034 0.088957
vt 0.609515 0.088957
vt 0.916885 0.039693
vt 0.617664 0.039693
vt 0.897352 0.026703
vt 0.904116 0.020227
vt 0.630434 0.020227
vt 0.637198 0.026703
vt 0.925320 0.653114
vt 0.926101 0.668037
vt 0.912248 0.670730
vt 0.911734 0.656298
vt 0.802578 0.666296
vt 0.789348 0.687203
vt 0.772034 0.692192
vt 0.779743 0.669439
vt 0.609230 0.653114
vt 0.622816 0.656297
vt 0.622302 0.670730
vt 0.608448 0.668037
vt 0.731972 0.666296
vt 0.754807 0.669439
vt 0.762516 0.692192
vt 0.745202 0.687203
vt 0.810241 0.631541
vt 0.817618 0.609852
vt 0.834180 0.613025
vt 0.825743 0.631715
vt 0.826748 0.521269
vt 0.838539 0.521276
vt 0.724309 0.631540
vt 0.708807 0.631715
vt 0.700370 0.613025
vt 0.716931 0.609851
vt 0.696011 0.521276
vt 0.707802 0.521269
vt 0.822344 0.441789
vt 0.835055 0.442775
vt 0.712206 0.441789
vt 0.699496 0.442775
vt 0.817133 0.358531
vt 0.828629 0.359520
vt 0.705921 0.359520
vt 0.717416 0.358531
vt 0.818635 0.285737
vt 0.829903 0.286533
vt 0.836375 0.216911
vt 0.825492 0.216147
vt 0.704646 0.286533
vt 0.715914 0.285736
vt 0.698175 0.216912
vt 0.709058 0.216147
vt 0.843578 0.145309
vt 0.832025 0.144933
vt 0.690972 0.145309
vt 0.702525 0.144933
vt 0.833332 0.082720
vt 0.701217 0.082720
vt 0.833234 0.030999
vt 0.701316 0.030999
vt 0.844054 0.014072
vt 0.852549 0.021968
vt 0.682001 0.021968
vt 0.690496 0.014072
vt 0.864727 0.008472
vt 0.863677 0.019675
vt 0.670872 0.019675
vt 0.669822 0.008472
vt 0.886138 0.023084
vt 0.887294 0.010477
vt 0.648412 0.023084
vt 0.647256 0.010477
vt 0.911373 0.643919
vt 0.924636 0.642008
vt 0.797147 0.651530
vt 0.817892 0.649983
vt 0.609914 0.642008
vt 0.623177 0.643919
vt 0.716658 0.649983
vt 0.737402 0.651530
vt 0.603038 0.114189
vt 0.603143 0.165509
vt 0.543229 0.164258
vt 0.544969 0.114021
vt 0.601686 0.234121
vt 0.540819 0.232252
vt 0.599043 0.303118
vt 0.538777 0.301020
vt 0.596394 0.372947
vt 0.536372 0.370798
vt 0.594338 0.442727
vt 0.533415 0.440673
vt 0.591791 0.522999
vt 0.530775 0.521439
vt 0.590737 0.598935
vt 0.528765 0.598683
vt 0.594511 0.692625
vt 0.527324 0.695053
vt 0.595619 0.708810
vt 0.527647 0.712219
vt 0.597008 0.725003
vt 0.528304 0.729341
vt 0.598123 0.735814
vt 0.528900 0.740710
vt 0.599778 0.750287
vt 0.529903 0.755767
vt 0.931039 0.673993
vt 0.930234 0.651219
vt 0.990700 0.649947
vt 0.991234 0.672316
vt 0.929350 0.627329
vt 0.990744 0.626573
vt 0.928647 0.603611
vt 0.991114 0.603357
vt 0.929181 0.581044
vt 0.990638 0.581230
vt 0.932849 0.493287
vt 0.988811 0.494107
vt 0.935383 0.415151
vt 0.989196 0.416223
vt 0.938172 0.332794
vt 0.989904 0.333833
vt 0.939303 0.260809
vt 0.991520 0.261531
vt 0.939119 0.192169
vt 0.992995 0.191999
vt 0.937627 0.122960
vt 0.992439 0.120899
vt 0.933976 0.063602
vt 0.988858 0.059019
vt 0.928647 0.014246
vt 0.983065 0.008473
vt 0.597025 0.008473
vt 0.597999 0.027528
vt 0.544692 0.030934
vt 0.542306 0.012282
vt 0.599546 0.048442
vt 0.545892 0.051089
vt 0.600279 0.071328
vt 0.547022 0.072892
vt 0.601487 0.090790
vt 0.546510 0.091486
vt 0.732937 0.480394
vt 0.730093 0.492170
vt 0.728277 0.492105
vt 0.731583 0.478624
vt 0.737578 0.633807
vt 0.730903 0.617668
vt 0.732740 0.617761
vt 0.738711 0.632117
vt 0.804004 0.478624
vt 0.807366 0.492133
vt 0.805551 0.492196
vt 0.802658 0.480397
vt 0.796698 0.632149
vt 0.802662 0.617823
vt 0.804498 0.617733
vt 0.797833 0.633837
vt 0.602868 0.769880
vt 0.530975 0.775832
vt 0.926525 0.687961
vt 0.912904 0.688947
vt 0.621646 0.688947
vt 0.608025 0.687961
vt 0.790400 0.702329
vt 0.774798 0.707355
vt 0.931748 0.688985
vt 0.991802 0.687180
vt 0.759751 0.707355
vt 0.744150 0.702329
s 1
usemtl Material
f 17/1/1 15/2/2 18/3/3 16/4/4
f 5/5/5 6/6/6 15/2/2 17/1/1
f 16/4/4 18/3/3 12/7/7 14/8/8
f 14/8/8 12/7/7 10/9/9 13/10/10
f 3/11/11 5/5/5 17/1/1 31/12/12
f 31/12/12 17/1/1 16/4/4 32/13/13
f 32/13/13 16/4/4 14/8/8 33/14/13
f 33/14/13 14/8/8 13/10/10 34/15/13
f 35/16/14 20/17/15 19/18/16 36/19/17
f 21/20/18 24/21/19 23/22/20 22/23/21
f 34/15/13 13/10/10 23/22/20 36/19/17
f 13/10/10 10/9/9 22/23/21 23/22/20
f 37/24/22 26/25/13 25/26/12 38/27/17
f 27/28/23 30/29/24 29/30/25 28/31/26
f 30/29/24 9/32/27 39/33/28 37/24/22
f 35/16/14 24/21/19 29/30/25 38/27/17
f 11/34/29 9/32/27 30/29/24 27/28/23
f 24/21/19 21/20/18 28/31/26 29/30/25
f 20/17/15 35/16/14 38/27/17 25/26/12
f 30/29/24 37/24/22 38/27/17 29/30/25
f 8/35/30 34/15/13 36/19/17 19/18/16
f 24/21/19 35/16/14 36/19/17 23/22/20
f 7/36/30 33/14/13 34/15/13 8/35/30
f 1/37/30 32/13/13 33/14/13 7/36/30
f 4/38/31 31/12/12 32/13/13 1/37/30
f 2/39/31 3/11/11 31/12/12 4/38/31
f 26/40/32 39/41/33 52/42/33 51/43/32
f 37/24/22 39/33/28 26/25/13
f 6/44/34 5/45/35 44/46/36
f 9/47/33 11/48/33 47/49/33
f 20/50/37 25/51/38 50/52/39 49/53/40
f 7/54/41 8/55/42 46/56/42 45/57/41
f 25/51/38 26/40/32 51/43/32 50/52/39
f 3/58/43 2/59/44 41/60/44 42/61/45
f 1/62/46 7/54/41 45/57/41 40/63/46
f 8/55/42 19/64/47 48/65/47 46/56/42
f 4/66/48 1/62/46 40/63/46 43/67/48
f 5/45/35 3/58/43 42/61/45 44/46/36
f 39/41/33 9/47/33 47/49/33 52/42/33
f 19/64/47 20/50/37 49/53/40 48/65/47
f 2/68/49 4/66/48 43/67/48 41/69/49
f 64/70/50 63/71/51 18/72/52 15/73/53
f 57/74/54 64/70/50 15/73/53 6/75/55
f 63/71/51 62/76/56 12/77/57 18/72/52
f 62/76/56 61/78/58 10/79/59 12/77/57
f 55/80/60 73/81/61 64/70/50 57/74/54
f 73/81/61 74/82/62 63/71/51 64/70/50
f 74/82/62 75/83/62 62/76/56 63/71/51
f 75/83/62 76/84/62 61/78/58 62/76/56
f 77/85/63 78/86/64 65/87/65 66/88/66
f 21/89/67 22/90/68 67/91/69 68/92/70
f 76/84/62 78/86/64 67/91/69 61/78/58
f 61/78/58 67/91/69 22/90/68 10/79/59
f 79/93/71 80/94/64 69/95/61 70/96/62
f 27/97/72 28/98/73 71/99/74 72/100/75
f 72/100/75 79/93/71 81/101/76 60/102/77
f 77/85/63 80/94/64 71/99/74 68/92/70
f 11/103/78 27/97/72 72/100/75 60/102/77
f 68/92/70 71/99/74 28/98/73 21/89/67
f 66/88/66 69/95/61 80/94/64 77/85/63
f 72/100/75 71/99/74 80/94/64 79/93/71
f 59/104/79 65/87/65 78/86/64 76/84/62
f 68/92/70 67/91/69 78/86/64 77/85/63
f 58/105/79 59/104/79 76/84/62 75/83/62
f 53/106/79 58/105/79 75/83/62 74/82/62
f 56/107/80 53/106/79 74/82/62 73/81/61
f 54/108/80 56/107/80 73/81/61 55/80/60
f 70/109/32 51/43/32 52/42/33 81/110/33
f 79/93/71 70/96/62 81/101/76
f 6/44/34 44/46/36 57/111/35
f 60/112/33 47/49/33 11/48/33
f 66/113/37 49/53/40 50/52/39 69/114/38
f 58/115/41 45/57/41 46/56/42 59/116/42
f 69/114/38 50/52/39 51/43/32 70/109/32
f 55/117/43 42/61/45 41/60/44 54/118/44
f 53/119/46 40/63/46 45/57/41 58/115/41
f 59/116/42 46/56/42 48/65/47 65/120/47
f 56/121/48 43/67/48 40/63/46 53/119/46
f 57/111/35 44/46/36 42/61/45 55/117/43
f 81/110/33 52/42/33 47/49/33 60/112/33
f 65/120/47 48/65/47 49/53/40 66/113/37
f 54/122/49 41/69/49 43/67/48 56/121/48
f 168/123/81 169/124/82 196/125/83
f 170/126/84 197/127/85 171/128/86
f 194/129/87 183/130/88 182/131/89
f 195/132/90 184/133/91 185/134/92
f 156/135/93 158/136/94 84/137/95 82/138/96
f 82/138/96 135/139/97 154/140/98 156/135/93
f 157/141/99 83/142/100 85/143/101 159/144/102
f 83/142/100 157/141/99 155/145/103 137/146/104
f 158/136/94 160/147/105 86/148/106 84/137/95
f 159/144/102 85/143/101 87/149/107 161/150/108
f 160/147/105 200/151/109 198/152/110 86/148/106
f 161/150/108 87/149/107 199/153/111 201/154/112
f 162/155/113 164/156/114 90/157/115 88/158/116
f 88/158/116 198/152/110 200/151/109 162/155/113
f 163/159/117 89/160/118 91/161/119 165/162/120
f 89/160/118 163/159/117 201/154/112 199/153/111
f 166/163/121 92/164/122 90/157/115 164/156/114
f 167/165/123 165/162/120 91/161/119 93/166/124
f 92/164/122 166/163/121 169/124/82 94/167/125
f 93/166/124 95/168/126 171/128/86 167/165/123
f 94/167/125 169/124/82 168/123/81 96/169/127
f 95/168/126 97/170/128 170/126/84 171/128/86
f 96/169/127 168/123/81 186/171/129 124/172/130
f 97/170/128 125/173/131 187/174/132 170/126/84
f 126/175/133 98/176/134 148/177/135 150/178/136
f 140/179/137 138/180/138 99/181/139 127/182/140
f 128/183/141 151/184/142 149/185/143 100/186/144
f 141/187/145 129/188/146 101/189/147 139/190/148
f 134/191/149 102/192/150 146/193/151 144/194/152
f 146/193/151 102/192/150 104/195/153 172/196/154
f 136/197/155 145/198/156 147/199/157 103/200/158
f 147/199/157 173/201/159 105/202/160 103/200/158
f 106/203/161 174/204/162 172/196/154 104/195/153
f 107/205/163 105/202/160 173/201/159 175/206/164
f 174/204/162 106/203/161 202/207/165 203/208/166
f 175/206/164 205/209/167 204/210/168 107/205/163
f 203/208/166 202/207/165 108/211/169 176/212/170
f 178/213/171 176/212/170 108/211/169 110/214/172
f 205/209/167 177/215/173 109/216/174 204/210/168
f 179/217/175 111/218/176 109/216/174 177/215/173
f 180/219/177 178/213/171 110/214/172 112/220/178
f 181/221/179 113/222/180 111/218/176 179/217/175
f 114/223/181 183/130/88 180/219/177 112/220/178
f 115/224/182 113/222/180 181/221/179 185/134/92
f 183/130/88 114/223/181 116/225/183 182/131/89
f 185/134/92 184/133/91 117/226/184 115/224/182
f 116/225/183 118/227/185 188/228/186 182/131/89
f 117/226/184 184/133/91 189/229/187 119/230/188
f 118/227/185 120/231/189 192/232/190 188/228/186
f 119/230/188 189/229/187 193/233/191 121/234/192
f 190/235/193 192/232/190 120/231/189 122/236/194
f 191/237/195 123/238/196 121/234/192 193/233/191
f 122/236/194 124/172/130 186/171/129 190/235/193
f 123/238/196 191/237/195 187/174/132 125/173/131
f 150/178/136 152/239/197 130/240/198 126/175/133
f 127/182/140 131/241/199 142/242/200 140/179/137
f 151/184/142 128/183/141 132/243/201 153/244/202
f 129/188/146 141/187/145 143/245/203 133/246/204
f 152/239/197 154/140/98 135/139/97 130/240/198
f 131/241/199 134/191/149 144/194/152 142/242/200
f 153/244/202 132/243/201 137/146/104 155/145/103
f 133/246/204 143/245/203 145/198/156 136/197/155
f 138/180/138 140/179/137 150/178/136 148/177/135
f 139/190/148 149/185/143 151/184/142 141/187/145
f 140/179/137 142/242/200 152/239/197 150/178/136
f 141/187/145 151/184/142 153/244/202 143/245/203
f 142/242/200 144/194/152 154/140/98 152/239/197
f 143/245/203 153/244/202 155/145/103 145/198/156
f 144/194/152 146/193/151 156/135/93 154/140/98
f 145/198/156 155/145/103 157/141/99 147/199/157
f 146/193/151 172/196/154 158/136/94 156/135/93
f 147/199/157 157/141/99 159/144/102 173/201/159
f 160/147/105 158/136/94 172/196/154 174/204/162
f 161/150/108 175/206/164 173/201/159 159/144/102
f 203/208/166 200/151/109 160/147/105 174/204/162
f 205/209/167 175/206/164 161/150/108 201/154/112
f 162/155/113 176/212/170 178/213/171 164/156/114
f 163/159/117 165/162/120 179/217/175 177/215/173
f 164/156/114 178/213/171 180/219/177 166/163/121
f 165/162/120 167/165/123 181/221/179 179/217/175
f 166/163/121 180/219/177 183/130/88 169/124/82
f 167/165/123 171/128/86 185/134/92 181/221/179
f 168/123/81 196/125/83 190/235/193 186/171/129
f 169/124/82 183/130/88 194/129/87 196/125/83
f 170/126/84 187/174/132 191/237/195 197/127/85
f 171/128/86 197/127/85 195/132/90 185/134/92
f 182/131/89 188/228/186 192/232/190 194/129/87
f 184/133/91 195/132/90 193/233/191 189/229/187
f 176/212/170 162/155/113 200/151/109 203/208/166
f 177/215/173 205/209/167 201/154/112 163/159/117
f 196/125/83 194/129/87 192/232/190 190/235/193
f 197/127/85 191/237/195 193/233/191 195/132/90
f 97/247/128 95/248/126 94/249/125 96/250/127
f 95/248/126 93/251/124 92/252/122 94/249/125
f 93/251/124 91/253/119 90/254/115 92/252/122
f 91/253/119 89/255/118 88/256/116 90/254/115
f 89/255/118 199/257/111 198/258/110 88/256/116
f 199/257/111 87/259/107 86/260/106 198/258/110
f 87/259/107 85/261/101 84/262/95 86/260/106
f 85/261/101 83/263/100 82/264/96 84/262/95
f 83/263/100 137/265/104 135/266/97 82/264/96
f 137/265/104 132/267/201 130/268/198 135/266/97
f 132/267/201 128/269/141 126/270/133 130/268/198
f 128/269/141 100/271/144 98/272/134 126/270/133
f 101/273/147 129/274/146 127/275/140 99/276/139
f 129/274/146 133/277/204 131/278/199 127/275/140
f 133/277/204 136/279/155 134/280/149 131/278/199
f 136/279/155 103/281/158 102/282/150 134/280/149
f 103/281/158 105/283/160 104/284/153 102/282/150
f 105/283/160 107/285/163 106/286/161 104/284/153
f 107/285/163 204/287/168 202/288/165 106/286/161
f 204/287/168 109/289/174 108/290/169 202/288/165
f 109/289/174 111/291/176 110/292/172 108/290/169
f 111/291/176 113/293/180 112/294/178 110/292/172
f 113/293/180 115/295/182 114/296/181 112/294/178
f 115/295/182 117/297/184 116/298/183 114/296/181
f 117/299/184 119/300/188 118/301/185 116/302/183
f 119/300/188 121/303/192 120/304/189 118/301/185
f 121/303/192 123/305/196 122/306/194 120/304/189
f 123/305/196 125/307/131 124/308/130 122/306/194
f 125/307/131 97/247/128 96/250/127 124/308/130
f 206/309/205 218/310/206 219/311/207 207/312/208
f 211/313/209 214/314/210 215/315/211 210/316/212
f 209/317/213 220/318/214 221/319/215 208/320/216
f 212/321/217 216/322/218 217/323/219 213/324/220
f 214/314/210 219/311/207 218/310/206 215/315/211
f 216/322/218 221/319/215 220/318/214 217/323/219
f 208/320/216 206/309/205 207/312/208 209/317/213
f 210/316/212 212/321/217 213/324/220 211/313/209
f 100/271/144 209/325/213 207/326/208 98/272/134
f 98/176/134 207/327/208 219/328/207 148/177/135
f 208/320/216 221/319/215 218/310/206 206/309/205
f 100/186/144 149/185/143 220/329/214 209/330/213
f 216/322/218 212/321/217 210/316/212 215/315/211
f 138/180/138 214/331/210 211/332/209 99/181/139
f 213/333/220 101/273/147 99/276/139 211/334/209
f 139/190/148 101/189/147 213/335/220 217/336/219
f 214/331/210 138/180/138 148/177/135 219/328/207
f 221/319/215 216/322/218 215/315/211 218/310/206
f 217/336/219 220/329/214 149/185/143 139/190/148
