# Blender 5.0.1
# www.blender.org
mtllib Pisau03.mtl
o Pisau03
v -0.001908 0.160252 0.000662
v 0.000000 0.133483 0.000662
v -0.001862 0.140251 0.162237
v -0.001870 0.144076 0.160502
v -0.001883 0.149910 0.156815
v -0.001894 0.154461 0.150553
v 0.000000 0.135867 0.163357
v -0.001855 0.138003 0.000662
v -0.001903 0.157580 0.141173
v -0.001903 0.158512 0.129353
v 0.000000 0.135397 0.131221
v -0.001860 0.139815 0.130864
v 0.000000 0.135542 0.141173
v 0.000000 0.135680 0.150553
v 0.000000 0.135772 0.156815
v -0.001862 0.140176 0.156815
v -0.001861 0.140089 0.150553
v -0.001861 0.139958 0.141173
v 0.000000 0.160252 0.000662
v 0.000000 0.140251 0.162237
v 0.000000 0.144076 0.160502
v 0.000000 0.149910 0.156815
v 0.000000 0.154461 0.150553
v 0.000000 0.138003 0.000662
v 0.000000 0.157580 0.141173
v 0.000000 0.158512 0.129353
v 0.001908 0.160252 0.000662
v 0.001862 0.140251 0.162237
v 0.001870 0.144076 0.160502
v 0.001883 0.149910 0.156815
v 0.001894 0.154461 0.150553
v 0.001855 0.138003 0.000662
v 0.001903 0.157580 0.141173
v 0.001903 0.158512 0.129353
v 0.001860 0.139815 0.130864
v 0.001862 0.140176 0.156815
v 0.001861 0.140089 0.150553
v 0.001861 0.139958 0.141173
v 0.004685 0.161942 -0.014607
v -0.004685 0.161942 -0.014607
v 0.004297 0.162618 -0.032439
v -0.004297 0.162618 -0.032439
v 0.004236 0.163223 -0.046813
v -0.004236 0.163223 -0.046813
v 0.004172 0.163554 -0.075068
v -0.004172 0.163554 -0.075068
v 0.004189 0.163428 -0.088188
v -0.004189 0.163428 -0.088188
v 0.004229 0.162901 -0.101123
v -0.004229 0.162901 -0.101123
v 0.004161 0.161517 -0.113883
v -0.004161 0.161517 -0.113883
v 0.004036 0.158831 -0.123034
v -0.004036 0.158831 -0.123034
v 0.004880 0.161605 -0.003480
v 0.004190 0.132639 -0.002444
v -0.004880 0.161605 -0.003480
v -0.004190 0.132639 -0.002444
v 0.004271 0.142873 -0.016010
v -0.004271 0.142873 -0.016010
v 0.003886 0.145575 -0.032211
v -0.003886 0.145575 -0.032211
v 0.003738 0.145130 -0.046860
v -0.003738 0.145130 -0.046860
v 0.003625 0.144074 -0.075852
v -0.003625 0.144074 -0.075852
v 0.003737 0.144939 -0.088799
v -0.003737 0.144939 -0.088799
v 0.003806 0.145458 -0.101963
v -0.003806 0.145458 -0.101963
v 0.003837 0.144645 -0.113331
v -0.003837 0.144645 -0.113331
v 0.003830 0.143394 -0.122686
v -0.003830 0.143394 -0.122686
v 0.003722 0.144904 -0.125904
v -0.003722 0.144904 -0.125904
v 0.003739 0.148456 -0.127422
v -0.003739 0.148456 -0.127422
v 0.003703 0.152649 -0.127592
v -0.003703 0.152649 -0.127592
v 0.003821 0.155958 -0.126249
v -0.003821 0.155958 -0.126249
v 0.004831 0.161689 -0.006262
v 0.004205 0.134814 -0.006084
v -0.004831 0.161689 -0.006262
v -0.004205 0.134814 -0.006084
v 0.004795 0.161752 -0.008348
v 0.004267 0.138355 -0.008761
v -0.004795 0.161752 -0.008348
v -0.004267 0.138355 -0.008761
v 0.004340 0.141107 -0.012203
v 0.004740 0.161847 -0.011477
v -0.004340 0.141107 -0.012203
v -0.004740 0.161847 -0.011477
v 0.005111 0.135674 -0.002509
v -0.005111 0.135674 -0.002509
v 0.005207 0.138714 -0.006094
v -0.005207 0.138714 -0.006094
v 0.005253 0.141931 -0.008796
v -0.005253 0.141931 -0.008796
v 0.005251 0.143730 -0.012014
v -0.005251 0.143730 -0.012014
v 0.005348 0.145598 -0.015311
v -0.005348 0.145598 -0.015311
v 0.005587 0.159154 -0.003103
v -0.005587 0.159154 -0.003103
v 0.005601 0.159321 -0.005840
v -0.005601 0.159321 -0.005840
v 0.005583 0.159488 -0.008196
v -0.005583 0.159488 -0.008196
v 0.005583 0.159688 -0.011363
v -0.005583 0.159688 -0.011363
v 0.005573 0.159878 -0.014376
v -0.005573 0.159878 -0.014376
v 0.004858 0.160345 -0.032235
v -0.004858 0.160345 -0.032235
v 0.004865 0.160783 -0.046770
v -0.004865 0.160783 -0.046770
v 0.004858 0.161552 -0.075055
v -0.004858 0.161552 -0.075055
v 0.004839 0.161566 -0.088193
v -0.004839 0.161566 -0.088193
v 0.004857 0.160844 -0.101098
v -0.004857 0.160844 -0.101098
v 0.004701 0.156475 -0.122843
v 0.004859 0.159044 -0.113713
v -0.004701 0.156475 -0.122843
v -0.004859 0.159044 -0.113713
v 0.004589 0.147574 -0.032152
v -0.004589 0.147574 -0.032152
v 0.004551 0.147249 -0.046668
v -0.004551 0.147249 -0.046668
v 0.004426 0.145898 -0.075754
v -0.004426 0.145898 -0.075754
v 0.004458 0.146741 -0.088739
v -0.004458 0.146741 -0.088739
v 0.004527 0.147392 -0.102038
v -0.004527 0.147392 -0.102038
v 0.004676 0.145550 -0.122706
v 0.004560 0.146656 -0.113132
v -0.004676 0.145550 -0.122706
v -0.004560 0.146656 -0.113132
v 0.004487 0.154995 -0.125093
v -0.004487 0.154995 -0.125093
v 0.004563 0.146476 -0.124922
v -0.004563 0.146476 -0.124922
v 0.004531 0.152805 -0.125505
v -0.004531 0.152805 -0.125505
v 0.004516 0.148510 -0.125599
v -0.004516 0.148510 -0.125599
v 0.004841 0.148687 -0.122733
v -0.004841 0.148687 -0.122733
v 0.004834 0.153317 -0.122692
v -0.004834 0.153317 -0.122692
v 0.004233 0.163385 -0.061945
v -0.004233 0.163385 -0.061945
v 0.004858 0.161317 -0.061976
v -0.004858 0.161317 -0.061976
v 0.003593 0.144061 -0.062299
v 0.004424 0.145907 -0.062141
v -0.003593 0.144061 -0.062299
v -0.004424 0.145907 -0.062141
v 0.004849 0.161150 0.000604
v 0.005031 0.161493 0.000263
v -0.004849 0.161150 0.000604
v -0.005031 0.161493 0.000263
v 0.004033 0.132651 0.000678
v 0.004186 0.132352 0.000348
v -0.004033 0.132651 0.000678
v -0.004186 0.132352 0.000348
v 0.005112 0.135379 0.000330
v 0.004857 0.135344 0.000663
v -0.004857 0.135344 0.000663
v -0.005112 0.135379 0.000330
v 0.005243 0.158937 0.000662
v 0.005505 0.158956 0.000329
v -0.005505 0.158956 0.000329
v -0.005243 0.158937 0.000662
vn -0.9703 -0.2418 0.0034
vn -0.9799 -0.1997 0.0028
vn -0.9211 -0.3893 0.0055
vn -0.9210 -0.3895 0.0056
vn -1.0000 -0.0023 -0.0000
vn -0.9801 -0.1984 0.0028
vn -0.9802 -0.1979 0.0028
vn -1.0000 -0.0022 -0.0000
vn -0.9225 -0.3859 0.0055
vn -0.9235 -0.3837 0.0055
vn -0.9799 -0.1992 0.0028
vn -0.9799 -0.1995 0.0029
vn -0.9213 -0.3889 0.0055
vn -0.9215 -0.3883 0.0055
vn -1.0000 -0.0023 0.0001
vn -0.0000 0.9801 0.1985
vn -0.0000 0.8895 0.4570
vn -0.0000 0.8894 0.4571
vn -0.0000 0.6839 0.7295
vn -0.0000 0.6838 0.7297
vn -0.0000 -0.0000 -1.0000
vn -0.0000 0.4749 0.8800
vn -0.0000 0.4748 0.8801
vn -0.0000 0.3434 0.9392
vn -0.0000 0.3316 0.9434
vn -0.0000 0.9999 0.0135
vn -0.0000 0.9989 0.0461
vn -0.0000 0.2474 0.9689
vn 0.9703 -0.2418 0.0034
vn 0.9210 -0.3895 0.0056
vn 0.9211 -0.3893 0.0055
vn 0.9799 -0.1997 0.0028
vn 1.0000 -0.0023 -0.0000
vn 0.9802 -0.1979 0.0028
vn 0.9801 -0.1984 0.0028
vn 1.0000 -0.0022 -0.0000
vn 0.9225 -0.3859 0.0055
vn 0.9235 -0.3837 0.0055
vn 0.9799 -0.1992 0.0028
vn 0.9213 -0.3889 0.0055
vn 0.9799 -0.1995 0.0029
vn 0.9215 -0.3883 0.0055
vn 1.0000 -0.0023 0.0001
vn 0.9768 0.1623 -0.1395
vn 0.9903 0.1353 -0.0323
vn 0.9984 0.0117 -0.0548
vn -0.9768 0.1623 -0.1395
vn -0.9984 0.0117 -0.0548
vn -0.9903 0.1353 -0.0323
vn 0.9988 -0.0242 -0.0421
vn 0.9822 -0.1865 0.0239
vn 0.9713 -0.2294 -0.0623
vn -0.9988 -0.0242 -0.0421
vn -0.9713 -0.2294 -0.0623
vn -0.9822 -0.1865 0.0239
vn 0.9852 0.1712 -0.0111
vn 0.9910 0.1332 -0.0147
vn 0.5992 0.8003 0.0219
vn 0.5734 0.8191 0.0165
vn 0.5638 0.8256 0.0231
vn 0.9846 0.1748 0.0044
vn -0.9852 0.1712 -0.0111
vn -0.5734 0.8191 0.0165
vn -0.5992 0.8003 0.0219
vn -0.9910 0.1332 -0.0147
vn -0.9846 0.1748 0.0044
vn -0.5638 0.8256 0.0231
vn 0.9931 0.1170 0.0020
vn 0.6061 0.7952 0.0208
vn -0.6061 0.7952 0.0208
vn -0.9931 0.1170 0.0020
vn 0.9912 0.1327 0.0012
vn 0.5976 0.8017 0.0099
vn -0.5976 0.8017 0.0099
vn -0.9912 0.1327 0.0012
vn 0.9890 0.1478 0.0001
vn 0.9884 0.1515 -0.0030
vn 0.5807 0.8139 -0.0199
vn 0.5818 0.8134 0.0013
vn -0.9890 0.1478 0.0001
vn -0.5818 0.8134 0.0013
vn -0.5807 0.8139 -0.0199
vn -0.9884 0.1515 -0.0030
vn 0.9900 0.1407 -0.0116
vn 0.5881 0.8064 -0.0617
vn -0.9900 0.1407 -0.0116
vn -0.5881 0.8064 -0.0617
vn 0.5854 0.7943 -0.1627
vn -0.5854 0.7943 -0.1627
vn 0.5568 0.7246 -0.4062
vn -0.5568 0.7246 -0.4062
vn 0.9573 0.1301 -0.2581
vn 0.5194 0.4777 -0.7085
vn -0.5194 0.4777 -0.7085
vn -0.9573 0.1301 -0.2581
vn 0.5880 0.8085 0.0224
vn 0.6028 0.7976 0.0217
vn 0.9927 0.1206 0.0065
vn 0.9895 0.1442 0.0032
vn 0.9799 -0.1442 -0.1379
vn 0.9826 -0.1732 -0.0675
vn 0.5572 -0.7894 -0.2577
vn 0.5459 -0.6315 -0.5507
vn -0.5880 0.8085 0.0224
vn -0.9895 0.1442 0.0032
vn -0.9927 0.1206 0.0065
vn -0.6028 0.7976 0.0217
vn -0.9799 -0.1442 -0.1379
vn -0.5459 -0.6315 -0.5507
vn -0.5572 -0.7894 -0.2577
vn -0.9826 -0.1732 -0.0675
vn 0.5978 -0.6841 -0.4179
vn 0.5942 -0.7646 -0.2497
vn 0.9858 -0.1567 -0.0608
vn 0.9823 -0.1659 -0.0867
vn 0.5880 -0.8062 -0.0653
vn 0.9837 -0.1770 -0.0309
vn -0.5978 -0.6841 -0.4179
vn -0.9823 -0.1659 -0.0867
vn -0.9858 -0.1567 -0.0608
vn -0.5942 -0.7646 -0.2497
vn -0.9837 -0.1770 -0.0309
vn -0.5880 -0.8062 -0.0653
vn 0.5658 -0.8237 0.0379
vn 0.9812 -0.1932 0.0045
vn -0.5658 -0.8237 0.0379
vn -0.9812 -0.1932 0.0045
vn 0.5424 -0.8397 0.0270
vn 0.9756 -0.2196 0.0055
vn -0.9756 -0.2196 0.0055
vn -0.5424 -0.8397 0.0270
vn 0.5434 -0.8391 -0.0263
vn 0.9756 -0.2195 -0.0051
vn 0.9794 -0.2019 -0.0071
vn 0.5623 -0.8259 -0.0414
vn -0.9756 -0.2195 -0.0051
vn -0.5434 -0.8391 -0.0263
vn -0.9794 -0.2019 -0.0071
vn -0.5623 -0.8259 -0.0414
vn 0.9827 -0.1852 0.0059
vn 0.5789 -0.8153 0.0142
vn -0.9827 -0.1852 0.0059
vn -0.5789 -0.8153 0.0142
vn 0.5750 -0.8137 0.0856
vn -0.5750 -0.8137 0.0856
vn 0.5243 -0.8414 -0.1311
vn -0.5243 -0.8414 -0.1311
vn 0.4908 -0.6060 -0.6260
vn 0.9545 -0.1739 -0.2421
vn -0.9545 -0.1739 -0.2421
vn -0.4908 -0.6060 -0.6260
vn 0.5197 -0.1781 -0.8356
vn 0.9608 -0.0556 -0.2716
vn -0.9608 -0.0556 -0.2716
vn -0.5197 -0.1781 -0.8356
vn 0.9650 0.0404 -0.2593
vn 0.5162 0.1367 -0.8455
vn -0.9650 0.0404 -0.2593
vn -0.5162 0.1367 -0.8455
vn 0.9872 0.1593 -0.0002
vn 0.5771 0.8164 0.0226
vn 0.5833 -0.5674 -0.5812
vn 0.9860 -0.1342 -0.0992
vn -0.5771 0.8164 0.0226
vn -0.9872 0.1593 -0.0002
vn -0.9860 -0.1342 -0.0992
vn -0.5833 -0.5674 -0.5812
vn 0.3418 0.3457 0.8739
vn 0.4596 0.0490 0.8868
vn 0.9425 0.0924 0.3212
vn 0.5792 0.7285 0.3658
vn 0.5477 -0.7800 0.3027
vn 0.9415 -0.1473 0.3031
vn 0.4733 -0.0809 0.8772
vn 0.3271 -0.3775 0.8663
vn -0.5792 0.7285 0.3658
vn -0.9425 0.0924 0.3212
vn -0.4596 0.0490 0.8868
vn -0.3418 0.3457 0.8739
vn -0.3271 -0.3775 0.8663
vn -0.4733 -0.0809 0.8772
vn -0.9415 -0.1473 0.3031
vn -0.5477 -0.7800 0.3027
vt 0.941785 0.826585
vt 0.927003 0.824505
vt 0.928590 0.811452
vt 0.946596 0.814161
vt 0.497294 0.874721
vt 0.497293 0.813614
vt 0.855006 0.819372
vt 0.850357 0.870699
vt 0.924941 0.850934
vt 0.936086 0.836258
vt 0.856043 0.806210
vt 0.497321 0.800202
vt 0.883701 0.820545
vt 0.881993 0.868893
vt 0.909745 0.822583
vt 0.910956 0.809477
vt 0.884370 0.807451
vt 0.907406 0.861820
vt 0.871328 0.951942
vt 0.895559 0.952006
vt 0.895558 0.956649
vt 0.871340 0.956641
vt 0.914531 0.952037
vt 0.914529 0.956652
vt 0.961091 0.887034
vt 0.961091 0.948106
vt 0.955852 0.948120
vt 0.956000 0.887021
vt 0.931447 0.952070
vt 0.931444 0.956653
vt 0.956030 0.874612
vt 0.941739 0.952091
vt 0.941737 0.956653
vt 0.522983 0.950497
vt 0.842496 0.950491
vt 0.838727 0.956692
vt 0.526690 0.956636
vt 0.952825 0.956654
vt 0.502106 0.900482
vt 0.497294 0.888058
vt 0.515301 0.885349
vt 0.516888 0.898402
vt 0.946597 0.948615
vt 0.593534 0.944596
vt 0.588885 0.893268
vt 0.946597 0.887508
vt 0.518950 0.924831
vt 0.507805 0.910155
vt 0.587847 0.880106
vt 0.946569 0.874096
vt 0.561897 0.942790
vt 0.560190 0.894441
vt 0.532934 0.883374
vt 0.534146 0.896481
vt 0.559520 0.881348
vt 0.536485 0.935717
vt 0.871324 0.961341
vt 0.895557 0.961292
vt 0.914530 0.961267
vt 0.950909 0.887009
vt 0.950613 0.948081
vt 0.931447 0.961236
vt 0.941739 0.961216
vt 0.522983 0.962776
vt 0.842495 0.962781
vt 0.903435 0.039532
vt 0.910921 0.088636
vt 0.886658 0.038353
vt 0.631114 0.039532
vt 0.647892 0.038353
vt 0.623629 0.088636
vt 0.862475 0.035117
vt 0.845088 0.085089
vt 0.846016 0.032944
vt 0.672075 0.035117
vt 0.688534 0.032944
vt 0.689462 0.085090
vt 0.910116 0.611573
vt 0.906596 0.517899
vt 0.919287 0.516205
vt 0.922640 0.609208
vt 0.923608 0.625512
vt 0.910722 0.627331
vt 0.624434 0.611573
vt 0.611910 0.609208
vt 0.615263 0.516205
vt 0.627954 0.517899
vt 0.623828 0.627331
vt 0.610942 0.625512
vt 0.907473 0.441583
vt 0.921233 0.441339
vt 0.613317 0.441339
vt 0.627077 0.441583
vt 0.910672 0.361440
vt 0.922563 0.361778
vt 0.611987 0.361778
vt 0.623878 0.361440
vt 0.913208 0.292332
vt 0.915240 0.223064
vt 0.926193 0.223440
vt 0.924959 0.292523
vt 0.621341 0.292332
vt 0.609590 0.292523
vt 0.608356 0.223440
vt 0.619310 0.223064
vt 0.914733 0.155209
vt 0.926563 0.155760
vt 0.619817 0.155209
vt 0.607987 0.155760
vt 0.925034 0.088957
vt 0.609515 0.088957
vt 0.916885 0.039693
vt 0.617664 0.039693
vt 0.897352 0.026703
vt 0.904116 0.020227
vt 0.630434 0.020227
vt 0.637198 0.026703
vt 0.925320 0.653114
vt 0.926101 0.668037
vt 0.912248 0.670730
vt 0.911734 0.656298
vt 0.802578 0.666296
vt 0.789348 0.687203
vt 0.772034 0.692192
vt 0.779743 0.669439
vt 0.609230 0.653114
vt 0.622816 0.656297
vt 0.622302 0.670730
vt 0.608448 0.668037
vt 0.731972 0.666296
vt 0.754807 0.669439
vt 0.762516 0.692192
vt 0.745202 0.687203
vt 0.810241 0.631541
vt 0.817618 0.609852
vt 0.834180 0.613025
vt 0.825743 0.631715
vt 0.826748 0.521269
vt 0.838539 0.521276
vt 0.724309 0.631540
vt 0.708807 0.631715
vt 0.700370 0.613025
vt 0.716931 0.609851
vt 0.696011 0.521276
vt 0.707802 0.521269
vt 0.822344 0.441789
vt 0.835055 0.442775
vt 0.712206 0.441789
vt 0.699496 0.442775
vt 0.817133 0.358531
vt 0.828629 0.359520
vt 0.705921 0.359520
vt 0.717416 0.358531
vt 0.818635 0.285737
vt 0.829903 0.286533
vt 0.836375 0.216911
vt 0.825492 0.216147
vt 0.704646 0.286533
vt 0.715914 0.285736
vt 0.698175 0.216912
vt 0.709058 0.216147
vt 0.843578 0.145309
vt 0.832025 0.144933
vt 0.690972 0.145309
vt 0.702525 0.144933
vt 0.833332 0.082720
vt 0.701217 0.082720
vt 0.833234 0.030999
vt 0.701316 0.030999
vt 0.844054 0.014072
vt 0.852549 0.021968
vt 0.682001 0.021968
vt 0.690496 0.014072
vt 0.864727 0.008472
vt 0.863677 0.019675
vt 0.670872 0.019675
vt 0.669822 0.008472
vt 0.886138 0.023084
vt 0.887294 0.010477
vt 0.648412 0.023084
vt 0.647256 0.010477
vt 0.911373 0.643919
vt 0.924636 0.642008
vt 0.797147 0.651530
vt 0.817892 0.649983
vt 0.609914 0.642008
vt 0.623177 0.643919
vt 0.716658 0.649983
vt 0.737402 0.651530
vt 0.603038 0.114189
vt 0.603143 0.165509
vt 0.543229 0.164258
vt 0.544969 0.114021
vt 0.601686 0.234121
vt 0.540819 0.232252
vt 0.599043 0.303118
vt 0.538777 0.301020
vt 0.596394 0.372947
vt 0.536372 0.370798
vt 0.594338 0.442727
vt 0.533415 0.440673
vt 0.591791 0.522999
vt 0.530775 0.521439
vt 0.590737 0.598935
vt 0.528765 0.598683
vt 0.594511 0.692625
vt 0.527324 0.695053
vt 0.595619 0.708810
vt 0.527647 0.712219
vt 0.597008 0.725003
vt 0.528304 0.729341
vt 0.598123 0.735814
vt 0.528900 0.740710
vt 0.599778 0.750287
vt 0.529903 0.755767
vt 0.931039 0.673993
vt 0.930234 0.651219
vt 0.990700 0.649947
vt 0.991234 0.672316
vt 0.929350 0.627329
vt 0.990744 0.626573
vt 0.928647 0.603611
vt 0.991114 0.603357
vt 0.929181 0.581044
vt 0.990638 0.581230
vt 0.932849 0.493287
vt 0.988811 0.494107
vt 0.935383 0.415151
vt 0.989196 0.416223
vt 0.938172 0.332794
vt 0.989904 0.333833
vt 0.939303 0.260809
vt 0.991520 0.261531
vt 0.939119 0.192169
vt 0.992995 0.191999
vt 0.937627 0.122960
vt 0.992439 0.120899
vt 0.933976 0.063602
vt 0.988858 0.059019
vt 0.928647 0.014246
vt 0.983065 0.008473
vt 0.597025 0.008473
vt 0.597999 0.027528
vt 0.544692 0.030934
vt 0.542306 0.012282
vt 0.599546 0.048442
vt 0.545892 0.051089
vt 0.600279 0.071328
vt 0.547022 0.072892
vt 0.601487 0.090790
vt 0.546510 0.091486
vt 0.732937 0.480394
vt 0.730093 0.492170
vt 0.728277 0.492105
vt 0.731583 0.478624
vt 0.737578 0.633807
vt 0.730903 0.617668
vt 0.732740 0.617761
vt 0.738711 0.632117
vt 0.804004 0.478624
vt 0.807366 0.492133
vt 0.805551 0.492196
vt 0.802658 0.480397
vt 0.796698 0.632149
vt 0.802662 0.617823
vt 0.804498 0.617733
vt 0.797833 0.633837
vt 0.602868 0.769880
vt 0.530975 0.775832
vt 0.926525 0.687961
vt 0.912904 0.688947
vt 0.621646 0.688947
vt 0.608025 0.687961
vt 0.790400 0.702329
vt 0.774798 0.707355
vt 0.931748 0.688985
vt 0.991802 0.687180
vt 0.759751 0.707355
vt 0.744150 0.702329
s 1
usemtl Material
f 3/1/1 16/2/2 15/3/3 7/4/4
f 1/5/5 8/6/6 12/7/7 10/8/5
f 5/9/8 16/2/2 4/10/8
f 11/11/9 12/7/7 8/6/6 2/12/10
f 10/8/5 12/7/7 18/13/11 9/14/5
f 15/3/3 16/2/2 17/15/12 14/16/13
f 14/16/13 17/15/12 18/13/11 13/17/14
f 13/17/14 18/13/11 12/7/7 11/11/9
f 9/14/5 18/13/11 17/15/12 6/18/15
f 6/18/15 17/15/12 16/2/2 5/9/8
f 16/2/2 3/1/1 4/10/8
f 9/19/16 6/20/17 23/21/18 25/22/16
f 6/20/17 5/23/19 22/24/20 23/21/18
f 8/25/21 1/26/21 19/27/21 24/28/21
f 5/23/19 4/29/22 21/30/23 22/24/20
f 2/31/21 8/25/21 24/28/21
f 4/29/22 3/32/24 20/33/25 21/30/23
f 1/34/26 10/35/27 26/36/27 19/37/26
f 3/32/24 7/38/28 20/33/25
f 10/35/27 9/19/16 25/22/16 26/36/27
f 28/39/29 7/40/30 15/41/31 36/42/32
f 27/43/33 34/44/33 35/45/34 32/46/35
f 30/47/36 29/48/36 36/42/32
f 11/49/37 2/50/38 32/46/35 35/45/34
f 34/44/33 33/51/33 38/52/39 35/45/34
f 15/41/31 14/53/40 37/54/41 36/42/32
f 14/53/40 13/55/42 38/52/39 37/54/41
f 13/55/42 11/49/37 35/45/34 38/52/39
f 33/51/33 31/56/43 37/54/41 38/52/39
f 31/56/43 30/47/36 36/42/32 37/54/41
f 36/42/32 29/48/36 28/39/29
f 33/57/16 25/22/16 23/21/18 31/58/17
f 31/58/17 23/21/18 22/24/20 30/59/19
f 32/60/21 24/28/21 19/27/21 27/61/21
f 30/59/19 22/24/20 21/30/23 29/62/22
f 2/31/21 24/28/21 32/60/21
f 29/62/22 21/30/23 20/33/25 28/63/24
f 27/64/26 19/37/26 26/36/27 34/65/27
f 28/63/24 20/33/25 7/38/28
f 34/65/27 26/36/27 25/22/16 33/57/16
f 125/66/44 126/67/45 153/68/46
f 127/69/47 154/70/48 128/71/49
f 151/72/50 140/73/51 139/74/52
f 152/75/53 141/76/54 142/77/55
f 113/78/56 115/79/57 41/80/58 39/81/59
f 39/81/59 92/82/60 111/83/61 113/78/56
f 114/84/62 40/85/63 42/86/64 116/87/65
f 40/85/63 114/84/62 112/88/66 94/89/67
f 115/79/57 117/90/68 43/91/69 41/80/58
f 116/87/65 42/86/64 44/92/70 118/93/71
f 117/90/68 157/94/72 155/95/73 43/91/69
f 118/93/71 44/92/70 156/96/74 158/97/75
f 119/98/76 121/99/77 47/100/78 45/101/79
f 45/101/79 155/95/73 157/94/72 119/98/76
f 120/102/80 46/103/81 48/104/82 122/105/83
f 46/103/81 120/102/80 158/97/75 156/96/74
f 123/106/84 49/107/85 47/100/78 121/99/77
f 124/108/86 122/105/83 48/104/82 50/109/87
f 49/107/85 123/106/84 126/67/45 51/110/88
f 50/109/87 52/111/89 128/71/49 124/108/86
f 51/110/88 126/67/45 125/66/44 53/112/90
f 52/111/89 54/113/91 127/69/47 128/71/49
f 53/112/90 125/66/44 143/114/92 81/115/93
f 54/113/91 82/116/94 144/117/95 127/69/47
f 83/118/96 55/119/97 105/120/98 107/121/99
f 97/122/100 95/123/101 56/124/102 84/125/103
f 85/126/104 108/127/105 106/128/106 57/129/107
f 98/130/108 86/131/109 58/132/110 96/133/111
f 91/134/112 59/135/113 103/136/114 101/137/115
f 103/136/114 59/135/113 61/138/116 129/139/117
f 93/140/118 102/141/119 104/142/120 60/143/121
f 104/142/120 130/144/122 62/145/123 60/143/121
f 63/146/124 131/147/125 129/139/117 61/138/116
f 64/148/126 62/145/123 130/144/122 132/149/127
f 131/147/125 63/146/124 159/150/128 160/151/129
f 132/149/127 162/152/130 161/153/131 64/148/126
f 160/151/129 159/150/128 65/154/132 133/155/133
f 135/156/134 133/155/133 65/154/132 67/157/135
f 162/152/130 134/158/136 66/159/137 161/153/131
f 136/160/138 68/161/139 66/159/137 134/158/136
f 137/162/140 135/156/134 67/157/135 69/163/141
f 138/164/142 70/165/143 68/161/139 136/160/138
f 71/166/144 140/73/51 137/162/140 69/163/141
f 72/167/145 70/165/143 138/164/142 142/77/55
f 140/73/51 71/166/144 73/168/146 139/74/52
f 142/77/55 141/76/54 74/169/147 72/167/145
f 73/168/146 75/170/148 145/171/149 139/74/52
f 74/169/147 141/76/54 146/172/150 76/173/151
f 75/170/148 77/174/152 149/175/153 145/171/149
f 76/173/151 146/172/150 150/176/154 78/177/155
f 147/178/156 149/175/153 77/174/152 79/179/157
f 148/180/158 80/181/159 78/177/155 150/176/154
f 79/179/157 81/115/93 143/114/92 147/178/156
f 80/181/159 148/180/158 144/117/95 82/116/94
f 107/121/99 109/182/160 87/183/161 83/118/96
f 84/125/103 88/184/162 99/185/163 97/122/100
f 108/127/105 85/126/104 89/186/164 110/187/165
f 86/131/109 98/130/108 100/188/166 90/189/167
f 109/182/160 111/83/61 92/82/60 87/183/161
f 88/184/162 91/134/112 101/137/115 99/185/163
f 110/187/165 89/186/164 94/89/67 112/88/66
f 90/189/167 100/188/166 102/141/119 93/140/118
f 95/123/101 97/122/100 107/121/99 105/120/98
f 96/133/111 106/128/106 108/127/105 98/130/108
f 97/122/100 99/185/163 109/182/160 107/121/99
f 98/130/108 108/127/105 110/187/165 100/188/166
f 99/185/163 101/137/115 111/83/61 109/182/160
f 100/188/166 110/187/165 112/88/66 102/141/119
f 101/137/115 103/136/114 113/78/56 111/83/61
f 102/141/119 112/88/66 114/84/62 104/142/120
f 103/136/114 129/139/117 115/79/57 113/78/56
f 104/142/120 114/84/62 116/87/65 130/144/122
f 117/90/68 115/79/57 129/139/117 131/147/125
f 118/93/71 132/149/127 130/144/122 116/87/65
f 160/151/129 157/94/72 117/90/68 131/147/125
f 162/152/130 132/149/127 118/93/71 158/97/75
f 119/98/76 133/155/133 135/156/134 121/99/77
f 120/102/80 122/105/83 136/160/138 134/158/136
f 121/99/77 135/156/134 137/162/140 123/106/84
f 122/105/83 124/108/86 138/164/142 136/160/138
f 123/106/84 137/162/140 140/73/51 126/67/45
f 124/108/86 128/71/49 142/77/55 138/164/142
f 125/66/44 153/68/46 147/178/156 143/114/92
f 126/67/45 140/73/51 151/72/50 153/68/46
f 127/69/47 144/117/95 148/180/158 154/70/48
f 128/71/49 154/70/48 152/75/53 142/77/55
f 139/74/52 145/171/149 149/175/153 151/72/50
f 141/76/54 152/75/53 150/176/154 146/172/150
f 133/155/133 119/98/76 157/94/72 160/151/129
f 134/158/136 162/152/130 158/97/75 120/102/80
f 153/68/46 151/72/50 149/175/153 147/178/156
f 154/70/48 148/180/158 150/176/154 152/75/53
f 54/190/91 52/191/89 51/192/88 53/193/90
f 52/191/89 50/194/87 49/195/85 51/192/88
f 50/194/87 48/196/82 47/197/78 49/195/85
f 48/196/82 46/198/81 45/199/79 47/197/78
f 46/198/81 156/200/74 155/201/73 45/199/79
f 156/200/74 44/202/70 43/203/69 155/201/73
f 44/202/70 42/204/64 41/205/58 43/203/69
f 42/204/64 40/206/63 39/207/59 41/205/58
f 40/206/63 94/208/67 92/209/60 39/207/59
f 94/208/67 89/210/164 87/211/161 92/209/60
f 89/210/164 85/212/104 83/213/96 87/211/161
f 85/212/104 57/214/107 55/215/97 83/213/96
f 58/216/110 86/217/109 84/218/103 56/219/102
f 86/217/109 90/220/167 88/221/162 84/218/103
f 90/220/167 93/222/118 91/223/112 88/221/162
f 93/222/118 60/224/121 59/225/113 91/223/112
f 60/224/121 62/226/123 61/227/116 59/225/113
f 62/226/123 64/228/126 63/229/124 61/227/116
f 64/228/126 161/230/131 159/231/128 63/229/124
f 161/230/131 66/232/137 65/233/132 159/231/128
f 66/232/137 68/234/139 67/235/135 65/233/132
f 68/234/139 70/236/143 69/237/141 67/235/135
f 70/236/143 72/238/145 71/239/144 69/237/141
f 72/238/145 74/240/147 73/241/146 71/239/144
f 74/242/147 76/243/151 75/244/148 73/245/146
f 76/243/151 78/246/155 77/247/152 75/244/148
f 78/246/155 80/248/159 79/249/157 77/247/152
f 80/248/159 82/250/94 81/251/93 79/249/157
f 82/250/94 54/190/91 53/193/90 81/251/93
f 163/252/168 175/253/169 176/254/170 164/255/171
f 168/256/172 171/257/173 172/258/174 167/259/175
f 166/260/176 177/261/177 178/262/178 165/263/179
f 169/264/180 173/265/181 174/266/182 170/267/183
f 171/257/173 176/254/170 175/253/169 172/258/174
f 173/265/181 178/262/178 177/261/177 174/266/182
f 165/263/179 163/252/168 164/255/171 166/260/176
f 167/259/175 169/264/180 170/267/183 168/256/172
f 57/214/107 166/268/176 164/269/171 55/215/97
f 55/119/97 164/270/171 176/271/170 105/120/98
f 165/263/179 178/262/178 175/253/169 163/252/168
f 57/129/107 106/128/106 177/272/177 166/273/176
f 173/265/181 169/264/180 167/259/175 172/258/174
f 95/123/101 171/274/173 168/275/172 56/124/102
f 170/276/183 58/216/110 56/219/102 168/277/172
f 96/133/111 58/132/110 170/278/183 174/279/182
f 171/274/173 95/123/101 105/120/98 176/271/170
f 178/262/178 173/265/181 172/258/174 175/253/169
f 174/279/182 177/272/177 106/128/106 96/133/111
