# Blender 5.0.1
# www.blender.org
mtllib Pisau01.mtl
o Pisau01
v -0.003106 0.012206 0.045985
v -0.003130 0.013132 0.000662
v 0.000000 -0.044595 0.175901
v -0.002916 0.005473 0.024299
v -0.002403 -0.012864 0.000662
v 0.000000 -0.044595 0.003342
v -0.003118 0.012669 0.024299
v -0.002254 -0.018192 0.002328
v -0.002096 -0.023811 0.003294
v -0.001931 -0.029708 0.003785
v -0.001799 -0.034429 0.003994
v -0.003094 0.011742 0.067671
v -0.003094 0.011742 0.089358
v -0.003094 0.011742 0.111044
v -0.003106 0.012206 0.133564
v -0.003118 0.012669 0.154417
v 0.000000 -0.044595 0.154417
v 0.000000 -0.044595 0.133564
v 0.000000 -0.044595 0.111044
v 0.000000 -0.044595 0.089358
v 0.000000 -0.044595 0.067671
v 0.000000 -0.044595 0.045985
v 0.000000 -0.044595 0.024299
v -0.001801 -0.034379 0.133564
v -0.001801 -0.034409 0.067671
v -0.001802 -0.034349 0.154417
v -0.001801 -0.034409 0.089358
v -0.001802 -0.034348 0.024299
v -0.001802 -0.034318 0.175901
v -0.001801 -0.034409 0.111044
v -0.001801 -0.034379 0.045985
v -0.001932 -0.029708 0.024299
v -0.002097 -0.023811 0.024299
v -0.002254 -0.018192 0.024299
v -0.002403 -0.012864 0.024299
v -0.001931 -0.029708 0.175901
v -0.002096 -0.023811 0.175901
v -0.002254 -0.018192 0.175901
v -0.002403 -0.012864 0.175901
v -0.001932 -0.029708 0.111044
v -0.002098 -0.023811 0.111044
v -0.002255 -0.018192 0.111044
v -0.002404 -0.012864 0.111044
v -0.001932 -0.029708 0.045985
v -0.002097 -0.023811 0.045985
v -0.002255 -0.018192 0.045985
v -0.002404 -0.012864 0.045985
v -0.001932 -0.029708 0.133564
v -0.002097 -0.023811 0.133564
v -0.002255 -0.018192 0.133564
v -0.002404 -0.012864 0.133564
v -0.001932 -0.029708 0.067671
v -0.002098 -0.023811 0.067671
v -0.002255 -0.018192 0.067671
v -0.002404 -0.012864 0.067671
v -0.001932 -0.029708 0.154417
v -0.002097 -0.023811 0.154417
v -0.002254 -0.018192 0.154417
v -0.002403 -0.012864 0.154417
v -0.001932 -0.029708 0.089358
v -0.002098 -0.023811 0.089358
v -0.002255 -0.018192 0.089358
v -0.002404 -0.012864 0.089358
v 0.000000 0.012219 0.045985
v 0.000000 0.013145 0.000662
v -0.002925 0.005806 0.000662
v 0.000000 -0.012860 0.000662
v 0.000000 0.012682 0.024299
v 0.000000 -0.018190 0.002328
v 0.000000 -0.023811 0.003294
v 0.000000 -0.029711 0.003785
v 0.000000 -0.034434 0.003994
v 0.000000 0.011755 0.067671
v 0.000000 0.011755 0.089358
v 0.000000 0.011755 0.111044
v 0.000000 0.012219 0.133564
v 0.000000 0.012682 0.154417
v 0.000000 -0.034323 0.175901
v 0.000000 -0.029711 0.175901
v 0.000000 -0.023811 0.175901
v 0.000000 -0.018190 0.175901
v 0.000000 -0.012860 0.175901
v -0.002809 0.001666 0.175901
v -0.003123 0.012885 0.164436
v -0.002931 0.006035 0.175028
v -0.003034 0.009701 0.172543
v -0.003101 0.012107 0.168824
v 0.000000 0.012898 0.164436
v 0.000000 0.001679 0.175901
v 0.000000 0.012120 0.168824
v 0.000000 0.009714 0.172543
v 0.000000 0.006048 0.175028
v -0.002908 0.005141 0.045985
v -0.002900 0.004808 0.067671
v -0.002900 0.004808 0.089358
v -0.002900 0.004808 0.111044
v -0.002908 0.005141 0.133564
v -0.002916 0.005473 0.154417
v 0.000000 0.005817 0.000662
v -0.002775 0.000342 0.089358
v -0.002775 0.000342 0.067671
v -0.002787 0.000839 0.024299
v -0.002793 0.001088 0.000662
v -0.002781 0.000591 0.045985
v -0.002775 0.000342 0.111044
v -0.002781 0.000591 0.133564
v -0.002787 0.000839 0.154417
v 0.000000 0.001097 0.000662
v 0.000000 -0.044595 0.164622
v -0.001802 -0.034334 0.164622
v -0.001932 -0.029708 0.164622
v -0.002097 -0.023811 0.164622
v -0.002254 -0.018192 0.164622
v -0.002403 -0.012864 0.164622
v -0.002924 0.005741 0.164622
v -0.002797 0.001234 0.164622
v -0.001802 -0.034326 0.170168
v -0.001932 -0.029708 0.170168
v -0.002096 -0.023811 0.170167
v -0.002254 -0.018192 0.170167
v -0.002403 -0.012864 0.170167
v -0.002927 0.005886 0.169738
v -0.002803 0.001447 0.170167
v 0.000000 -0.044595 0.170168
v 0.003106 0.012206 0.045985
v 0.003130 0.013132 0.000662
v 0.002916 0.005473 0.024299
v 0.002403 -0.012864 0.000662
v 0.003118 0.012669 0.024299
v 0.002254 -0.018192 0.002328
v 0.002096 -0.023811 0.003294
v 0.001931 -0.029708 0.003785
v 0.001799 -0.034429 0.003994
v 0.003094 0.011742 0.067671
v 0.003094 0.011742 0.089358
v 0.003094 0.011742 0.111044
v 0.003106 0.012206 0.133564
v 0.003118 0.012669 0.154417
v 0.001801 -0.034379 0.133564
v 0.001801 -0.034409 0.067671
v 0.001802 -0.034349 0.154417
v 0.001801 -0.034409 0.089358
v 0.001802 -0.034348 0.024299
v 0.001802 -0.034318 0.175901
v 0.001801 -0.034409 0.111044
v 0.001801 -0.034379 0.045985
v 0.001932 -0.029708 0.024299
v 0.002097 -0.023811 0.024299
v 0.002254 -0.018192 0.024299
v 0.002403 -0.012864 0.024299
v 0.001931 -0.029708 0.175901
v 0.002096 -0.023811 0.175901
v 0.002254 -0.018192 0.175901
v 0.002403 -0.012864 0.175901
v 0.001932 -0.029708 0.111044
v 0.002098 -0.023811 0.111044
v 0.002255 -0.018192 0.111044
v 0.002404 -0.012864 0.111044
v 0.001932 -0.029708 0.045985
v 0.002097 -0.023811 0.045985
v 0.002255 -0.018192 0.045985
v 0.002404 -0.012864 0.045985
v 0.001932 -0.029708 0.133564
v 0.002097 -0.023811 0.133564
v 0.002255 -0.018192 0.133564
v 0.002404 -0.012864 0.133564
v 0.001932 -0.029708 0.067671
v 0.002098 -0.023811 0.067671
v 0.002255 -0.018192 0.067671
v 0.002404 -0.012864 0.067671
v 0.001932 -0.029708 0.154417
v 0.002097 -0.023811 0.154417
v 0.002254 -0.018192 0.154417
v 0.002403 -0.012864 0.154417
v 0.001932 -0.029708 0.089358
v 0.002098 -0.023811 0.089358
v 0.002255 -0.018192 0.089358
v 0.002404 -0.012864 0.089358
v 0.002925 0.005806 0.000662
v 0.002809 0.001666 0.175901
v 0.003123 0.012885 0.164436
v 0.002931 0.006035 0.175028
v 0.003034 0.009701 0.172543
v 0.003101 0.012107 0.168824
v 0.002908 0.005141 0.045985
v 0.002900 0.004808 0.067671
v 0.002900 0.004808 0.089358
v 0.002900 0.004808 0.111044
v 0.002908 0.005141 0.133564
v 0.002916 0.005473 0.154417
v 0.002775 0.000342 0.089358
v 0.002775 0.000342 0.067671
v 0.002787 0.000839 0.024299
v 0.002793 0.001088 0.000662
v 0.002781 0.000591 0.045985
v 0.002775 0.000342 0.111044
v 0.002781 0.000591 0.133564
v 0.002787 0.000839 0.154417
v 0.001802 -0.034334 0.164622
v 0.001932 -0.029708 0.164622
v 0.002097 -0.023811 0.164622
v 0.002254 -0.018192 0.164622
v 0.002403 -0.012864 0.164622
v 0.002924 0.005741 0.164622
v 0.002797 0.001234 0.164622
v 0.001802 -0.034326 0.170168
v 0.001932 -0.029708 0.170168
v 0.002096 -0.023811 0.170167
v 0.002254 -0.018192 0.170167
v 0.002403 -0.012864 0.170167
v 0.002927 0.005886 0.169738
v 0.002803 0.001447 0.170167
v 0.004685 0.014798 -0.014607
v -0.004685 0.014798 -0.014607
v 0.004297 0.015475 -0.032439
v -0.004297 0.015475 -0.032439
v 0.004236 0.016080 -0.046813
v -0.004236 0.016080 -0.046813
v 0.004172 0.016411 -0.075068
v -0.004172 0.016411 -0.075068
v 0.004189 0.016284 -0.088188
v -0.004189 0.016284 -0.088188
v 0.004229 0.015757 -0.101123
v -0.004229 0.015757 -0.101123
v 0.004161 0.014374 -0.113883
v -0.004161 0.014374 -0.113883
v 0.004036 0.011688 -0.123034
v -0.004036 0.011688 -0.123034
v 0.004880 0.014462 -0.003480
v 0.004190 -0.014505 -0.002444
v -0.004880 0.014462 -0.003480
v -0.004190 -0.014505 -0.002444
v 0.004271 -0.004270 -0.016010
v -0.004271 -0.004270 -0.016010
v 0.003886 -0.001568 -0.032211
v -0.003886 -0.001568 -0.032211
v 0.003738 -0.002014 -0.046860
v -0.003738 -0.002014 -0.046860
v 0.003625 -0.003069 -0.075852
v -0.003625 -0.003069 -0.075852
v 0.003737 -0.002205 -0.088799
v -0.003737 -0.002205 -0.088799
v 0.003806 -0.001685 -0.101963
v -0.003806 -0.001685 -0.101963
v 0.003837 -0.002498 -0.113331
v -0.003837 -0.002498 -0.113331
v 0.003830 -0.003750 -0.122686
v -0.003830 -0.003750 -0.122686
v 0.003722 -0.002240 -0.125904
v -0.003722 -0.002240 -0.125904
v 0.003739 0.001313 -0.127422
v -0.003739 0.001313 -0.127422
v 0.003703 0.005506 -0.127592
v -0.003703 0.005506 -0.127592
v 0.003821 0.008815 -0.126249
v -0.003821 0.008815 -0.126249
v 0.004831 0.014546 -0.006262
v 0.004205 -0.012329 -0.006084
v -0.004831 0.014546 -0.006262
v -0.004205 -0.012329 -0.006084
v 0.004795 0.014609 -0.008348
v 0.004267 -0.008788 -0.008761
v -0.004795 0.014609 -0.008348
v -0.004267 -0.008788 -0.008761
v 0.004340 -0.006036 -0.012203
v 0.004740 0.014704 -0.011477
v -0.004340 -0.006036 -0.012203
v -0.004740 0.014704 -0.011477
v 0.005111 -0.011469 -0.002509
v -0.005111 -0.011469 -0.002509
v 0.005207 -0.008430 -0.006094
v -0.005207 -0.008430 -0.006094
v 0.005253 -0.005212 -0.008796
v -0.005253 -0.005212 -0.008796
v 0.005251 -0.003413 -0.012014
v -0.005251 -0.003413 -0.012014
v 0.005348 -0.001545 -0.015311
v -0.005348 -0.001545 -0.015311
v 0.005587 0.012011 -0.003103
v -0.005587 0.012011 -0.003103
v 0.005601 0.012178 -0.005840
v -0.005601 0.012178 -0.005840
v 0.005583 0.012345 -0.008196
v -0.005583 0.012345 -0.008196
v 0.005583 0.012545 -0.011363
v -0.005583 0.012545 -0.011363
v 0.005573 0.012735 -0.014376
v -0.005573 0.012735 -0.014376
v 0.004858 0.013202 -0.032235
v -0.004858 0.013202 -0.032235
v 0.004865 0.013640 -0.046770
v -0.004865 0.013640 -0.046770
v 0.004858 0.014408 -0.075055
v -0.004858 0.014408 -0.075055
v 0.004839 0.014423 -0.088193
v -0.004839 0.014423 -0.088193
v 0.004857 0.013701 -0.101098
v -0.004857 0.013701 -0.101098
v 0.004701 0.009332 -0.122843
v 0.004859 0.011900 -0.113713
v -0.004701 0.009332 -0.122843
v -0.004859 0.011900 -0.113713
v 0.004589 0.000430 -0.032152
v -0.004589 0.000430 -0.032152
v 0.004551 0.000105 -0.046668
v -0.004551 0.000105 -0.046668
v 0.004426 -0.001246 -0.075754
v -0.004426 -0.001246 -0.075754
v 0.004458 -0.000403 -0.088739
v -0.004458 -0.000403 -0.088739
v 0.004527 0.000249 -0.102038
v -0.004527 0.000249 -0.102038
v 0.004676 -0.001593 -0.122706
v 0.004560 -0.000487 -0.113132
v -0.004676 -0.001593 -0.122706
v -0.004560 -0.000487 -0.113132
v 0.004487 0.007852 -0.125093
v -0.004487 0.007852 -0.125093
v 0.004563 -0.000668 -0.124922
v -0.004563 -0.000668 -0.124922
v 0.004531 0.005662 -0.125505
v -0.004531 0.005662 -0.125505
v 0.004516 0.001367 -0.125599
v -0.004516 0.001367 -0.125599
v 0.004841 0.001544 -0.122733
v -0.004841 0.001544 -0.122733
v 0.004834 0.006174 -0.122692
v -0.004834 0.006174 -0.122692
v 0.004233 0.016242 -0.061945
v -0.004233 0.016242 -0.061945
v 0.004858 0.014174 -0.061976
v -0.004858 0.014174 -0.061976
v 0.003593 -0.003083 -0.062299
v 0.004424 -0.001236 -0.062141
v -0.003593 -0.003083 -0.062299
v -0.004424 -0.001236 -0.062141
v 0.004849 0.014007 0.000604
v 0.005031 0.014350 0.000263
v -0.004849 0.014007 0.000604
v -0.005031 0.014350 0.000263
v 0.004033 -0.014493 0.000678
v 0.004186 -0.014791 0.000348
v -0.004033 -0.014493 0.000678
v -0.004186 -0.014791 0.000348
v 0.005112 -0.011764 0.000330
v 0.004857 -0.011799 0.000663
v -0.004857 -0.011799 0.000663
v -0.005112 -0.011764 0.000330
v 0.005243 0.011794 0.000662
v 0.005505 0.011813 0.000329
v -0.005505 0.011813 0.000329
v -0.005243 0.011794 0.000662
vn -0.9996 -0.0280 -0.0000
vn -0.0000 -0.0000 -1.0000
vn -0.9949 -0.1009 -0.0000
vn -0.9948 -0.1017 0.0001
vn -0.9848 -0.1737 0.0003
vn -0.9848 -0.1736 0.0001
vn -0.9949 -0.1009 0.0001
vn -0.9949 -0.1011 0.0001
vn -0.9849 -0.1732 0.0001
vn -0.9949 -0.1013 -0.0000
vn -0.9949 -0.1011 -0.0001
vn -0.9848 -0.1736 -0.0001
vn -0.9848 -0.1739 -0.0001
vn -0.9949 -0.1008 0.0001
vn -0.9849 -0.1730 0.0001
vn -0.9847 -0.1741 -0.0000
vn -0.9848 -0.1739 0.0001
vn -0.0043 0.9998 0.0196
vn -0.0043 0.9998 0.0205
vn -0.0000 0.9998 0.0205
vn -0.0000 0.9998 0.0196
vn -0.0000 -0.1271 -0.9919
vn 0.0002 -0.2355 -0.9719
vn -0.0000 -0.2345 -0.9721
vn -0.0000 -0.1263 -0.9920
vn -0.0000 -0.0000 1.0000
vn -0.0001 -0.0639 -0.9980
vn -0.0000 -0.0636 -0.9980
vn -0.0000 0.0062 -1.0000
vn -0.0000 0.0100 -0.9999
vn -0.0000 0.0641 -0.9979
vn -0.0042 0.9999 0.0107
vn -0.0042 1.0000 -0.0000
vn -0.0000 1.0000 -0.0000
vn -0.0000 0.9999 0.0107
vn -0.0042 0.9999 -0.0103
vn -0.0000 0.9999 -0.0103
vn -0.0042 0.9998 -0.0214
vn -0.0000 0.9998 -0.0214
vn -0.0043 0.9998 -0.0219
vn -0.0000 0.9998 -0.0219
vn -0.0042 0.9998 0.0214
vn -0.0000 0.9998 0.0214
vn 0.0001 -0.1484 -0.9889
vn -0.0000 -0.1508 -0.9886
vn -0.0000 0.9970 0.0769
vn -0.0043 0.9970 0.0768
vn -0.0040 0.9310 0.3651
vn -0.0000 0.9306 0.3659
vn -0.0031 0.7162 0.6979
vn -0.0000 0.7150 0.6992
vn -0.0017 0.3886 0.9214
vn -0.0000 0.3866 0.9223
vn -0.0004 0.0999 0.9950
vn -0.0000 0.0987 0.9951
vn -0.9949 -0.1007 0.0001
vn -0.9849 -0.1729 0.0001
vn -0.9949 -0.1006 0.0001
vn -0.9850 -0.1728 0.0001
vn 0.9996 -0.0280 -0.0000
vn 0.9949 -0.1009 -0.0000
vn 0.9848 -0.1736 0.0001
vn 0.9848 -0.1737 0.0003
vn 0.9948 -0.1017 0.0001
vn 0.9949 -0.1009 0.0001
vn 0.9849 -0.1732 0.0001
vn 0.9949 -0.1011 0.0001
vn 0.9949 -0.1013 -0.0000
vn 0.9848 -0.1739 -0.0001
vn 0.9848 -0.1736 -0.0001
vn 0.9949 -0.1011 -0.0001
vn 0.9949 -0.1008 0.0001
vn 0.9849 -0.1730 0.0001
vn 0.9847 -0.1741 -0.0000
vn 0.9848 -0.1739 0.0001
vn 0.0043 0.9998 0.0196
vn 0.0043 0.9998 0.0205
vn -0.0002 -0.2355 -0.9719
vn 0.0001 -0.0639 -0.9980
vn 0.0042 0.9999 0.0107
vn 0.0042 1.0000 -0.0000
vn 0.0042 0.9999 -0.0103
vn 0.0042 0.9998 -0.0214
vn 0.0043 0.9998 -0.0219
vn 0.0042 0.9998 0.0214
vn -0.0001 -0.1484 -0.9889
vn 0.0040 0.9310 0.3651
vn 0.0043 0.9970 0.0768
vn 0.0031 0.7162 0.6979
vn 0.0017 0.3886 0.9214
vn 0.0004 0.0999 0.9950
vn 0.9949 -0.1007 0.0001
vn 0.9849 -0.1729 0.0001
vn 0.9949 -0.1006 0.0001
vn 0.9850 -0.1728 0.0001
vn 0.9768 0.1623 -0.1395
vn 0.9903 0.1353 -0.0323
vn 0.9984 0.0117 -0.0548
vn -0.9768 0.1623 -0.1395
vn -0.9984 0.0117 -0.0548
vn -0.9903 0.1353 -0.0323
vn 0.9988 -0.0242 -0.0421
vn 0.9822 -0.1865 0.0239
vn 0.9713 -0.2294 -0.0623
vn -0.9988 -0.0242 -0.0421
vn -0.9713 -0.2294 -0.0623
vn -0.9822 -0.1865 0.0239
vn 0.9852 0.1712 -0.0111
vn 0.9910 0.1332 -0.0147
vn 0.5992 0.8003 0.0219
vn 0.5734 0.8191 0.0165
vn 0.5638 0.8256 0.0231
vn 0.9846 0.1748 0.0044
vn -0.9852 0.1712 -0.0111
vn -0.5734 0.8191 0.0165
vn -0.5992 0.8003 0.0219
vn -0.9910 0.1332 -0.0147
vn -0.9846 0.1748 0.0044
vn -0.5638 0.8256 0.0231
vn 0.9931 0.1170 0.0020
vn 0.6061 0.7952 0.0208
vn -0.6061 0.7952 0.0208
vn -0.9931 0.1170 0.0020
vn 0.9912 0.1327 0.0012
vn 0.5976 0.8017 0.0099
vn -0.5976 0.8017 0.0099
vn -0.9912 0.1327 0.0012
vn 0.9890 0.1478 0.0001
vn 0.9884 0.1515 -0.0030
vn 0.5807 0.8139 -0.0199
vn 0.5818 0.8134 0.0013
vn -0.9890 0.1478 0.0001
vn -0.5818 0.8134 0.0013
vn -0.5807 0.8139 -0.0199
vn -0.9884 0.1515 -0.0030
vn 0.9900 0.1407 -0.0116
vn 0.5881 0.8064 -0.0617
vn -0.9900 0.1407 -0.0116
vn -0.5881 0.8064 -0.0617
vn 0.5854 0.7943 -0.1627
vn -0.5854 0.7943 -0.1627
vn 0.5568 0.7246 -0.4062
vn -0.5568 0.7246 -0.4062
vn 0.9573 0.1301 -0.2581
vn 0.5194 0.4777 -0.7085
vn -0.5194 0.4777 -0.7085
vn -0.9573 0.1301 -0.2581
vn 0.5880 0.8085 0.0224
vn 0.6028 0.7976 0.0217
vn 0.9927 0.1206 0.0065
vn 0.9895 0.1442 0.0032
vn 0.9799 -0.1442 -0.1379
vn 0.9826 -0.1732 -0.0675
vn 0.5572 -0.7894 -0.2577
vn 0.5459 -0.6315 -0.5507
vn -0.5880 0.8085 0.0224
vn -0.9895 0.1442 0.0032
vn -0.9927 0.1206 0.0065
vn -0.6028 0.7976 0.0217
vn -0.9799 -0.1442 -0.1379
vn -0.5459 -0.6315 -0.5507
vn -0.5572 -0.7894 -0.2577
vn -0.9826 -0.1732 -0.0675
vn 0.5978 -0.6841 -0.4179
vn 0.5942 -0.7646 -0.2497
vn 0.9858 -0.1567 -0.0608
vn 0.9823 -0.1659 -0.0867
vn 0.5880 -0.8062 -0.0653
vn 0.9837 -0.1770 -0.0309
vn -0.5978 -0.6841 -0.4179
vn -0.9823 -0.1659 -0.0867
vn -0.9858 -0.1567 -0.0608
vn -0.5942 -0.7646 -0.2497
vn -0.9837 -0.1770 -0.0309
vn -0.5880 -0.8062 -0.0653
vn 0.5658 -0.8237 0.0379
vn 0.9812 -0.1932 0.0045
vn -0.5658 -0.8237 0.0379
vn -0.9812 -0.1932 0.0045
vn 0.5424 -0.8397 0.0270
vn 0.9756 -0.2196 0.0055
vn -0.9756 -0.2196 0.0055
vn -0.5424 -0.8397 0.0270
vn 0.5434 -0.8391 -0.0263
vn 0.9756 -0.2195 -0.0051
vn 0.9794 -0.2019 -0.0071
vn 0.5623 -0.8259 -0.0414
vn -0.9756 -0.2195 -0.0051
vn -0.5434 -0.8391 -0.0263
vn -0.9794 -0.2019 -0.0071
vn -0.5623 -0.8259 -0.0414
vn 0.9827 -0.1852 0.0059
vn 0.5789 -0.8153 0.0142
vn -0.9827 -0.1852 0.0059
vn -0.5789 -0.8153 0.0142
vn 0.5750 -0.8137 0.0856
vn -0.5750 -0.8137 0.0856
vn 0.5243 -0.8414 -0.1311
vn -0.5243 -0.8414 -0.1311
vn 0.4908 -0.6060 -0.6260
vn 0.9545 -0.1739 -0.2421
vn -0.9545 -0.1739 -0.2421
vn -0.4908 -0.6060 -0.6260
vn 0.5197 -0.1781 -0.8356
vn 0.9608 -0.0556 -0.2716
vn -0.9608 -0.0556 -0.2716
vn -0.5197 -0.1781 -0.8356
vn 0.9650 0.0404 -0.2593
vn 0.5162 0.1367 -0.8455
vn -0.9650 0.0404 -0.2593
vn -0.5162 0.1367 -0.8455
vn 0.9872 0.1593 -0.0002
vn 0.5771 0.8164 0.0226
vn 0.5833 -0.5674 -0.5812
vn 0.9860 -0.1342 -0.0992
vn -0.5771 0.8164 0.0226
vn -0.9872 0.1593 -0.0002
vn -0.9860 -0.1342 -0.0992
vn -0.5833 -0.5674 -0.5812
vn 0.3418 0.3457 0.8739
vn 0.4596 0.0490 0.8868
vn 0.9425 0.0924 0.3212
vn 0.5792 0.7285 0.3658
vn 0.5477 -0.7800 0.3027
vn 0.9415 -0.1473 0.3031
vn 0.4733 -0.0809 0.8772
vn 0.3271 -0.3775 0.8663
vn -0.5792 0.7285 0.3658
vn -0.9425 0.0924 0.3212
vn -0.4596 0.0490 0.8868
vn -0.3418 0.3457 0.8739
vn -0.3271 -0.3775 0.8663
vn -0.4733 -0.0809 0.8772
vn -0.9415 -0.1473 0.3031
vn -0.5477 -0.7800 0.3027
vt 0.323766 0.780013
vt 0.286159 0.779925
vt 0.286539 0.720268
vt 0.323437 0.720426
vt 0.285935 0.844914
vt 0.271208 0.840282
vt 0.271544 0.779864
vt 0.286851 0.660677
vt 0.323113 0.660815
vt 0.287058 0.601109
vt 0.323335 0.601195
vt 0.287160 0.541529
vt 0.323426 0.541559
vt 0.287140 0.479636
vt 0.324060 0.479604
vt 0.286957 0.422284
vt 0.324598 0.422254
vt 0.066154 0.864978
vt 0.053193 0.865328
vt 0.053181 0.857293
vt 0.066140 0.857307
vt 0.227231 0.779443
vt 0.226290 0.835246
vt 0.197795 0.836383
vt 0.198721 0.779046
vt 0.228008 0.422636
vt 0.228113 0.479784
vt 0.199630 0.479871
vt 0.199458 0.422950
vt 0.227687 0.660444
vt 0.227540 0.719927
vt 0.199056 0.719760
vt 0.199278 0.660352
vt 0.227767 0.394650
vt 0.199165 0.395173
vt 0.227870 0.600969
vt 0.199463 0.600898
vt 0.228003 0.541508
vt 0.199590 0.541479
vt 0.012873 0.988898
vt 0.012905 0.923974
vt 0.021467 0.923973
vt 0.021468 0.988897
vt 0.272424 0.601074
vt 0.272533 0.541523
vt 0.256988 0.601037
vt 0.257107 0.541519
vt 0.240787 0.600998
vt 0.240914 0.541515
vt 0.271929 0.720200
vt 0.256133 0.779760
vt 0.256524 0.720116
vt 0.239957 0.779602
vt 0.240353 0.720016
vt 0.272523 0.479655
vt 0.257110 0.479692
vt 0.240931 0.479741
vt 0.336485 0.780005
vt 0.356245 0.779968
vt 0.357660 0.844667
vt 0.337491 0.844839
vt 0.255661 0.837522
vt 0.239342 0.836007
vt 0.272331 0.422324
vt 0.256916 0.422395
vt 0.240740 0.422514
vt 0.272220 0.660618
vt 0.256793 0.660556
vt 0.240599 0.660491
vt 0.286813 0.394223
vt 0.272143 0.394238
vt 0.256687 0.394305
vt 0.240479 0.394456
vt 0.135459 0.863144
vt 0.119801 0.863558
vt 0.119804 0.857368
vt 0.135466 0.857386
vt 0.016516 0.391427
vt 0.021465 0.363206
vt 0.021465 0.391415
vt 0.151711 0.862709
vt 0.151722 0.857405
vt 0.016161 0.404088
vt 0.021465 0.404082
vt 0.164690 0.862361
vt 0.164707 0.857420
vt 0.015708 0.420283
vt 0.021465 0.420283
vt 0.192668 0.857451
vt 0.015276 0.435714
vt 0.021465 0.435719
vt 0.012969 0.804836
vt 0.012969 0.745281
vt 0.021467 0.745280
vt 0.021467 0.804836
vt 0.014868 0.450347
vt 0.021466 0.450356
vt 0.012969 0.685726
vt 0.021466 0.685725
vt 0.033063 0.865855
vt 0.033063 0.857270
vt 0.012936 0.623867
vt 0.021466 0.623866
vt 0.324478 0.844897
vt 0.012903 0.566589
vt 0.021466 0.566587
vt 0.012937 0.864405
vt 0.021467 0.864404
vt 0.355954 0.479614
vt 0.336551 0.479606
vt 0.337329 0.422257
vt 0.357098 0.422285
vt 0.104468 0.863949
vt 0.104469 0.857351
vt 0.021466 0.539066
vt 0.012889 0.539065
vt 0.012948 0.526823
vt 0.021466 0.526835
vt 0.013133 0.514653
vt 0.021466 0.514677
vt 0.013415 0.502486
vt 0.021466 0.502518
vt 0.013751 0.490249
vt 0.021466 0.490283
vt 0.326180 0.378992
vt 0.286743 0.378985
vt 0.286728 0.363241
vt 0.326744 0.363244
vt 0.354739 0.541583
vt 0.335690 0.541568
vt 0.354657 0.601281
vt 0.335605 0.601229
vt 0.354427 0.660979
vt 0.335379 0.660874
vt 0.355314 0.720591
vt 0.335922 0.720481
vt 0.338406 0.380147
vt 0.338763 0.365616
vt 0.348877 0.372434
vt 0.325627 0.394215
vt 0.338027 0.394207
vt 0.240255 0.379205
vt 0.227525 0.379434
vt 0.256532 0.379032
vt 0.272038 0.378977
vt 0.198865 0.380069
vt 0.227136 0.363693
vt 0.198420 0.364383
vt 0.271980 0.363206
vt 0.256352 0.363268
vt 0.239938 0.363475
vt 0.357660 0.394746
vt 0.355521 0.382671
vt 0.066789 0.780016
vt 0.067114 0.720429
vt 0.104012 0.720268
vt 0.104396 0.779925
vt 0.104625 0.844914
vt 0.119011 0.779863
vt 0.119352 0.840282
vt 0.067433 0.660818
vt 0.103695 0.660676
vt 0.067201 0.601198
vt 0.103485 0.601107
vt 0.067116 0.541554
vt 0.103376 0.541531
vt 0.066485 0.479598
vt 0.103405 0.479633
vt 0.065956 0.422246
vt 0.103597 0.422282
vt 0.066171 0.849637
vt 0.053212 0.849257
vt 0.163324 0.779439
vt 0.191834 0.779040
vt 0.192764 0.836377
vt 0.164269 0.835242
vt 0.162545 0.422643
vt 0.191095 0.422962
vt 0.190914 0.479879
vt 0.162431 0.479789
vt 0.162859 0.660441
vt 0.191268 0.660346
vt 0.191495 0.719754
vt 0.163011 0.719923
vt 0.162792 0.394657
vt 0.191393 0.395187
vt 0.162671 0.600966
vt 0.191078 0.600895
vt 0.162536 0.541509
vt 0.190950 0.541482
vt 0.030062 0.988898
vt 0.030030 0.923974
vt 0.118004 0.541524
vt 0.118120 0.601071
vt 0.133431 0.541520
vt 0.133555 0.601034
vt 0.149624 0.541515
vt 0.149756 0.600995
vt 0.118622 0.720199
vt 0.134028 0.720114
vt 0.134422 0.779758
vt 0.150198 0.720013
vt 0.150599 0.779599
vt 0.118021 0.479656
vt 0.133433 0.479694
vt 0.149613 0.479745
vt 0.054070 0.780008
vt 0.053068 0.844843
vt 0.032900 0.844671
vt 0.034311 0.779973
vt 0.134898 0.837520
vt 0.151218 0.836004
vt 0.118222 0.422325
vt 0.133638 0.422398
vt 0.149813 0.422519
vt 0.118326 0.660616
vt 0.133753 0.660553
vt 0.149947 0.660488
vt 0.103746 0.394220
vt 0.118416 0.394238
vt 0.133872 0.394307
vt 0.150080 0.394461
vt 0.135472 0.851629
vt 0.119815 0.851179
vt 0.026415 0.391427
vt 0.151723 0.852100
vt 0.026770 0.404088
vt 0.164701 0.852479
vt 0.027223 0.420283
vt 0.027655 0.435714
vt 0.029964 0.804836
vt 0.029964 0.745281
vt 0.028063 0.450347
vt 0.029964 0.685726
vt 0.033083 0.848684
vt 0.029996 0.623867
vt 0.066082 0.844899
vt 0.030029 0.566589
vt 0.029997 0.864405
vt 0.034591 0.479604
vt 0.033456 0.422271
vt 0.053225 0.422247
vt 0.053994 0.479598
vt 0.104483 0.850753
vt 0.029983 0.526823
vt 0.030043 0.539065
vt 0.029798 0.514653
vt 0.029516 0.502486
vt 0.029180 0.490249
vt 0.064382 0.378983
vt 0.063821 0.363235
vt 0.103837 0.363239
vt 0.103819 0.378983
vt 0.035803 0.541579
vt 0.054851 0.541564
vt 0.035880 0.601285
vt 0.054932 0.601232
vt 0.036119 0.660985
vt 0.055166 0.660878
vt 0.035237 0.720597
vt 0.054630 0.720485
vt 0.052156 0.380136
vt 0.041686 0.372420
vt 0.051801 0.365604
vt 0.052533 0.394196
vt 0.064932 0.394206
vt 0.150307 0.379211
vt 0.163037 0.379442
vt 0.134030 0.379035
vt 0.118524 0.378977
vt 0.191696 0.380083
vt 0.163430 0.363701
vt 0.192146 0.364397
vt 0.118585 0.363206
vt 0.134213 0.363270
vt 0.150627 0.363481
vt 0.032900 0.394731
vt 0.035040 0.382657
vt 0.903435 0.039532
vt 0.910921 0.088636
vt 0.886658 0.038353
vt 0.631114 0.039532
vt 0.647892 0.038353
vt 0.623629 0.088636
vt 0.862475 0.035117
vt 0.845088 0.085089
vt 0.846016 0.032944
vt 0.672075 0.035117
vt 0.688534 0.032944
vt 0.689462 0.085090
vt 0.910116 0.611573
vt 0.906596 0.517899
vt 0.919287 0.516205
vt 0.922640 0.609208
vt 0.923608 0.625512
vt 0.910722 0.627331
vt 0.624434 0.611573
vt 0.611910 0.609208
vt 0.615263 0.516205
vt 0.627954 0.517899
vt 0.623828 0.627331
vt 0.610942 0.625512
vt 0.907473 0.441583
vt 0.921233 0.441339
vt 0.613317 0.441339
vt 0.627077 0.441583
vt 0.910672 0.361440
vt 0.922563 0.361778
vt 0.611987 0.361778
vt 0.623878 0.361440
vt 0.913208 0.292332
vt 0.915240 0.223064
vt 0.926193 0.223440
vt 0.924959 0.292523
vt 0.621341 0.292332
vt 0.609590 0.292523
vt 0.608356 0.223440
vt 0.619310 0.223064
vt 0.914733 0.155209
vt 0.926563 0.155760
vt 0.619817 0.155209
vt 0.607987 0.155760
vt 0.925034 0.088957
vt 0.609515 0.088957
vt 0.916885 0.039693
vt 0.617664 0.039693
vt 0.897352 0.026703
vt 0.904116 0.020227
vt 0.630434 0.020227
vt 0.637198 0.026703
vt 0.925320 0.653114
vt 0.926101 0.668037
vt 0.912248 0.670730
vt 0.911734 0.656298
vt 0.802578 0.666296
vt 0.789348 0.687203
vt 0.772034 0.692192
vt 0.779743 0.669439
vt 0.609230 0.653114
vt 0.622816 0.656297
vt 0.622302 0.670730
vt 0.608448 0.668037
vt 0.731972 0.666296
vt 0.754807 0.669439
vt 0.762516 0.692192
vt 0.745202 0.687203
vt 0.810241 0.631541
vt 0.817618 0.609852
vt 0.834180 0.613025
vt 0.825743 0.631715
vt 0.826748 0.521269
vt 0.838539 0.521276
vt 0.724309 0.631540
vt 0.708807 0.631715
vt 0.700370 0.613025
vt 0.716931 0.609851
vt 0.696011 0.521276
vt 0.707802 0.521269
vt 0.822344 0.441789
vt 0.835055 0.442775
vt 0.712206 0.441789
vt 0.699496 0.442775
vt 0.817133 0.358531
vt 0.828629 0.359520
vt 0.705921 0.359520
vt 0.717416 0.358531
vt 0.818635 0.285737
vt 0.829903 0.286533
vt 0.836375 0.216911
vt 0.825492 0.216147
vt 0.704646 0.286533
vt 0.715914 0.285736
vt 0.698175 0.216912
vt 0.709058 0.216147
vt 0.843578 0.145309
vt 0.832025 0.144933
vt 0.690972 0.145309
vt 0.702525 0.144933
vt 0.833332 0.082720
vt 0.701217 0.082720
vt 0.833234 0.030999
vt 0.701316 0.030999
vt 0.844054 0.014072
vt 0.852549 0.021968
vt 0.682001 0.021968
vt 0.690496 0.014072
vt 0.864727 0.008472
vt 0.863677 0.019675
vt 0.670872 0.019675
vt 0.669822 0.008472
vt 0.886138 0.023084
vt 0.887294 0.010477
vt 0.648412 0.023084
vt 0.647256 0.010477
vt 0.911373 0.643919
vt 0.924636 0.642008
vt 0.797147 0.651530
vt 0.817892 0.649983
vt 0.609914 0.642008
vt 0.623177 0.643919
vt 0.716658 0.649983
vt 0.737402 0.651530
vt 0.603038 0.114189
vt 0.603143 0.165509
vt 0.543229 0.164258
vt 0.544969 0.114021
vt 0.601686 0.234121
vt 0.540819 0.232252
vt 0.599043 0.303118
vt 0.538777 0.301020
vt 0.596394 0.372947
vt 0.536372 0.370798
vt 0.594338 0.442727
vt 0.533415 0.440673
vt 0.591791 0.522999
vt 0.530775 0.521439
vt 0.590737 0.598935
vt 0.528765 0.598683
vt 0.594511 0.692625
vt 0.527324 0.695053
vt 0.595619 0.708810
vt 0.527647 0.712219
vt 0.597008 0.725003
vt 0.528304 0.729341
vt 0.598123 0.735814
vt 0.528900 0.740710
vt 0.599778 0.750287
vt 0.529903 0.755767
vt 0.931039 0.673993
vt 0.930234 0.651219
vt 0.990700 0.649947
vt 0.991234 0.672316
vt 0.929350 0.627329
vt 0.990744 0.626573
vt 0.928647 0.603611
vt 0.991114 0.603357
vt 0.929181 0.581044
vt 0.990638 0.581230
vt 0.932849 0.493287
vt 0.988811 0.494107
vt 0.935383 0.415151
vt 0.989196 0.416223
vt 0.938172 0.332794
vt 0.989904 0.333833
vt 0.939303 0.260809
vt 0.991520 0.261531
vt 0.939119 0.192169
vt 0.992995 0.191999
vt 0.937627 0.122960
vt 0.992439 0.120899
vt 0.933976 0.063602
vt 0.988858 0.059019
vt 0.928647 0.014246
vt 0.983065 0.008473
vt 0.597025 0.008473
vt 0.597999 0.027528
vt 0.544692 0.030934
vt 0.542306 0.012282
vt 0.599546 0.048442
vt 0.545892 0.051089
vt 0.600279 0.071328
vt 0.547022 0.072892
vt 0.601487 0.090790
vt 0.546510 0.091486
vt 0.732937 0.480394
vt 0.730093 0.492170
vt 0.728277 0.492105
vt 0.731583 0.478624
vt 0.737578 0.633807
vt 0.730903 0.617668
vt 0.732740 0.617761
vt 0.738711 0.632117
vt 0.804004 0.478624
vt 0.807366 0.492133
vt 0.805551 0.492196
vt 0.802658 0.480397
vt 0.796698 0.632149
vt 0.802662 0.617823
vt 0.804498 0.617733
vt 0.797833 0.633837
vt 0.602868 0.769880
vt 0.530975 0.775832
vt 0.926525 0.687961
vt 0.912904 0.688947
vt 0.621646 0.688947
vt 0.608025 0.687961
vt 0.790400 0.702329
vt 0.774798 0.707355
vt 0.931748 0.688985
vt 0.991802 0.687180
vt 0.759751 0.707355
vt 0.744150 0.702329
s 1
usemtl Material
f 102/1/1 35/2/1 47/3/1 104/4/1
f 5/5/1 8/6/1 34/7/1 35/2/1
f 104/4/1 47/3/1 55/8/1 101/9/1
f 101/9/1 55/8/1 63/10/1 100/11/1
f 100/11/1 63/10/1 43/12/1 105/13/1
f 105/13/1 43/12/1 51/14/1 106/15/1
f 106/15/1 51/14/1 59/16/1 107/17/1
f 103/18/2 66/19/2 99/20/2 108/21/2
f 28/22/3 11/23/4 6/24/5 23/25/6
f 26/26/7 24/27/8 18/28/6 17/29/9
f 25/30/10 31/31/11 22/32/12 21/33/13
f 110/34/14 26/26/7 17/29/9 109/35/15
f 27/36/10 25/30/10 21/33/13 20/37/16
f 30/38/10 27/36/10 20/37/16 19/39/17
f 31/31/11 28/22/3 23/25/6 22/32/12
f 24/27/8 30/38/10 19/39/17 18/28/6
f 2/40/18 7/41/19 68/42/20 65/43/21
f 43/12/1 63/10/1 62/44/1 42/45/1
f 42/45/1 62/44/1 61/46/1 41/47/1
f 41/47/1 61/46/1 60/48/1 40/49/1
f 40/49/1 60/48/1 27/36/10 30/38/10
f 47/3/1 35/2/1 34/7/1 46/50/1
f 46/50/1 34/7/1 33/51/1 45/52/1
f 45/52/1 33/51/1 32/53/1 44/54/1
f 44/54/1 32/53/1 28/22/3 31/31/11
f 51/14/1 43/12/1 42/45/1 50/55/1
f 50/55/1 42/45/1 41/47/1 49/56/1
f 49/56/1 41/47/1 40/49/1 48/57/1
f 48/57/1 40/49/1 30/38/10 24/27/8
f 4/58/1 7/59/1 2/60/1 66/61/1
f 34/7/1 8/6/1 9/62/1 33/51/1
f 33/51/1 9/62/1 10/63/1 32/53/1
f 32/53/1 10/63/1 11/23/4 28/22/3
f 59/16/1 51/14/1 50/55/1 58/64/1
f 58/64/1 50/55/1 49/56/1 57/65/1
f 57/65/1 49/56/1 48/57/1 56/66/1
f 56/66/1 48/57/1 24/27/8 26/26/7
f 55/8/1 47/3/1 46/50/1 54/67/1
f 54/67/1 46/50/1 45/52/1 53/68/1
f 53/68/1 45/52/1 44/54/1 52/69/1
f 52/69/1 44/54/1 31/31/11 25/30/10
f 114/70/1 59/16/1 58/64/1 113/71/1
f 113/71/1 58/64/1 57/65/1 112/72/1
f 112/72/1 57/65/1 56/66/1 111/73/1
f 111/73/1 56/66/1 26/26/7 110/34/14
f 63/10/1 55/8/1 54/67/1 62/44/1
f 62/44/1 54/67/1 53/68/1 61/46/1
f 61/46/1 53/68/1 52/69/1 60/48/1
f 60/48/1 52/69/1 25/30/10 27/36/10
f 9/74/22 8/75/23 69/76/24 70/77/25
f 29/78/26 3/79/26 78/80/26
f 10/81/27 9/74/22 70/77/25 71/82/28
f 36/83/26 29/78/26 78/80/26 79/84/26
f 11/85/29 10/81/27 71/82/28 72/86/30
f 37/87/26 36/83/26 79/84/26 80/88/26
f 6/89/31 11/85/29 72/86/30
f 38/90/26 37/87/26 80/88/26 81/91/26
f 12/92/32 13/93/33 74/94/34 73/95/35
f 39/96/26 38/90/26 81/91/26 82/97/26
f 13/93/33 14/98/36 75/99/37 74/94/34
f 66/19/2 2/100/2 65/101/2 99/20/2
f 14/98/36 15/102/38 76/103/39 75/99/37
f 102/1/1 4/58/1 66/61/1 103/104/1
f 15/102/38 16/105/40 77/106/41 76/103/39
f 1/107/42 12/92/32 73/95/35 64/108/43
f 15/109/1 97/110/1 98/111/1 16/112/1
f 7/41/19 1/107/42 64/108/43 68/42/20
f 8/75/23 5/113/44 67/114/45 69/76/24
f 88/115/46 84/116/47 87/117/48 90/118/49
f 90/118/49 87/117/48 86/119/50 91/120/51
f 91/120/51 86/119/50 85/121/52 92/122/53
f 92/122/53 85/121/52 83/123/54 89/124/55
f 83/123/54 39/96/26 82/97/26 89/124/55
f 123/125/1 121/126/1 39/127/1 83/128/1
f 16/105/40 84/116/47 88/115/46 77/106/41
f 14/129/1 96/130/1 97/110/1 15/109/1
f 13/131/1 95/132/1 96/130/1 14/129/1
f 12/133/1 94/134/1 95/132/1 13/131/1
f 1/135/1 93/136/1 94/134/1 12/133/1
f 7/59/1 4/58/1 93/136/1 1/135/1
f 122/137/1 85/138/1 86/139/1
f 35/2/1 102/1/1 103/104/1 5/5/1
f 5/113/44 103/18/2 108/21/2 67/114/45
f 97/110/1 106/15/1 107/17/1 98/111/1
f 96/130/1 105/13/1 106/15/1 97/110/1
f 95/132/1 100/11/1 105/13/1 96/130/1
f 94/134/1 101/9/1 100/11/1 95/132/1
f 93/136/1 104/4/1 101/9/1 94/134/1
f 4/58/1 102/1/1 104/4/1 93/136/1
f 122/137/1 123/125/1 83/128/1 85/138/1
f 98/111/1 107/17/1 116/140/1 115/141/1
f 107/17/1 59/16/1 114/70/1 116/140/1
f 118/142/1 111/73/1 110/34/14 117/143/56
f 119/144/1 112/72/1 111/73/1 118/142/1
f 120/145/1 113/71/1 112/72/1 119/144/1
f 121/126/1 114/70/1 113/71/1 120/145/1
f 117/143/56 110/34/14 109/35/15 124/146/57
f 29/147/58 117/143/56 124/146/57 3/148/59
f 39/127/1 121/126/1 120/145/1 38/149/1
f 38/149/1 120/145/1 119/144/1 37/150/1
f 37/150/1 119/144/1 118/142/1 36/151/1
f 36/151/1 118/142/1 117/143/56 29/147/58
f 115/141/1 116/140/1 123/125/1 122/137/1
f 116/140/1 114/70/1 121/126/1 123/125/1
f 16/112/1 98/111/1 115/141/1 84/152/1
f 84/152/1 115/141/1 122/137/1 87/153/1
f 87/153/1 122/137/1 86/139/1
f 193/154/60 195/155/60 162/156/60 150/157/60
f 128/158/60 150/157/60 149/159/60 130/160/60
f 195/155/60 192/161/60 170/162/60 162/156/60
f 192/161/60 191/163/60 178/164/60 170/162/60
f 191/163/60 196/165/60 158/166/60 178/164/60
f 196/165/60 197/167/60 166/168/60 158/166/60
f 197/167/60 198/169/60 174/170/60 166/168/60
f 194/171/2 108/21/2 99/20/2 179/172/2
f 143/173/61 23/174/62 6/175/63 133/176/64
f 141/177/65 17/178/66 18/179/62 139/180/67
f 140/181/68 21/182/69 22/183/70 146/184/71
f 199/185/72 109/186/73 17/178/66 141/177/65
f 142/187/68 20/188/74 21/182/69 140/181/68
f 145/189/68 19/190/75 20/188/74 142/187/68
f 146/184/71 22/183/70 23/174/62 143/173/61
f 139/180/67 18/179/62 19/190/75 145/189/68
f 126/191/76 65/43/21 68/42/20 129/192/77
f 158/166/60 157/193/60 177/194/60 178/164/60
f 157/193/60 156/195/60 176/196/60 177/194/60
f 156/195/60 155/197/60 175/198/60 176/196/60
f 155/197/60 145/189/68 142/187/68 175/198/60
f 162/156/60 161/199/60 149/159/60 150/157/60
f 161/199/60 160/200/60 148/201/60 149/159/60
f 160/200/60 159/202/60 147/203/60 148/201/60
f 159/202/60 146/184/71 143/173/61 147/203/60
f 166/168/60 165/204/60 157/193/60 158/166/60
f 165/204/60 164/205/60 156/195/60 157/193/60
f 164/205/60 163/206/60 155/197/60 156/195/60
f 163/206/60 139/180/67 145/189/68 155/197/60
f 127/207/60 179/208/60 126/209/60 129/210/60
f 149/159/60 148/201/60 131/211/60 130/160/60
f 148/201/60 147/203/60 132/212/60 131/211/60
f 147/203/60 143/173/61 133/176/64 132/212/60
f 174/170/60 173/213/60 165/204/60 166/168/60
f 173/213/60 172/214/60 164/205/60 165/204/60
f 172/214/60 171/215/60 163/206/60 164/205/60
f 171/215/60 141/177/65 139/180/67 163/206/60
f 170/162/60 169/216/60 161/199/60 162/156/60
f 169/216/60 168/217/60 160/200/60 161/199/60
f 168/217/60 167/218/60 159/202/60 160/200/60
f 167/218/60 140/181/68 146/184/71 159/202/60
f 203/219/60 202/220/60 173/213/60 174/170/60
f 202/220/60 201/221/60 172/214/60 173/213/60
f 201/221/60 200/222/60 171/215/60 172/214/60
f 200/222/60 199/185/72 141/177/65 171/215/60
f 178/164/60 177/194/60 169/216/60 170/162/60
f 177/194/60 176/196/60 168/217/60 169/216/60
f 176/196/60 175/198/60 167/218/60 168/217/60
f 175/198/60 142/187/68 140/181/68 167/218/60
f 131/223/22 70/77/25 69/76/24 130/224/78
f 144/225/26 78/80/26 3/79/26
f 132/226/79 71/82/28 70/77/25 131/223/22
f 151/227/26 79/84/26 78/80/26 144/225/26
f 133/228/29 72/86/30 71/82/28 132/226/79
f 152/229/26 80/88/26 79/84/26 151/227/26
f 6/89/31 72/86/30 133/228/29
f 153/230/26 81/91/26 80/88/26 152/229/26
f 134/231/80 73/95/35 74/94/34 135/232/81
f 154/233/26 82/97/26 81/91/26 153/230/26
f 135/232/81 74/94/34 75/99/37 136/234/82
f 179/172/2 99/20/2 65/101/2 126/235/2
f 136/234/82 75/99/37 76/103/39 137/236/83
f 193/154/60 194/237/60 179/208/60 127/207/60
f 137/236/83 76/103/39 77/106/41 138/238/84
f 125/239/85 64/108/43 73/95/35 134/231/80
f 137/240/60 138/241/60 190/242/60 189/243/60
f 129/192/77 68/42/20 64/108/43 125/239/85
f 130/224/78 69/76/24 67/114/45 128/244/86
f 88/115/46 90/118/49 184/245/87 181/246/88
f 90/118/49 91/120/51 183/247/89 184/245/87
f 91/120/51 92/122/53 182/248/90 183/247/89
f 92/122/53 89/124/55 180/249/91 182/248/90
f 180/249/91 89/124/55 82/97/26 154/233/26
f 212/250/60 180/251/60 154/252/60 210/253/60
f 138/238/84 77/106/41 88/115/46 181/246/88
f 136/254/60 137/240/60 189/243/60 188/255/60
f 135/256/60 136/254/60 188/255/60 187/257/60
f 134/258/60 135/256/60 187/257/60 186/259/60
f 125/260/60 134/258/60 186/259/60 185/261/60
f 129/210/60 125/260/60 185/261/60 127/207/60
f 211/262/60 183/263/60 182/264/60
f 150/157/60 128/158/60 194/237/60 193/154/60
f 128/244/86 67/114/45 108/21/2 194/171/2
f 189/243/60 190/242/60 198/169/60 197/167/60
f 188/255/60 189/243/60 197/167/60 196/165/60
f 187/257/60 188/255/60 196/165/60 191/163/60
f 186/259/60 187/257/60 191/163/60 192/161/60
f 185/261/60 186/259/60 192/161/60 195/155/60
f 127/207/60 185/261/60 195/155/60 193/154/60
f 211/262/60 182/264/60 180/251/60 212/250/60
f 190/242/60 204/265/60 205/266/60 198/169/60
f 198/169/60 205/266/60 203/219/60 174/170/60
f 207/267/60 206/268/92 199/185/72 200/222/60
f 208/269/60 207/267/60 200/222/60 201/221/60
f 209/270/60 208/269/60 201/221/60 202/220/60
f 210/253/60 209/270/60 202/220/60 203/219/60
f 206/268/92 124/271/93 109/186/73 199/185/72
f 144/272/94 3/273/95 124/271/93 206/268/92
f 154/252/60 153/274/60 209/270/60 210/253/60
f 153/274/60 152/275/60 208/269/60 209/270/60
f 152/275/60 151/276/60 207/267/60 208/269/60
f 151/276/60 144/272/94 206/268/92 207/267/60
f 204/265/60 211/262/60 212/250/60 205/266/60
f 205/266/60 212/250/60 210/253/60 203/219/60
f 138/241/60 181/277/60 204/265/60 190/242/60
f 181/277/60 184/278/60 211/262/60 204/265/60
f 184/278/60 183/263/60 211/262/60
f 299/279/96 300/280/97 327/281/98
f 301/282/99 328/283/100 302/284/101
f 325/285/102 314/286/103 313/287/104
f 326/288/105 315/289/106 316/290/107
f 287/291/108 289/292/109 215/293/110 213/294/111
f 213/294/111 266/295/112 285/296/113 287/291/108
f 288/297/114 214/298/115 216/299/116 290/300/117
f 214/298/115 288/297/114 286/301/118 268/302/119
f 289/292/109 291/303/120 217/304/121 215/293/110
f 290/300/117 216/299/116 218/305/122 292/306/123
f 291/303/120 331/307/124 329/308/125 217/304/121
f 292/306/123 218/305/122 330/309/126 332/310/127
f 293/311/128 295/312/129 221/313/130 219/314/131
f 219/314/131 329/308/125 331/307/124 293/311/128
f 294/315/132 220/316/133 222/317/134 296/318/135
f 220/316/133 294/315/132 332/310/127 330/309/126
f 297/319/136 223/320/137 221/313/130 295/312/129
f 298/321/138 296/318/135 222/317/134 224/322/139
f 223/320/137 297/319/136 300/280/97 225/323/140
f 224/322/139 226/324/141 302/284/101 298/321/138
f 225/323/140 300/280/97 299/279/96 227/325/142
f 226/324/141 228/326/143 301/282/99 302/284/101
f 227/325/142 299/279/96 317/327/144 255/328/145
f 228/326/143 256/329/146 318/330/147 301/282/99
f 257/331/148 229/332/149 279/333/150 281/334/151
f 271/335/152 269/336/153 230/337/154 258/338/155
f 259/339/156 282/340/157 280/341/158 231/342/159
f 272/343/160 260/344/161 232/345/162 270/346/163
f 265/347/164 233/348/165 277/349/166 275/350/167
f 277/349/166 233/348/165 235/351/168 303/352/169
f 267/353/170 276/354/171 278/355/172 234/356/173
f 278/355/172 304/357/174 236/358/175 234/356/173
f 237/359/176 305/360/177 303/352/169 235/351/168
f 238/361/178 236/358/175 304/357/174 306/362/179
f 305/360/177 237/359/176 333/363/180 334/364/181
f 306/362/179 336/365/182 335/366/183 238/361/178
f 334/364/181 333/363/180 239/367/184 307/368/185
f 309/369/186 307/368/185 239/367/184 241/370/187
f 336/365/182 308/371/188 240/372/189 335/366/183
f 310/373/190 242/374/191 240/372/189 308/371/188
f 311/375/192 309/369/186 241/370/187 243/376/193
f 312/377/194 244/378/195 242/374/191 310/373/190
f 245/379/196 314/286/103 311/375/192 243/376/193
f 246/380/197 244/378/195 312/377/194 316/290/107
f 314/286/103 245/379/196 247/381/198 313/287/104
f 316/290/107 315/289/106 248/382/199 246/380/197
f 247/381/198 249/383/200 319/384/201 313/287/104
f 248/382/199 315/289/106 320/385/202 250/386/203
f 249/383/200 251/387/204 323/388/205 319/384/201
f 250/386/203 320/385/202 324/389/206 252/390/207
f 321/391/208 323/388/205 251/387/204 253/392/209
f 322/393/210 254/394/211 252/390/207 324/389/206
f 253/392/209 255/328/145 317/327/144 321/391/208
f 254/394/211 322/393/210 318/330/147 256/329/146
f 281/334/151 283/395/212 261/396/213 257/331/148
f 258/338/155 262/397/214 273/398/215 271/335/152
f 282/340/157 259/339/156 263/399/216 284/400/217
f 260/344/161 272/343/160 274/401/218 264/402/219
f 283/395/212 285/296/113 266/295/112 261/396/213
f 262/397/214 265/347/164 275/350/167 273/398/215
f 284/400/217 263/399/216 268/302/119 286/301/118
f 264/402/219 274/401/218 276/354/171 267/353/170
f 269/336/153 271/335/152 281/334/151 279/333/150
f 270/346/163 280/341/158 282/340/157 272/343/160
f 271/335/152 273/398/215 283/395/212 281/334/151
f 272/343/160 282/340/157 284/400/217 274/401/218
f 273/398/215 275/350/167 285/296/113 283/395/212
f 274/401/218 284/400/217 286/301/118 276/354/171
f 275/350/167 277/349/166 287/291/108 285/296/113
f 276/354/171 286/301/118 288/297/114 278/355/172
f 277/349/166 303/352/169 289/292/109 287/291/108
f 278/355/172 288/297/114 290/300/117 304/357/174
f 291/303/120 289/292/109 303/352/169 305/360/177
f 292/306/123 306/362/179 304/357/174 290/300/117
f 334/364/181 331/307/124 291/303/120 305/360/177
f 336/365/182 306/362/179 292/306/123 332/310/127
f 293/311/128 307/368/185 309/369/186 295/312/129
f 294/315/132 296/318/135 310/373/190 308/371/188
f 295/312/129 309/369/186 311/375/192 297/319/136
f 296/318/135 298/321/138 312/377/194 310/373/190
f 297/319/136 311/375/192 314/286/103 300/280/97
f 298/321/138 302/284/101 316/290/107 312/377/194
f 299/279/96 327/281/98 321/391/208 317/327/144
f 300/280/97 314/286/103 325/285/102 327/281/98
f 301/282/99 318/330/147 322/393/210 328/283/100
f 302/284/101 328/283/100 326/288/105 316/290/107
f 313/287/104 319/384/201 323/388/205 325/285/102
f 315/289/106 326/288/105 324/389/206 320/385/202
f 307/368/185 293/311/128 331/307/124 334/364/181
f 308/371/188 336/365/182 332/310/127 294/315/132
f 327/281/98 325/285/102 323/388/205 321/391/208
f 328/283/100 322/393/210 324/389/206 326/288/105
f 228/403/143 226/404/141 225/405/140 227/406/142
f 226/404/141 224/407/139 223/408/137 225/405/140
f 224/407/139 222/409/134 221/410/130 223/408/137
f 222/409/134 220/411/133 219/412/131 221/410/130
f 220/411/133 330/413/126 329/414/125 219/412/131
f 330/413/126 218/415/122 217/416/121 329/414/125
f 218/415/122 216/417/116 215/418/110 217/416/121
f 216/417/116 214/419/115 213/420/111 215/418/110
f 214/419/115 268/421/119 266/422/112 213/420/111
f 268/421/119 263/423/216 261/424/213 266/422/112
f 263/423/216 259/425/156 257/426/148 261/424/213
f 259/425/156 231/427/159 229/428/149 257/426/148
f 232/429/162 260/430/161 258/431/155 230/432/154
f 260/430/161 264/433/219 262/434/214 258/431/155
f 264/433/219 267/435/170 265/436/164 262/434/214
f 267/435/170 234/437/173 233/438/165 265/436/164
f 234/437/173 236/439/175 235/440/168 233/438/165
f 236/439/175 238/441/178 237/442/176 235/440/168
f 238/441/178 335/443/183 333/444/180 237/442/176
f 335/443/183 240/445/189 239/446/184 333/444/180
f 240/445/189 242/447/191 241/448/187 239/446/184
f 242/447/191 244/449/195 243/450/193 241/448/187
f 244/449/195 246/451/197 245/452/196 243/450/193
f 246/451/197 248/453/199 247/454/198 245/452/196
f 248/455/199 250/456/203 249/457/200 247/458/198
f 250/456/203 252/459/207 251/460/204 249/457/200
f 252/459/207 254/461/211 253/462/209 251/460/204
f 254/461/211 256/463/146 255/464/145 253/462/209
f 256/463/146 228/403/143 227/406/142 255/464/145
f 337/465/220 349/466/221 350/467/222 338/468/223
f 342/469/224 345/470/225 346/471/226 341/472/227
f 340/473/228 351/474/229 352/475/230 339/476/231
f 343/477/232 347/478/233 348/479/234 344/480/235
f 345/470/225 350/467/222 349/466/221 346/471/226
f 347/478/233 352/475/230 351/474/229 348/479/234
f 339/476/231 337/465/220 338/468/223 340/473/228
f 341/472/227 343/477/232 344/480/235 342/469/224
f 231/427/159 340/481/228 338/482/223 229/428/149
f 229/332/149 338/483/223 350/484/222 279/333/150
f 339/476/231 352/475/230 349/466/221 337/465/220
f 231/342/159 280/341/158 351/485/229 340/486/228
f 347/478/233 343/477/232 341/472/227 346/471/226
f 269/336/153 345/487/225 342/488/224 230/337/154
f 344/489/235 232/429/162 230/432/154 342/490/224
f 270/346/163 232/345/162 344/491/235 348/492/234
f 345/487/225 269/336/153 279/333/150 350/484/222
f 352/475/230 347/478/233 346/471/226 349/466/221
f 348/492/234 351/485/229 280/341/158 270/346/163
